%
M48
M72
T01C0.0240
T02C0.0320
T03C0.0400
T04C0.0440
T05C0.0512
T06C0.1102
T07C0.1300
T08C0.2165
%
T01
X23062Y17851
X22062Y19851
X11812Y20851
X8062Y20851
X5562Y20351
T02
X8812Y12101
X9812Y12101
X10812Y12101
X11812Y12101
X12812Y12101
X13812Y12101
X14812Y12101
X14812Y9601
X13812Y9601
X12812Y9601
X11812Y9601
X10812Y9601
X9812Y9601
X8812Y9601
X8812Y6601
X9812Y6601
X10812Y6601
X11812Y6601
X12812Y6601
X13812Y6601
X14812Y6601
X14812Y4101
X13812Y4101
X12812Y4101
X11812Y4101
X10812Y4101
X9812Y4101
X8812Y4101
X28312Y4101
X29312Y4101
X30312Y4101
X31312Y4101
X32312Y4101
X33312Y4101
X34312Y4101
X34312Y6601
X33312Y6601
X32312Y6601
X31312Y6601
X30312Y6601
X29312Y6601
X28312Y6601
X28312Y9601
X29312Y9601
X30312Y9601
X31312Y9601
X32312Y9601
X33312Y9601
X34312Y9601
X34312Y12101
X33312Y12101
X32312Y12101
X31312Y12101
X30312Y12101
X29312Y12101
X28312Y12101
T03
X3312Y3601
X3312Y4601
X4812Y1101
X5812Y1101
X8812Y2101
X9812Y2101
X10812Y2101
X16812Y7601
X16812Y8601
X22312Y11601
X23312Y11601
X22812Y5101
X22812Y4101
X36312Y7601
X36312Y8601
X36312Y15501
X37312Y15501
X38312Y15501
X38312Y17701
X37312Y17701
X36312Y17701
X36312Y19601
X37312Y19601
X38312Y19601
X24312Y19601
X24312Y20601
X24312Y18601
X4812Y13601
X3812Y13601
X2812Y13601
T04
X11312Y22101
X11312Y23101
X11312Y24101
X31312Y24101
X31312Y23101
X31312Y22101
T05
X24812Y24101
X19812Y24101
X18812Y23101
X18812Y18101
X7812Y24101
X2812Y24101
T06
X10312Y28101
X10312Y18101
X30312Y18101
X30312Y28101
T07
X25912Y23101
X5912Y23101
T08
X2712Y28901
X18812Y15601
X37612Y26401
M30
