G75*
G70*
%OFA0B0*%
%FSLAX24Y24*%
%IPPOS*%
%LPD*%
%AMOC8*
5,1,8,0,0,1.08239X$1,22.5*
%
%ADD10C,0.0060*%
%ADD11R,0.0120X0.0390*%
%ADD12C,0.0560*%
D10*
X001106Y001108D02*
X001366Y001508D01*
X002146Y002288D01*
X003706Y002288D01*
X003710Y002459D01*
X003966Y002459D02*
X003946Y002288D01*
X003946Y002228D01*
X003526Y001808D01*
X002626Y001808D01*
X002326Y001508D01*
X002106Y001108D01*
X003106Y001108D02*
X003346Y001388D01*
X004186Y002228D01*
X004186Y002288D01*
X004222Y002459D01*
X004478Y002459D02*
X004426Y002288D01*
X004426Y001808D01*
X004246Y001628D01*
X004106Y001108D01*
X004786Y001808D02*
X004966Y001628D01*
X005106Y001108D01*
X005866Y001388D02*
X006106Y001108D01*
X005866Y001388D02*
X005026Y002228D01*
X005026Y002288D01*
X004990Y002459D01*
X005246Y002459D02*
X005266Y002288D01*
X005266Y002228D01*
X005686Y001808D01*
X006586Y001808D01*
X006886Y001508D01*
X007106Y001108D01*
X007846Y001508D02*
X008106Y001108D01*
X007846Y001508D02*
X007066Y002288D01*
X005506Y002288D01*
X005502Y002459D01*
X004786Y002288D02*
X004734Y002459D01*
X004786Y002288D02*
X004786Y001808D01*
X005886Y003388D02*
X006353Y003388D01*
X006119Y003388D02*
X006119Y004089D01*
X005886Y003855D01*
X006586Y003738D02*
X006586Y003505D01*
X006702Y003388D01*
X006936Y003388D01*
X007053Y003505D01*
X007053Y003622D01*
X006936Y003738D01*
X006586Y003738D01*
X006819Y003972D01*
X007053Y004089D01*
X007066Y004928D02*
X007846Y005708D01*
X008106Y006108D01*
X007106Y006108D02*
X006886Y005708D01*
X006586Y005408D01*
X005686Y005408D01*
X005266Y004988D01*
X005266Y004928D01*
X005246Y004757D01*
X004990Y004757D02*
X005026Y004928D01*
X005026Y004988D01*
X005866Y005828D01*
X006106Y006108D01*
X005106Y006108D02*
X004966Y005588D01*
X004786Y005408D01*
X004786Y004928D01*
X004734Y004757D01*
X004478Y004757D02*
X004426Y004928D01*
X004426Y005408D01*
X004246Y005588D01*
X004106Y006108D01*
X003346Y005828D02*
X003106Y006108D01*
X003346Y005828D02*
X004186Y004988D01*
X004186Y004928D01*
X004222Y004757D01*
X003966Y004757D02*
X003946Y004928D01*
X003946Y004988D01*
X003526Y005408D01*
X002626Y005408D01*
X002326Y005708D01*
X002106Y006108D01*
X001366Y005708D02*
X001106Y006108D01*
X001366Y005708D02*
X002146Y004928D01*
X003706Y004928D01*
X003710Y004757D01*
X003535Y004089D02*
X003185Y004089D01*
X003185Y003388D01*
X002952Y003505D02*
X002952Y003972D01*
X002836Y004089D01*
X002602Y004089D01*
X002485Y003972D01*
X002485Y003505D01*
X002602Y003388D01*
X002836Y003388D01*
X002952Y003505D01*
X003185Y003622D02*
X003535Y003622D01*
X003652Y003738D01*
X003652Y003972D01*
X003535Y004089D01*
X002253Y003972D02*
X002136Y004089D01*
X001902Y004089D01*
X001786Y003972D01*
X001786Y003855D01*
X001902Y003738D01*
X002136Y003738D01*
X002253Y003622D01*
X002253Y003505D01*
X002136Y003388D01*
X001902Y003388D01*
X001786Y003505D01*
X001553Y003505D02*
X001436Y003388D01*
X001202Y003388D01*
X001086Y003505D01*
X001202Y003738D02*
X001436Y003738D01*
X001553Y003622D01*
X001553Y003505D01*
X001202Y003738D02*
X001086Y003855D01*
X001086Y003972D01*
X001202Y004089D01*
X001436Y004089D01*
X001553Y003972D01*
X000853Y004089D02*
X000386Y004089D01*
X000619Y004089D02*
X000619Y003388D01*
X005502Y004757D02*
X005506Y004928D01*
X007066Y004928D01*
D11*
X005502Y004757D03*
X005246Y004757D03*
X004990Y004757D03*
X004734Y004757D03*
X004478Y004757D03*
X004222Y004757D03*
X003966Y004757D03*
X003710Y004757D03*
X003710Y002459D03*
X003966Y002459D03*
X004222Y002459D03*
X004478Y002459D03*
X004734Y002459D03*
X004990Y002459D03*
X005246Y002459D03*
X005502Y002459D03*
D12*
X001106Y001388D02*
X001106Y000828D01*
X002106Y000828D02*
X002106Y001388D01*
X003106Y001388D02*
X003106Y000828D01*
X004106Y000828D02*
X004106Y001388D01*
X005106Y001388D02*
X005106Y000828D01*
X006106Y000828D02*
X006106Y001388D01*
X007106Y001388D02*
X007106Y000828D01*
X008106Y000828D02*
X008106Y001388D01*
X008106Y005828D02*
X008106Y006388D01*
X007106Y006388D02*
X007106Y005828D01*
X006106Y005828D02*
X006106Y006388D01*
X005106Y006388D02*
X005106Y005828D01*
X004106Y005828D02*
X004106Y006388D01*
X003106Y006388D02*
X003106Y005828D01*
X002106Y005828D02*
X002106Y006388D01*
X001106Y006388D02*
X001106Y005828D01*
M02*
