G75*
G70*
%OFA0B0*%
%FSLAX24Y24*%
%IPPOS*%
%LPD*%
%AMOC8*
5,1,8,0,0,1.08239X$1,22.5*
%
%ADD10R,0.0080X0.0160*%
%ADD11C,0.0600*%
%ADD12R,0.0250X0.0500*%
%ADD13C,0.0100*%
%ADD14C,0.0160*%
D10*
X002388Y002911D03*
X002388Y003039D03*
X002644Y003039D03*
X002644Y002911D03*
X002900Y002911D03*
X002900Y003039D03*
X003156Y003039D03*
X003156Y002911D03*
X003156Y003807D03*
X003156Y003935D03*
X002900Y003935D03*
X002900Y003807D03*
X002644Y003807D03*
X002644Y003935D03*
X002388Y003935D03*
X002388Y003807D03*
X007388Y003807D03*
X007388Y003935D03*
X007644Y003935D03*
X007644Y003807D03*
X007900Y003807D03*
X007900Y003935D03*
X008156Y003935D03*
X008156Y003807D03*
X008156Y003039D03*
X008156Y002911D03*
X007900Y002911D03*
X007900Y003039D03*
X007644Y003039D03*
X007644Y002911D03*
X007388Y002911D03*
X007388Y003039D03*
X012388Y003039D03*
X012388Y002911D03*
X012644Y002911D03*
X012644Y003039D03*
X012900Y003039D03*
X012900Y002911D03*
X013156Y002911D03*
X013156Y003039D03*
X013156Y003807D03*
X013156Y003935D03*
X012900Y003935D03*
X012900Y003807D03*
X012644Y003807D03*
X012644Y003935D03*
X012388Y003935D03*
X012388Y003807D03*
X017388Y003807D03*
X017388Y003935D03*
X017644Y003935D03*
X017644Y003807D03*
X017900Y003807D03*
X017900Y003935D03*
X018156Y003935D03*
X018156Y003807D03*
X018156Y003039D03*
X018156Y002911D03*
X017900Y002911D03*
X017900Y003039D03*
X017644Y003039D03*
X017644Y002911D03*
X017388Y002911D03*
X017388Y003039D03*
X022388Y003039D03*
X022388Y002911D03*
X022644Y002911D03*
X022644Y003039D03*
X022900Y003039D03*
X022900Y002911D03*
X023156Y002911D03*
X023156Y003039D03*
X023156Y003807D03*
X023156Y003935D03*
X022900Y003935D03*
X022900Y003807D03*
X022644Y003807D03*
X022644Y003935D03*
X022388Y003935D03*
X022388Y003807D03*
X027388Y003807D03*
X027388Y003935D03*
X027644Y003935D03*
X027644Y003807D03*
X027900Y003807D03*
X027900Y003935D03*
X028156Y003935D03*
X028156Y003807D03*
X028156Y003039D03*
X028156Y002911D03*
X027900Y002911D03*
X027900Y003039D03*
X027644Y003039D03*
X027644Y002911D03*
X027388Y002911D03*
X027388Y003039D03*
D11*
X001272Y001723D02*
X001272Y001123D01*
X002272Y001123D02*
X002272Y001723D01*
X003272Y001723D02*
X003272Y001123D01*
X004272Y001123D02*
X004272Y001723D01*
X006272Y001723D02*
X006272Y001123D01*
X007272Y001123D02*
X007272Y001723D01*
X008272Y001723D02*
X008272Y001123D01*
X009272Y001123D02*
X009272Y001723D01*
X011272Y001723D02*
X011272Y001123D01*
X012272Y001123D02*
X012272Y001723D01*
X013272Y001723D02*
X013272Y001123D01*
X014272Y001123D02*
X014272Y001723D01*
X016272Y001723D02*
X016272Y001123D01*
X017272Y001123D02*
X017272Y001723D01*
X018272Y001723D02*
X018272Y001123D01*
X019272Y001123D02*
X019272Y001723D01*
X021272Y001723D02*
X021272Y001123D01*
X022272Y001123D02*
X022272Y001723D01*
X023272Y001723D02*
X023272Y001123D01*
X024272Y001123D02*
X024272Y001723D01*
X026272Y001723D02*
X026272Y001123D01*
X027272Y001123D02*
X027272Y001723D01*
X028272Y001723D02*
X028272Y001123D01*
X029272Y001123D02*
X029272Y001723D01*
X029272Y005123D02*
X029272Y005723D01*
X028272Y005723D02*
X028272Y005123D01*
X027272Y005123D02*
X027272Y005723D01*
X026272Y005723D02*
X026272Y005123D01*
X024272Y005123D02*
X024272Y005723D01*
X023272Y005723D02*
X023272Y005123D01*
X022272Y005123D02*
X022272Y005723D01*
X021272Y005723D02*
X021272Y005123D01*
X019272Y005123D02*
X019272Y005723D01*
X018272Y005723D02*
X018272Y005123D01*
X017272Y005123D02*
X017272Y005723D01*
X016272Y005723D02*
X016272Y005123D01*
X014272Y005123D02*
X014272Y005723D01*
X013272Y005723D02*
X013272Y005123D01*
X012272Y005123D02*
X012272Y005723D01*
X011272Y005723D02*
X011272Y005123D01*
X009272Y005123D02*
X009272Y005723D01*
X008272Y005723D02*
X008272Y005123D01*
X007272Y005123D02*
X007272Y005723D01*
X006272Y005723D02*
X006272Y005123D01*
X004272Y005123D02*
X004272Y005723D01*
X003272Y005723D02*
X003272Y005123D01*
X002272Y005123D02*
X002272Y005723D01*
X001272Y005723D02*
X001272Y005123D01*
X001772Y007523D02*
X001772Y008123D01*
X002772Y008123D02*
X002772Y007523D01*
X003772Y007523D02*
X003772Y008123D01*
X004772Y008123D02*
X004772Y007523D01*
X008072Y007523D02*
X008072Y008123D01*
X009072Y008123D02*
X009072Y007523D01*
X010072Y007523D02*
X010072Y008123D01*
X011072Y008123D02*
X011072Y007523D01*
X014472Y007523D02*
X014472Y008123D01*
X015472Y008123D02*
X015472Y007523D01*
X016472Y007523D02*
X016472Y008123D01*
X017472Y008123D02*
X017472Y007523D01*
X020372Y007523D02*
X020372Y008123D01*
X021372Y008123D02*
X021372Y007523D01*
X022372Y007523D02*
X022372Y008123D01*
X023372Y008123D02*
X023372Y007523D01*
X024372Y007523D02*
X024372Y008123D01*
X025372Y008123D02*
X025372Y007523D01*
X026372Y007523D02*
X026372Y008123D01*
X027372Y008123D02*
X027372Y007523D01*
X028372Y007523D02*
X028372Y008123D01*
X029372Y008123D02*
X029372Y007523D01*
X029372Y015523D02*
X029372Y016123D01*
X028372Y016123D02*
X028372Y015523D01*
X027372Y015523D02*
X027372Y016123D01*
X026372Y016123D02*
X026372Y015523D01*
X025372Y015523D02*
X025372Y016123D01*
X024372Y016123D02*
X024372Y015523D01*
X023372Y015523D02*
X023372Y016123D01*
X022372Y016123D02*
X022372Y015523D01*
X021372Y015523D02*
X021372Y016123D01*
X020372Y016123D02*
X020372Y015523D01*
X020372Y018023D02*
X020372Y018623D01*
X021372Y018623D02*
X021372Y018023D01*
X022372Y018023D02*
X022372Y018623D01*
X023372Y018623D02*
X023372Y018023D01*
X024372Y018023D02*
X024372Y018623D01*
X025372Y018623D02*
X025372Y018023D01*
X026372Y018023D02*
X026372Y018623D01*
X027372Y018623D02*
X027372Y018023D01*
X028372Y018023D02*
X028372Y018623D01*
X029372Y018623D02*
X029372Y018023D01*
X029372Y026023D02*
X029372Y026623D01*
X028372Y026623D02*
X028372Y026023D01*
X027372Y026023D02*
X027372Y026623D01*
X026372Y026623D02*
X026372Y026023D01*
X025372Y026023D02*
X025372Y026623D01*
X024372Y026623D02*
X024372Y026023D01*
X023372Y026023D02*
X023372Y026623D01*
X022372Y026623D02*
X022372Y026023D01*
X021372Y026023D02*
X021372Y026623D01*
X020372Y026623D02*
X020372Y026023D01*
X017472Y023223D02*
X017472Y022623D01*
X016472Y022623D02*
X016472Y023223D01*
X015472Y023223D02*
X015472Y022623D01*
X014472Y022623D02*
X014472Y023223D01*
X011472Y023223D02*
X011472Y022623D01*
X010472Y022623D02*
X010472Y023223D01*
X009472Y023223D02*
X009472Y022623D01*
X008472Y022623D02*
X008472Y023223D01*
X004772Y023223D02*
X004772Y022623D01*
X003772Y022623D02*
X003772Y023223D01*
X002772Y023223D02*
X002772Y022623D01*
X001772Y022623D02*
X001772Y023223D01*
X001772Y017223D02*
X001772Y016623D01*
X002772Y016623D02*
X002772Y017223D01*
X003772Y017223D02*
X003772Y016623D01*
X004772Y016623D02*
X004772Y017223D01*
X004772Y014123D02*
X004772Y013523D01*
X003772Y013523D02*
X003772Y014123D01*
X002772Y014123D02*
X002772Y013523D01*
X001772Y013523D02*
X001772Y014123D01*
X008072Y014123D02*
X008072Y013523D01*
X009072Y013523D02*
X009072Y014123D01*
X010072Y014123D02*
X010072Y013523D01*
X011072Y013523D02*
X011072Y014123D01*
X011472Y016623D02*
X011472Y017223D01*
X010472Y017223D02*
X010472Y016623D01*
X009472Y016623D02*
X009472Y017223D01*
X008472Y017223D02*
X008472Y016623D01*
X014472Y016623D02*
X014472Y017223D01*
X015472Y017223D02*
X015472Y016623D01*
X016472Y016623D02*
X016472Y017223D01*
X017472Y017223D02*
X017472Y016623D01*
X017472Y014123D02*
X017472Y013523D01*
X016472Y013523D02*
X016472Y014123D01*
X015472Y014123D02*
X015472Y013523D01*
X014472Y013523D02*
X014472Y014123D01*
D12*
X015222Y012573D03*
X015222Y012073D03*
X015222Y011823D03*
X015722Y011823D03*
X015722Y012073D03*
X016222Y012073D03*
X016222Y011823D03*
X016722Y011823D03*
X016722Y012073D03*
X016722Y012573D03*
X016222Y012573D03*
X015722Y012573D03*
X015722Y009823D03*
X015722Y009323D03*
X015722Y009073D03*
X015222Y009073D03*
X015222Y009323D03*
X015222Y009823D03*
X016222Y009823D03*
X016222Y009823D03*
X016722Y009823D03*
X016722Y009573D03*
X016222Y009323D03*
X016222Y009073D03*
X016722Y009073D03*
X022622Y010073D03*
X022622Y010323D03*
X022622Y010823D03*
X023122Y010823D03*
X023122Y010573D03*
X023122Y010073D03*
X023622Y010073D03*
X024122Y010073D03*
X024122Y010323D03*
X024122Y010823D03*
X023622Y010823D03*
X023622Y010573D03*
X024622Y010323D03*
X024622Y010073D03*
X025122Y010073D03*
X025122Y010323D03*
X025122Y010823D03*
X025622Y010823D03*
X025622Y010573D03*
X025622Y010073D03*
X026122Y010073D03*
X026122Y010323D03*
X026122Y010823D03*
X026622Y010823D03*
X026622Y010573D03*
X027122Y010573D03*
X027122Y010823D03*
X027122Y010073D03*
X026622Y010073D03*
X024622Y010823D03*
X024622Y012823D03*
X024622Y013323D03*
X024622Y013573D03*
X024122Y013573D03*
X024122Y013073D03*
X024122Y012823D03*
X023622Y012823D03*
X023622Y013073D03*
X023622Y013573D03*
X023122Y013573D03*
X023122Y013073D03*
X023122Y012823D03*
X022622Y012823D03*
X022622Y013073D03*
X022622Y013573D03*
X025122Y013573D03*
X025122Y013323D03*
X025122Y012823D03*
X025622Y012823D03*
X025622Y013073D03*
X025622Y013573D03*
X026122Y013573D03*
X026122Y013073D03*
X026122Y012823D03*
X026622Y012823D03*
X026622Y013073D03*
X027122Y013073D03*
X027122Y012823D03*
X027122Y013573D03*
X026622Y013573D03*
X026622Y020573D03*
X027122Y020573D03*
X027122Y021073D03*
X027122Y021323D03*
X026622Y021323D03*
X026622Y021073D03*
X026122Y020823D03*
X026122Y020573D03*
X025622Y020573D03*
X025122Y020573D03*
X025122Y020823D03*
X025622Y021073D03*
X025622Y021323D03*
X025122Y021323D03*
X024622Y021323D03*
X024622Y020823D03*
X024622Y020573D03*
X024122Y020573D03*
X024122Y020823D03*
X023622Y020573D03*
X023122Y020573D03*
X022622Y020573D03*
X022622Y020823D03*
X023122Y021073D03*
X023122Y021323D03*
X022622Y021323D03*
X023622Y021323D03*
X023622Y021073D03*
X024122Y021323D03*
X026122Y021323D03*
X026122Y023323D03*
X026122Y023573D03*
X025622Y023573D03*
X025622Y023323D03*
X025122Y023323D03*
X024622Y023323D03*
X024122Y023323D03*
X024122Y023573D03*
X023622Y023573D03*
X023622Y023323D03*
X023122Y023323D03*
X023122Y023573D03*
X022622Y023573D03*
X022622Y023323D03*
X022622Y024073D03*
X023122Y024073D03*
X023622Y024073D03*
X024122Y024073D03*
X024622Y024073D03*
X024622Y023823D03*
X025122Y023823D03*
X025122Y024073D03*
X025622Y024073D03*
X026122Y024073D03*
X026622Y024073D03*
X027122Y024073D03*
X027122Y023573D03*
X027122Y023323D03*
X026622Y023323D03*
X026622Y023573D03*
X016722Y021673D03*
X016722Y021173D03*
X016722Y020923D03*
X016222Y020923D03*
X016222Y021173D03*
X016222Y021673D03*
X015722Y021673D03*
X015722Y021173D03*
X015722Y020923D03*
X015222Y020923D03*
X015222Y021173D03*
X015222Y021673D03*
X015222Y018923D03*
X015222Y018423D03*
X015222Y018173D03*
X015722Y018173D03*
X015722Y018423D03*
X016222Y018423D03*
X016222Y018173D03*
X016722Y018173D03*
X016722Y018673D03*
X016722Y018923D03*
X016222Y018923D03*
X016222Y018923D03*
X015722Y018923D03*
X010722Y018923D03*
X010722Y018673D03*
X010722Y018173D03*
X010222Y018173D03*
X009722Y018173D03*
X009222Y018173D03*
X009222Y018673D03*
X009222Y018923D03*
X009722Y018923D03*
X009722Y018673D03*
X010222Y018673D03*
X010222Y018923D03*
X010222Y020923D03*
X009722Y020923D03*
X009722Y020923D03*
X009222Y020923D03*
X009222Y021173D03*
X009222Y021673D03*
X009722Y021673D03*
X009722Y021423D03*
X010222Y021423D03*
X010222Y021673D03*
X010722Y021673D03*
X010722Y021423D03*
X010722Y020923D03*
X004022Y020923D03*
X004022Y021173D03*
X004022Y021673D03*
X003522Y021673D03*
X003522Y021173D03*
X003522Y020923D03*
X003022Y020923D03*
X003022Y021173D03*
X002522Y021173D03*
X002522Y020923D03*
X002522Y021673D03*
X003022Y021673D03*
X003022Y018923D03*
X002522Y018923D03*
X002522Y018423D03*
X002522Y018173D03*
X003022Y018173D03*
X003022Y018423D03*
X003522Y018423D03*
X003522Y018173D03*
X004022Y018173D03*
X004022Y018673D03*
X004022Y018923D03*
X003522Y018923D03*
X003522Y018923D03*
X003522Y012573D03*
X003522Y012073D03*
X003522Y011823D03*
X003022Y011823D03*
X003022Y012073D03*
X002522Y012073D03*
X002522Y011823D03*
X002522Y012573D03*
X003022Y012573D03*
X004022Y012573D03*
X004022Y012073D03*
X004022Y011823D03*
X004022Y009823D03*
X004022Y009573D03*
X004022Y009073D03*
X003522Y009073D03*
X003522Y009323D03*
X003022Y009323D03*
X003022Y009073D03*
X002522Y009073D03*
X002522Y009323D03*
X002522Y009823D03*
X003022Y009823D03*
X003522Y009823D03*
X003522Y009823D03*
X008822Y009823D03*
X008822Y009323D03*
X008822Y009073D03*
X009322Y009073D03*
X009322Y009323D03*
X009822Y009323D03*
X009822Y009073D03*
X010322Y009073D03*
X010322Y009573D03*
X010322Y009823D03*
X009822Y009823D03*
X009822Y009823D03*
X009322Y009823D03*
X009322Y011823D03*
X009322Y012073D03*
X008822Y012073D03*
X008822Y011823D03*
X008822Y012573D03*
X009322Y012573D03*
X009822Y012573D03*
X010322Y012573D03*
X010322Y012073D03*
X010322Y011823D03*
X009822Y011823D03*
X009822Y012073D03*
D13*
X009272Y005423D02*
X008156Y004307D01*
X008156Y003935D01*
X007900Y003935D02*
X007900Y005051D01*
X008272Y005423D01*
X007644Y005051D02*
X007272Y005423D01*
X007644Y005051D02*
X007644Y003935D01*
X007388Y003935D02*
X007388Y004307D01*
X006272Y005423D01*
X004272Y005423D02*
X003156Y004307D01*
X003156Y003935D01*
X002900Y003935D02*
X002900Y005051D01*
X003272Y005423D01*
X002644Y005051D02*
X002272Y005423D01*
X002644Y005051D02*
X002644Y003935D01*
X002388Y003935D02*
X002388Y004307D01*
X001272Y005423D01*
X002388Y002911D02*
X002388Y002539D01*
X001272Y001423D01*
X002272Y001423D02*
X002644Y001795D01*
X002644Y002911D01*
X002900Y002911D02*
X002900Y001795D01*
X003272Y001423D01*
X004272Y001423D02*
X003156Y002539D01*
X003156Y002911D01*
X006272Y001423D02*
X007388Y002539D01*
X007388Y002911D01*
X007644Y002911D02*
X007644Y001795D01*
X007272Y001423D01*
X007900Y001795D02*
X008272Y001423D01*
X007900Y001795D02*
X007900Y002911D01*
X008156Y002911D02*
X008156Y002539D01*
X009272Y001423D01*
X011272Y001423D02*
X012388Y002539D01*
X012388Y002911D01*
X012644Y002911D02*
X012644Y001795D01*
X012272Y001423D01*
X012900Y001795D02*
X013272Y001423D01*
X012900Y001795D02*
X012900Y002911D01*
X013156Y002911D02*
X013156Y002539D01*
X014272Y001423D01*
X016272Y001423D02*
X017388Y002539D01*
X017388Y002911D01*
X017644Y002911D02*
X017644Y001795D01*
X017272Y001423D01*
X017900Y001795D02*
X018272Y001423D01*
X017900Y001795D02*
X017900Y002911D01*
X018156Y002911D02*
X018156Y002539D01*
X019272Y001423D01*
X021272Y001423D02*
X022388Y002539D01*
X022388Y002911D01*
X022644Y002911D02*
X022644Y001795D01*
X022272Y001423D01*
X022900Y001795D02*
X023272Y001423D01*
X022900Y001795D02*
X022900Y002911D01*
X023156Y002911D02*
X023156Y002539D01*
X024272Y001423D01*
X026272Y001423D02*
X027388Y002539D01*
X027388Y002911D01*
X027644Y002911D02*
X027644Y001795D01*
X027272Y001423D01*
X027900Y001795D02*
X028272Y001423D01*
X027900Y001795D02*
X027900Y002911D01*
X028156Y002911D02*
X028156Y002539D01*
X029272Y001423D01*
X028156Y003935D02*
X028156Y004307D01*
X029272Y005423D01*
X028272Y005423D02*
X027900Y005051D01*
X027900Y003935D01*
X027644Y003935D02*
X027644Y005051D01*
X027272Y005423D01*
X026272Y005423D02*
X027388Y004307D01*
X027388Y003935D01*
X024272Y005423D02*
X023156Y004307D01*
X023156Y003935D01*
X022900Y003935D02*
X022900Y005051D01*
X023272Y005423D01*
X022644Y005051D02*
X022272Y005423D01*
X022644Y005051D02*
X022644Y003935D01*
X022388Y003935D02*
X022388Y004307D01*
X021272Y005423D01*
X019272Y005423D02*
X018156Y004307D01*
X018156Y003935D01*
X017900Y003935D02*
X017900Y005051D01*
X018272Y005423D01*
X017644Y005051D02*
X017272Y005423D01*
X017644Y005051D02*
X017644Y003935D01*
X017388Y003935D02*
X017388Y004307D01*
X016272Y005423D01*
X014272Y005423D02*
X013156Y004307D01*
X013156Y003935D01*
X012900Y003935D02*
X012900Y005051D01*
X013272Y005423D01*
X012644Y005051D02*
X012272Y005423D01*
X012644Y005051D02*
X012644Y003935D01*
X012388Y003935D02*
X012388Y004307D01*
X011272Y005423D01*
X020372Y007823D02*
X022622Y010073D01*
X023122Y010073D02*
X023122Y009573D01*
X021372Y007823D01*
X022372Y007823D02*
X023622Y009073D01*
X023622Y010073D01*
X024122Y010073D02*
X024122Y008573D01*
X023372Y007823D01*
X024372Y007823D02*
X024622Y008073D01*
X024622Y010073D01*
X025122Y010073D02*
X025122Y008073D01*
X025372Y007823D01*
X025622Y008573D02*
X026372Y007823D01*
X027372Y007823D02*
X026122Y009073D01*
X026122Y010073D01*
X025622Y010073D02*
X025622Y008573D01*
X026622Y009573D02*
X028372Y007823D01*
X029372Y007823D02*
X027122Y010073D01*
X026622Y010073D02*
X026622Y009573D01*
X026622Y013573D02*
X026622Y014073D01*
X028372Y015823D01*
X027372Y015823D02*
X026122Y014573D01*
X026122Y013573D01*
X025622Y013573D02*
X025622Y015073D01*
X026372Y015823D01*
X025372Y015823D02*
X025122Y015573D01*
X025122Y013573D01*
X024622Y013573D02*
X024622Y015573D01*
X024372Y015823D01*
X024122Y015073D02*
X023372Y015823D01*
X024122Y015073D02*
X024122Y013573D01*
X023622Y013573D02*
X023622Y014573D01*
X022372Y015823D01*
X021372Y015823D02*
X023122Y014073D01*
X023122Y013573D01*
X022622Y013573D02*
X020372Y015823D01*
X020372Y018323D02*
X022622Y020573D01*
X023122Y020573D02*
X023122Y020073D01*
X021372Y018323D01*
X022372Y018323D02*
X023622Y019573D01*
X023622Y020573D01*
X024122Y020573D02*
X024122Y019073D01*
X023372Y018323D01*
X024372Y018323D02*
X024622Y018573D01*
X024622Y020573D01*
X025122Y020573D02*
X025122Y018573D01*
X025372Y018323D01*
X025622Y019073D02*
X026372Y018323D01*
X027372Y018323D02*
X026122Y019573D01*
X026122Y020573D01*
X025622Y020573D02*
X025622Y019073D01*
X026622Y020073D02*
X028372Y018323D01*
X029372Y018323D02*
X027122Y020573D01*
X026622Y020573D02*
X026622Y020073D01*
X026622Y024073D02*
X026622Y024573D01*
X028372Y026323D01*
X027372Y026323D02*
X026122Y025073D01*
X026122Y024073D01*
X025622Y024073D02*
X025622Y025573D01*
X026372Y026323D01*
X025372Y026323D02*
X025122Y026073D01*
X025122Y024073D01*
X024622Y024073D02*
X024622Y026073D01*
X024372Y026323D01*
X024122Y025573D02*
X023372Y026323D01*
X022372Y026323D02*
X023622Y025073D01*
X023622Y024073D01*
X024122Y024073D02*
X024122Y025573D01*
X023122Y024573D02*
X021372Y026323D01*
X020372Y026323D02*
X022622Y024073D01*
X023122Y024073D02*
X023122Y024573D01*
X027122Y024073D02*
X029372Y026323D01*
X029372Y015823D02*
X027122Y013573D01*
D14*
X017472Y013323D02*
X017472Y013823D01*
X017472Y013323D02*
X016722Y012573D01*
X016222Y012573D02*
X016222Y013573D01*
X016472Y013823D01*
X015722Y013573D02*
X015472Y013823D01*
X015722Y013573D02*
X015722Y012573D01*
X015222Y012573D02*
X014472Y013323D01*
X014472Y013823D01*
X014472Y016923D02*
X014472Y017423D01*
X015222Y018173D01*
X015722Y018173D02*
X015722Y017173D01*
X015472Y016923D01*
X016222Y017173D02*
X016472Y016923D01*
X016222Y017173D02*
X016222Y018173D01*
X016722Y018173D02*
X017472Y017423D01*
X017472Y016923D01*
X016722Y021673D02*
X017472Y022423D01*
X017472Y022923D01*
X016472Y022923D02*
X016222Y022673D01*
X016222Y021673D01*
X015722Y021673D02*
X015722Y022673D01*
X015472Y022923D01*
X014472Y022923D02*
X014472Y022423D01*
X015222Y021673D01*
X011472Y022423D02*
X011472Y022923D01*
X011472Y022423D02*
X010722Y021673D01*
X010222Y021673D02*
X010222Y022673D01*
X010472Y022923D01*
X009722Y022673D02*
X009472Y022923D01*
X009722Y022673D02*
X009722Y021673D01*
X009222Y021673D02*
X008472Y022423D01*
X008472Y022923D01*
X004772Y022923D02*
X004772Y022423D01*
X004022Y021673D01*
X003522Y021673D02*
X003522Y022673D01*
X003772Y022923D01*
X003022Y022673D02*
X002772Y022923D01*
X003022Y022673D02*
X003022Y021673D01*
X002522Y021673D02*
X001772Y022423D01*
X001772Y022923D01*
X002522Y018173D02*
X001772Y017423D01*
X001772Y016923D01*
X002772Y016923D02*
X003022Y017173D01*
X003022Y018173D01*
X003522Y018173D02*
X003522Y017173D01*
X003772Y016923D01*
X004772Y016923D02*
X004772Y017423D01*
X004022Y018173D01*
X008472Y017423D02*
X008472Y016923D01*
X008472Y017423D02*
X009222Y018173D01*
X009722Y018173D02*
X009722Y017173D01*
X009472Y016923D01*
X010222Y017173D02*
X010472Y016923D01*
X010222Y017173D02*
X010222Y018173D01*
X010722Y018173D02*
X011472Y017423D01*
X011472Y016923D01*
X011072Y013823D02*
X011072Y013323D01*
X010322Y012573D01*
X009822Y012573D02*
X009822Y013573D01*
X010072Y013823D01*
X009322Y013573D02*
X009072Y013823D01*
X009322Y013573D02*
X009322Y012573D01*
X008822Y012573D02*
X008072Y013323D01*
X008072Y013823D01*
X004772Y013823D02*
X004772Y013323D01*
X004022Y012573D01*
X003522Y012573D02*
X003522Y013573D01*
X003772Y013823D01*
X003022Y013573D02*
X002772Y013823D01*
X003022Y013573D02*
X003022Y012573D01*
X002522Y012573D02*
X001772Y013323D01*
X001772Y013823D01*
X002522Y009073D02*
X001772Y008323D01*
X001772Y007823D01*
X002772Y007823D02*
X003022Y008073D01*
X003022Y009073D01*
X003522Y009073D02*
X003522Y008073D01*
X003772Y007823D01*
X004772Y007823D02*
X004772Y008323D01*
X004022Y009073D01*
X008072Y008323D02*
X008072Y007823D01*
X008072Y008323D02*
X008822Y009073D01*
X009322Y009073D02*
X009322Y008073D01*
X009072Y007823D01*
X009822Y008073D02*
X010072Y007823D01*
X009822Y008073D02*
X009822Y009073D01*
X010322Y009073D02*
X011072Y008323D01*
X011072Y007823D01*
X014472Y007823D02*
X014472Y008323D01*
X015222Y009073D01*
X015722Y009073D02*
X015722Y008073D01*
X015472Y007823D01*
X016222Y008073D02*
X016472Y007823D01*
X016222Y008073D02*
X016222Y009073D01*
X016722Y009073D02*
X017472Y008323D01*
X017472Y007823D01*
M02*
