G75*
G70*
%OFA0B0*%
%FSLAX24Y24*%
%IPPOS*%
%LPD*%
%AMOC8*
5,1,8,0,0,1.08239X$1,22.5*
%
%ADD10C,0.0600*%
D10*
X001272Y001123D02*
X001272Y001723D01*
X002272Y001723D02*
X002272Y001123D01*
X003272Y001123D02*
X003272Y001723D01*
X004272Y001723D02*
X004272Y001123D01*
X006272Y001123D02*
X006272Y001723D01*
X007272Y001723D02*
X007272Y001123D01*
X008272Y001123D02*
X008272Y001723D01*
X009272Y001723D02*
X009272Y001123D01*
X011272Y001123D02*
X011272Y001723D01*
X012272Y001723D02*
X012272Y001123D01*
X013272Y001123D02*
X013272Y001723D01*
X014272Y001723D02*
X014272Y001123D01*
X016272Y001123D02*
X016272Y001723D01*
X017272Y001723D02*
X017272Y001123D01*
X018272Y001123D02*
X018272Y001723D01*
X019272Y001723D02*
X019272Y001123D01*
X021272Y001123D02*
X021272Y001723D01*
X022272Y001723D02*
X022272Y001123D01*
X023272Y001123D02*
X023272Y001723D01*
X024272Y001723D02*
X024272Y001123D01*
X026272Y001123D02*
X026272Y001723D01*
X027272Y001723D02*
X027272Y001123D01*
X028272Y001123D02*
X028272Y001723D01*
X029272Y001723D02*
X029272Y001123D01*
X029272Y005123D02*
X029272Y005723D01*
X028272Y005723D02*
X028272Y005123D01*
X027272Y005123D02*
X027272Y005723D01*
X026272Y005723D02*
X026272Y005123D01*
X024272Y005123D02*
X024272Y005723D01*
X023272Y005723D02*
X023272Y005123D01*
X022272Y005123D02*
X022272Y005723D01*
X021272Y005723D02*
X021272Y005123D01*
X019272Y005123D02*
X019272Y005723D01*
X018272Y005723D02*
X018272Y005123D01*
X017272Y005123D02*
X017272Y005723D01*
X016272Y005723D02*
X016272Y005123D01*
X014272Y005123D02*
X014272Y005723D01*
X013272Y005723D02*
X013272Y005123D01*
X012272Y005123D02*
X012272Y005723D01*
X011272Y005723D02*
X011272Y005123D01*
X009272Y005123D02*
X009272Y005723D01*
X008272Y005723D02*
X008272Y005123D01*
X007272Y005123D02*
X007272Y005723D01*
X006272Y005723D02*
X006272Y005123D01*
X004272Y005123D02*
X004272Y005723D01*
X003272Y005723D02*
X003272Y005123D01*
X002272Y005123D02*
X002272Y005723D01*
X001272Y005723D02*
X001272Y005123D01*
X001772Y007523D02*
X001772Y008123D01*
X002772Y008123D02*
X002772Y007523D01*
X003772Y007523D02*
X003772Y008123D01*
X004772Y008123D02*
X004772Y007523D01*
X008072Y007523D02*
X008072Y008123D01*
X009072Y008123D02*
X009072Y007523D01*
X010072Y007523D02*
X010072Y008123D01*
X011072Y008123D02*
X011072Y007523D01*
X014472Y007523D02*
X014472Y008123D01*
X015472Y008123D02*
X015472Y007523D01*
X016472Y007523D02*
X016472Y008123D01*
X017472Y008123D02*
X017472Y007523D01*
X020372Y007523D02*
X020372Y008123D01*
X021372Y008123D02*
X021372Y007523D01*
X022372Y007523D02*
X022372Y008123D01*
X023372Y008123D02*
X023372Y007523D01*
X024372Y007523D02*
X024372Y008123D01*
X025372Y008123D02*
X025372Y007523D01*
X026372Y007523D02*
X026372Y008123D01*
X027372Y008123D02*
X027372Y007523D01*
X028372Y007523D02*
X028372Y008123D01*
X029372Y008123D02*
X029372Y007523D01*
X029372Y015523D02*
X029372Y016123D01*
X028372Y016123D02*
X028372Y015523D01*
X027372Y015523D02*
X027372Y016123D01*
X026372Y016123D02*
X026372Y015523D01*
X025372Y015523D02*
X025372Y016123D01*
X024372Y016123D02*
X024372Y015523D01*
X023372Y015523D02*
X023372Y016123D01*
X022372Y016123D02*
X022372Y015523D01*
X021372Y015523D02*
X021372Y016123D01*
X020372Y016123D02*
X020372Y015523D01*
X020372Y018023D02*
X020372Y018623D01*
X021372Y018623D02*
X021372Y018023D01*
X022372Y018023D02*
X022372Y018623D01*
X023372Y018623D02*
X023372Y018023D01*
X024372Y018023D02*
X024372Y018623D01*
X025372Y018623D02*
X025372Y018023D01*
X026372Y018023D02*
X026372Y018623D01*
X027372Y018623D02*
X027372Y018023D01*
X028372Y018023D02*
X028372Y018623D01*
X029372Y018623D02*
X029372Y018023D01*
X029372Y026023D02*
X029372Y026623D01*
X028372Y026623D02*
X028372Y026023D01*
X027372Y026023D02*
X027372Y026623D01*
X026372Y026623D02*
X026372Y026023D01*
X025372Y026023D02*
X025372Y026623D01*
X024372Y026623D02*
X024372Y026023D01*
X023372Y026023D02*
X023372Y026623D01*
X022372Y026623D02*
X022372Y026023D01*
X021372Y026023D02*
X021372Y026623D01*
X020372Y026623D02*
X020372Y026023D01*
X017472Y023223D02*
X017472Y022623D01*
X016472Y022623D02*
X016472Y023223D01*
X015472Y023223D02*
X015472Y022623D01*
X014472Y022623D02*
X014472Y023223D01*
X011472Y023223D02*
X011472Y022623D01*
X010472Y022623D02*
X010472Y023223D01*
X009472Y023223D02*
X009472Y022623D01*
X008472Y022623D02*
X008472Y023223D01*
X004772Y023223D02*
X004772Y022623D01*
X003772Y022623D02*
X003772Y023223D01*
X002772Y023223D02*
X002772Y022623D01*
X001772Y022623D02*
X001772Y023223D01*
X001772Y017223D02*
X001772Y016623D01*
X002772Y016623D02*
X002772Y017223D01*
X003772Y017223D02*
X003772Y016623D01*
X004772Y016623D02*
X004772Y017223D01*
X004772Y014123D02*
X004772Y013523D01*
X003772Y013523D02*
X003772Y014123D01*
X002772Y014123D02*
X002772Y013523D01*
X001772Y013523D02*
X001772Y014123D01*
X008072Y014123D02*
X008072Y013523D01*
X009072Y013523D02*
X009072Y014123D01*
X010072Y014123D02*
X010072Y013523D01*
X011072Y013523D02*
X011072Y014123D01*
X011472Y016623D02*
X011472Y017223D01*
X010472Y017223D02*
X010472Y016623D01*
X009472Y016623D02*
X009472Y017223D01*
X008472Y017223D02*
X008472Y016623D01*
X014472Y016623D02*
X014472Y017223D01*
X015472Y017223D02*
X015472Y016623D01*
X016472Y016623D02*
X016472Y017223D01*
X017472Y017223D02*
X017472Y016623D01*
X017472Y014123D02*
X017472Y013523D01*
X016472Y013523D02*
X016472Y014123D01*
X015472Y014123D02*
X015472Y013523D01*
X014472Y013523D02*
X014472Y014123D01*
M02*
