G75*
G70*
%OFA0B0*%
%FSLAX24Y24*%
%IPPOS*%
%LPD*%
%AMOC8*
5,1,8,0,0,1.08239X$1,22.5*
%
%ADD10R,0.0250X0.0500*%
%ADD11C,0.0600*%
%ADD12C,0.0100*%
D10*
X003073Y003677D03*
X003073Y003927D03*
X003073Y004427D03*
X003573Y004427D03*
X003573Y004177D03*
X004073Y004177D03*
X004073Y004427D03*
X004573Y004427D03*
X004573Y003927D03*
X004573Y003677D03*
X004073Y003677D03*
X003573Y003677D03*
X005073Y003677D03*
X005073Y003927D03*
X005073Y004427D03*
X005573Y004427D03*
X005573Y003927D03*
X005573Y003677D03*
X006073Y003677D03*
X006573Y003677D03*
X006573Y003927D03*
X006573Y004427D03*
X006073Y004427D03*
X006073Y004177D03*
X007073Y004177D03*
X007073Y004427D03*
X007573Y004427D03*
X007573Y004177D03*
X007573Y003677D03*
X007073Y003677D03*
X007073Y006427D03*
X007073Y006677D03*
X007573Y006677D03*
X007573Y006427D03*
X007573Y007177D03*
X007073Y007177D03*
X006573Y007177D03*
X006073Y007177D03*
X006073Y006677D03*
X006073Y006427D03*
X006573Y006427D03*
X006573Y006677D03*
X005573Y006427D03*
X005573Y006927D03*
X005573Y007177D03*
X005073Y007177D03*
X005073Y006927D03*
X005073Y006427D03*
X004573Y006427D03*
X004573Y006677D03*
X004073Y006677D03*
X004073Y006427D03*
X003573Y006427D03*
X003573Y006677D03*
X003573Y007177D03*
X004073Y007177D03*
X004573Y007177D03*
X003073Y007177D03*
X003073Y006677D03*
X003073Y006427D03*
D11*
X000823Y001727D02*
X000823Y001127D01*
X001823Y001127D02*
X001823Y001727D01*
X002823Y001727D02*
X002823Y001127D01*
X003823Y001127D02*
X003823Y001727D01*
X004823Y001727D02*
X004823Y001127D01*
X005823Y001127D02*
X005823Y001727D01*
X006823Y001727D02*
X006823Y001127D01*
X007823Y001127D02*
X007823Y001727D01*
X008823Y001727D02*
X008823Y001127D01*
X009823Y001127D02*
X009823Y001727D01*
X009823Y009127D02*
X009823Y009727D01*
X008823Y009727D02*
X008823Y009127D01*
X007823Y009127D02*
X007823Y009727D01*
X006823Y009727D02*
X006823Y009127D01*
X005823Y009127D02*
X005823Y009727D01*
X004823Y009727D02*
X004823Y009127D01*
X003823Y009127D02*
X003823Y009727D01*
X002823Y009727D02*
X002823Y009127D01*
X001823Y009127D02*
X001823Y009727D01*
X000823Y009727D02*
X000823Y009127D01*
D12*
X000823Y009427D02*
X003073Y007177D01*
X003573Y007177D02*
X003573Y007677D01*
X001823Y009427D01*
X002823Y009427D02*
X004073Y008177D01*
X004073Y007177D01*
X004573Y007177D02*
X004573Y008677D01*
X003823Y009427D01*
X004823Y009427D02*
X005073Y009177D01*
X005073Y007177D01*
X005573Y007177D02*
X005573Y009177D01*
X005823Y009427D01*
X006073Y008677D02*
X006823Y009427D01*
X006073Y008677D02*
X006073Y007177D01*
X006573Y007177D02*
X006573Y008177D01*
X007823Y009427D01*
X008823Y009427D02*
X007073Y007677D01*
X007073Y007177D01*
X007573Y007177D02*
X009823Y009427D01*
X007573Y003677D02*
X009823Y001427D01*
X008823Y001427D02*
X007073Y003177D01*
X007073Y003677D01*
X006573Y003677D02*
X006573Y002677D01*
X007823Y001427D01*
X006823Y001427D02*
X006073Y002177D01*
X006073Y003677D01*
X005573Y003677D02*
X005573Y001677D01*
X005823Y001427D01*
X005073Y001677D02*
X004823Y001427D01*
X005073Y001677D02*
X005073Y003677D01*
X004573Y003677D02*
X004573Y002177D01*
X003823Y001427D01*
X002823Y001427D02*
X004073Y002677D01*
X004073Y003677D01*
X003573Y003677D02*
X003573Y003177D01*
X001823Y001427D01*
X000823Y001427D02*
X003073Y003677D01*
M02*
