G75*
G70*
%OFA0B0*%
%FSLAX24Y24*%
%IPPOS*%
%LPD*%
%AMOC8*
5,1,8,0,0,1.08239X$1,22.5*
%
%ADD10C,0.1340*%
%ADD11C,0.0680*%
%ADD12C,0.0634*%
%ADD13C,0.1480*%
%ADD14C,0.0860*%
%ADD15C,0.0600*%
%ADD16OC8,0.1320*%
%ADD17C,0.1320*%
%ADD18C,0.0480*%
%ADD19C,0.0476*%
D10*
X001772Y005601D03*
X030772Y035601D03*
X001772Y038601D03*
X042772Y002101D03*
D11*
X024872Y008301D02*
X024872Y008901D01*
X023872Y008901D02*
X023872Y008301D01*
X022872Y008301D02*
X022872Y008901D01*
X021872Y008901D02*
X021872Y008301D01*
X020872Y008301D02*
X020872Y008901D01*
X019872Y008901D02*
X019872Y008301D01*
X018872Y008301D02*
X018872Y008901D01*
X017872Y008901D02*
X017872Y008301D01*
X016272Y008301D02*
X016272Y008901D01*
X015272Y008901D02*
X015272Y008301D01*
X014272Y008301D02*
X014272Y008901D01*
X013272Y008901D02*
X013272Y008301D01*
X012272Y008301D02*
X012272Y008901D01*
X011272Y008901D02*
X011272Y008301D01*
X010272Y008301D02*
X010272Y008901D01*
X009272Y008901D02*
X009272Y008301D01*
X007272Y006401D02*
X007272Y005801D01*
X006272Y005801D02*
X006272Y006401D01*
X005272Y006401D02*
X005272Y005801D01*
X004272Y005801D02*
X004272Y006401D01*
X004372Y003101D02*
X004372Y002501D01*
X005372Y002501D02*
X005372Y003101D01*
X006372Y003101D02*
X006372Y002501D01*
X007372Y002501D02*
X007372Y003101D01*
X008372Y003101D02*
X008372Y002501D01*
X009372Y002501D02*
X009372Y003101D01*
X010372Y003101D02*
X010372Y002501D01*
X011372Y002501D02*
X011372Y003101D01*
X012372Y003101D02*
X012372Y002501D01*
X013372Y002501D02*
X013372Y003101D01*
X014372Y003101D02*
X014372Y002501D01*
X015372Y002501D02*
X015372Y003101D01*
X016372Y003101D02*
X016372Y002501D01*
X017372Y002501D02*
X017372Y003101D01*
X018372Y003101D02*
X018372Y002501D01*
X019372Y002501D02*
X019372Y003101D01*
X019272Y005801D02*
X019272Y006401D01*
X018272Y006401D02*
X018272Y005801D01*
X017272Y005801D02*
X017272Y006401D01*
X016272Y006401D02*
X016272Y005801D01*
X015272Y005801D02*
X015272Y006401D01*
X014272Y006401D02*
X014272Y005801D01*
X020272Y005801D02*
X020272Y006401D01*
X021272Y006401D02*
X021272Y005801D01*
X022272Y005801D02*
X022272Y006401D01*
X035972Y018601D02*
X036572Y018601D01*
X036572Y019601D02*
X035972Y019601D01*
X035972Y020601D02*
X036572Y020601D01*
X036572Y021601D02*
X035972Y021601D01*
X035972Y022601D02*
X036572Y022601D01*
X036272Y035301D02*
X036272Y035901D01*
X035272Y035901D02*
X035272Y035301D01*
X034272Y035301D02*
X034272Y035901D01*
X033272Y035901D02*
X033272Y035301D01*
X033272Y037801D02*
X033272Y038401D01*
X034272Y038401D02*
X034272Y037801D01*
X035272Y037801D02*
X035272Y038401D01*
X036272Y038401D02*
X036272Y037801D01*
X039772Y037801D02*
X039772Y038401D01*
X040772Y038401D02*
X040772Y037801D01*
X041772Y037801D02*
X041772Y038401D01*
X042772Y038401D02*
X042772Y037801D01*
X042772Y035901D02*
X042772Y035301D01*
X041772Y035301D02*
X041772Y035901D01*
X040772Y035901D02*
X040772Y035301D01*
X039772Y035301D02*
X039772Y035901D01*
X028272Y035901D02*
X028272Y035301D01*
X027272Y035301D02*
X027272Y035901D01*
X026272Y035901D02*
X026272Y035301D01*
X025272Y035301D02*
X025272Y035901D01*
X025272Y037801D02*
X025272Y038401D01*
X026272Y038401D02*
X026272Y037801D01*
X027272Y037801D02*
X027272Y038401D01*
X028272Y038401D02*
X028272Y037801D01*
X021772Y037801D02*
X021772Y038401D01*
X020772Y038401D02*
X020772Y037801D01*
X019772Y037801D02*
X019772Y038401D01*
X018772Y038401D02*
X018772Y037801D01*
X018772Y035901D02*
X018772Y035301D01*
X019772Y035301D02*
X019772Y035901D01*
X020772Y035901D02*
X020772Y035301D01*
X021772Y035301D02*
X021772Y035901D01*
X017772Y030901D02*
X017772Y030301D01*
X016772Y030301D02*
X016772Y030901D01*
X014272Y030901D02*
X014272Y030301D01*
X013272Y030301D02*
X013272Y030901D01*
X013272Y027901D02*
X013272Y027301D01*
X012272Y027301D02*
X012272Y027901D01*
X011272Y027901D02*
X011272Y027301D01*
X010272Y027301D02*
X010272Y027901D01*
X009272Y027901D02*
X009272Y027301D01*
X005572Y027101D02*
X004972Y027101D01*
X004972Y026101D02*
X005572Y026101D01*
X005572Y025101D02*
X004972Y025101D01*
X002572Y025101D02*
X001972Y025101D01*
X001972Y026101D02*
X002572Y026101D01*
X002572Y027101D02*
X001972Y027101D01*
X001972Y028101D02*
X002572Y028101D01*
X004972Y028101D02*
X005572Y028101D01*
X005572Y021601D02*
X004972Y021601D01*
X004972Y020601D02*
X005572Y020601D01*
X005572Y019601D02*
X004972Y019601D01*
X004972Y018601D02*
X005572Y018601D01*
X002572Y018601D02*
X001972Y018601D01*
X001972Y019601D02*
X002572Y019601D01*
X002572Y020601D02*
X001972Y020601D01*
X001972Y021601D02*
X002572Y021601D01*
X002572Y015101D02*
X001972Y015101D01*
X001972Y014101D02*
X002572Y014101D01*
X002572Y013101D02*
X001972Y013101D01*
X001972Y012101D02*
X002572Y012101D01*
X004972Y012101D02*
X005572Y012101D01*
X005572Y013101D02*
X004972Y013101D01*
X004972Y014101D02*
X005572Y014101D01*
X005572Y015101D02*
X004972Y015101D01*
X014272Y027301D02*
X014272Y027901D01*
X016272Y027901D02*
X016272Y027301D01*
X017272Y027301D02*
X017272Y027901D01*
X018272Y027901D02*
X018272Y027301D01*
X019272Y027301D02*
X019272Y027901D01*
X020272Y027901D02*
X020272Y027301D01*
X021272Y027301D02*
X021272Y027901D01*
X013772Y035301D02*
X013772Y035901D01*
X012772Y035901D02*
X012772Y035301D01*
X011772Y035301D02*
X011772Y035901D01*
X010772Y035901D02*
X010772Y035301D01*
X010772Y037801D02*
X010772Y038401D01*
X011772Y038401D02*
X011772Y037801D01*
X012772Y037801D02*
X012772Y038401D01*
X013772Y038401D02*
X013772Y037801D01*
X005272Y038801D02*
X005272Y039401D01*
X004272Y039401D02*
X004272Y038801D01*
D12*
X041772Y018878D02*
X041772Y018324D01*
X043647Y018324D02*
X043647Y018878D01*
X043647Y016378D02*
X043647Y015824D01*
X041772Y015824D02*
X041772Y016378D01*
X041772Y013378D02*
X041772Y012824D01*
X043647Y012824D02*
X043647Y013378D01*
X043647Y010878D02*
X043647Y010324D01*
X041772Y010324D02*
X041772Y010878D01*
X041772Y007878D02*
X041772Y007324D01*
X043647Y007324D02*
X043647Y007878D01*
X043647Y005378D02*
X043647Y004824D01*
X041772Y004824D02*
X041772Y005378D01*
D13*
X002272Y002801D03*
X031772Y002801D03*
D14*
X030272Y029211D02*
X030272Y029991D01*
D15*
X034512Y013601D02*
X035032Y013601D01*
X035032Y012601D02*
X034512Y012601D01*
X034512Y011601D02*
X035032Y011601D01*
X035032Y010601D02*
X034512Y010601D01*
X034512Y009601D02*
X035032Y009601D01*
X035032Y008601D02*
X034512Y008601D01*
X034512Y007601D02*
X035032Y007601D01*
X035032Y006601D02*
X034512Y006601D01*
D16*
X003772Y034101D03*
D17*
X006772Y034101D03*
D18*
X014032Y025221D03*
X018192Y023781D03*
X017712Y020901D03*
X017712Y019941D03*
X018192Y019621D03*
X019792Y018181D03*
X022352Y020581D03*
X025072Y018981D03*
X025392Y022821D03*
X028752Y022661D03*
X030352Y021061D03*
X031472Y022821D03*
X033232Y023301D03*
X036912Y024901D03*
X035952Y026821D03*
X038192Y030661D03*
X037872Y032901D03*
X039952Y033221D03*
X041232Y028901D03*
X042672Y026821D03*
X040752Y024741D03*
X032432Y030501D03*
X027952Y029701D03*
X027152Y029701D03*
X023632Y026501D03*
X022832Y029061D03*
X022192Y029701D03*
X030352Y019141D03*
X033392Y016581D03*
X031952Y014021D03*
X030352Y011301D03*
X030352Y010821D03*
X025552Y011301D03*
X024112Y012581D03*
X021552Y010021D03*
X019472Y011781D03*
X017552Y011301D03*
X016912Y011301D03*
X017232Y010341D03*
X014512Y013061D03*
X014352Y016261D03*
X015472Y016421D03*
X009232Y010341D03*
X003632Y007781D03*
X022352Y003621D03*
X029392Y016421D03*
D19*
X016872Y019951D03*
X016872Y019951D03*
M02*
