%
M48
M72
T01C0.0236
T02C0.0240
T03C0.0320
T04C0.0354
T05C0.0400
T06C0.0520
T07C0.0787
T08C0.1000
T09C0.1260
T10C0.1340
%
T01
X19734Y30856
X19734Y30856
T02
X20574Y30846
X21054Y30526
X20574Y31806
X22654Y29086
X25214Y31486
X27934Y29886
X28254Y33726
X31614Y33566
X33214Y31966
X34334Y33726
X36094Y34206
X38814Y37726
X39774Y35806
X43614Y35646
X45534Y37726
X44094Y39806
X41054Y41566
X40734Y43806
X42814Y44126
X35294Y41406
X30814Y40606
X30014Y40606
X26494Y37406
X25694Y39966
X25054Y40606
X21054Y34686
X16894Y36126
X18334Y27326
X17214Y27166
X17374Y23966
X19774Y22206
X20414Y22206
X20094Y21246
X22334Y22686
X24414Y20926
X26974Y23486
X28414Y22206
X32254Y27326
X33214Y30046
X36254Y27486
X34814Y24926
X33214Y22206
X33214Y21726
X25214Y14526
X12094Y21246
X6494Y18686
T03
X37634Y18506
X37634Y17506
X37634Y19506
X37634Y20506
X37634Y21506
X37634Y22506
X37634Y23506
X37634Y24506
T04
X44634Y24006
X46509Y24006
X46509Y21506
X44634Y21506
X44634Y18506
X46509Y18506
X46509Y16006
X44634Y16006
X44634Y27006
X46509Y27006
X46509Y29506
X44634Y29506
T05
X39134Y29506
X39134Y30506
X39134Y31506
X39134Y32506
X39134Y33506
X39134Y46506
X38134Y46506
X37134Y46506
X36134Y46506
X36134Y49006
X37134Y49006
X38134Y49006
X39134Y49006
X42634Y49006
X43634Y49006
X44634Y49006
X45634Y49006
X45634Y46506
X44634Y46506
X43634Y46506
X42634Y46506
X31134Y46506
X30134Y46506
X29134Y46506
X28134Y46506
X28134Y49006
X29134Y49006
X30134Y49006
X31134Y49006
X24634Y49006
X23634Y49006
X22634Y49006
X21634Y49006
X21634Y46506
X22634Y46506
X23634Y46506
X24634Y46506
X20634Y41506
X19634Y41506
X17134Y41506
X16134Y41506
X16134Y38506
X15134Y38506
X14134Y38506
X13134Y38506
X12134Y38506
X8134Y38006
X8134Y37006
X8134Y36006
X5134Y36006
X5134Y37006
X5134Y38006
X5134Y39006
X8134Y39006
X6634Y45006
X9634Y45006
X13634Y46506
X14634Y46506
X15634Y46506
X16634Y46506
X16634Y49006
X15634Y49006
X14634Y49006
X13634Y49006
X8134Y50006
X7134Y50006
X17134Y38506
X19134Y38506
X20134Y38506
X21134Y38506
X22134Y38506
X23134Y38506
X24134Y38506
X8134Y32506
X8134Y31506
X8134Y30506
X8134Y29506
X5134Y29506
X5134Y30506
X5134Y31506
X5134Y32506
X5134Y26006
X5134Y25006
X5134Y24006
X5134Y23006
X8134Y23006
X8134Y24006
X8134Y25006
X8134Y26006
X12134Y19506
X13134Y19506
X14134Y19506
X15134Y19506
X16134Y19506
X17134Y19506
X18134Y19506
X19134Y19506
X20734Y19506
X21734Y19506
X22734Y19506
X23734Y19506
X24734Y19506
X25734Y19506
X26734Y19506
X27734Y19506
X25134Y17006
X24134Y17006
X23134Y17006
X22134Y17006
X21134Y17006
X20134Y17006
X19134Y17006
X18134Y17006
X17134Y17006
X17234Y13706
X16234Y13706
X15234Y13706
X14234Y13706
X13234Y13706
X12234Y13706
X11234Y13706
X10234Y13706
X9234Y13706
X8234Y13706
X7234Y13706
X7134Y17006
X8134Y17006
X9134Y17006
X10134Y17006
X18234Y13706
X19234Y13706
X20234Y13706
X21234Y13706
X22234Y13706
T06
X33134Y40506
T07
X15414Y28831
T08
X5134Y1506
X5134Y13706
X34634Y13706
X34634Y1506
T09
X45634Y13006
X31134Y19506
X11134Y25506
X4634Y16506
X11134Y36506
X4634Y49506
X33634Y46506
T10
X31634Y52506
X27634Y52506
X25134Y52506
X21134Y52506
X17134Y52506
X13134Y52506
X1634Y39506
X1634Y35506
X1634Y33006
X1634Y29006
X1634Y26506
X1634Y22506
X35634Y52506
X39634Y52506
X42134Y52506
X46134Y52506
M30
