G75*
G70*
%OFA0B0*%
%FSLAX24Y24*%
%IPPOS*%
%LPD*%
%AMOC8*
5,1,8,0,0,1.08239X$1,22.5*
%
%ADD10C,0.0060*%
%ADD11C,0.0080*%
%ADD12C,0.0079*%
%ADD13C,0.0020*%
%ADD14C,0.0050*%
%ADD15R,0.0118X0.0059*%
%ADD16R,0.0118X0.0118*%
%ADD17R,0.0250X0.1500*%
D10*
X006984Y013206D02*
X007484Y013206D01*
X007734Y013456D01*
X007984Y013206D01*
X008484Y013206D01*
X008734Y013456D01*
X008984Y013206D01*
X009484Y013206D01*
X009734Y013456D01*
X009984Y013206D01*
X010484Y013206D01*
X010734Y013456D01*
X010984Y013206D01*
X011484Y013206D01*
X011734Y013456D01*
X011984Y013206D01*
X012484Y013206D01*
X012734Y013456D01*
X012984Y013206D01*
X013484Y013206D01*
X013734Y013456D01*
X013984Y013206D01*
X014484Y013206D01*
X014734Y013456D01*
X014984Y013206D01*
X015484Y013206D01*
X015734Y013456D01*
X015984Y013206D01*
X016484Y013206D01*
X016734Y013456D01*
X016984Y013206D01*
X017484Y013206D01*
X017734Y013456D01*
X017984Y013206D01*
X018484Y013206D01*
X018734Y013456D01*
X018984Y013206D01*
X019484Y013206D01*
X019734Y013456D01*
X019984Y013206D01*
X020484Y013206D01*
X020734Y013456D01*
X020984Y013206D01*
X021484Y013206D01*
X021734Y013456D01*
X021984Y013206D01*
X022484Y013206D01*
X022734Y013456D01*
X022734Y013956D01*
X022484Y014206D01*
X021984Y014206D01*
X021734Y013956D01*
X021484Y014206D01*
X020984Y014206D01*
X020734Y013956D01*
X020484Y014206D01*
X019984Y014206D01*
X019734Y013956D01*
X019484Y014206D01*
X018984Y014206D01*
X018734Y013956D01*
X018484Y014206D01*
X017984Y014206D01*
X017734Y013956D01*
X017484Y014206D01*
X016984Y014206D01*
X016734Y013956D01*
X016484Y014206D01*
X015984Y014206D01*
X015734Y013956D01*
X015484Y014206D01*
X014984Y014206D01*
X014734Y013956D01*
X014484Y014206D01*
X013984Y014206D01*
X013734Y013956D01*
X013484Y014206D01*
X012984Y014206D01*
X012734Y013956D01*
X012484Y014206D01*
X011984Y014206D01*
X011734Y013956D01*
X011484Y014206D01*
X010984Y014206D01*
X010734Y013956D01*
X010484Y014206D01*
X009984Y014206D01*
X009734Y013956D01*
X009484Y014206D01*
X008984Y014206D01*
X008734Y013956D01*
X008484Y014206D01*
X007984Y014206D01*
X007734Y013956D01*
X007484Y014206D01*
X006984Y014206D01*
X006734Y013956D01*
X006734Y013456D01*
X006984Y013206D01*
X006884Y016506D02*
X006634Y016756D01*
X006634Y017256D01*
X006884Y017506D01*
X007384Y017506D01*
X007634Y017256D01*
X007884Y017506D01*
X008384Y017506D01*
X008634Y017256D01*
X008884Y017506D01*
X009384Y017506D01*
X009634Y017256D01*
X009884Y017506D01*
X010384Y017506D01*
X010634Y017256D01*
X010634Y016756D01*
X010384Y016506D01*
X009884Y016506D01*
X009634Y016756D01*
X009384Y016506D01*
X008884Y016506D01*
X008634Y016756D01*
X008384Y016506D01*
X007884Y016506D01*
X007634Y016756D01*
X007384Y016506D01*
X006884Y016506D01*
X011634Y019256D02*
X011634Y019756D01*
X011884Y020006D01*
X012384Y020006D01*
X012634Y019756D01*
X012884Y020006D01*
X013384Y020006D01*
X013634Y019756D01*
X013884Y020006D01*
X014384Y020006D01*
X014634Y019756D01*
X014884Y020006D01*
X015384Y020006D01*
X015634Y019756D01*
X015884Y020006D01*
X016384Y020006D01*
X016634Y019756D01*
X016884Y020006D01*
X017384Y020006D01*
X017634Y019756D01*
X017884Y020006D01*
X018384Y020006D01*
X018634Y019756D01*
X018884Y020006D01*
X019384Y020006D01*
X019634Y019756D01*
X019634Y019256D01*
X019384Y019006D01*
X018884Y019006D01*
X018634Y019256D01*
X018384Y019006D01*
X017884Y019006D01*
X017634Y019256D01*
X017634Y019756D01*
X017634Y019256D02*
X017384Y019006D01*
X016884Y019006D01*
X016634Y019256D01*
X016384Y019006D01*
X015884Y019006D01*
X015634Y019256D01*
X015384Y019006D01*
X014884Y019006D01*
X014634Y019256D01*
X014634Y019756D01*
X014634Y019256D02*
X014384Y019006D01*
X013884Y019006D01*
X013634Y019256D01*
X013384Y019006D01*
X012884Y019006D01*
X012634Y019256D01*
X012384Y019006D01*
X011884Y019006D01*
X011634Y019256D01*
X012634Y019256D02*
X012634Y019756D01*
X013634Y019756D02*
X013634Y019256D01*
X015634Y019256D02*
X015634Y019756D01*
X016634Y019756D02*
X016634Y019256D01*
X016884Y017506D02*
X017384Y017506D01*
X017634Y017256D01*
X017884Y017506D01*
X018384Y017506D01*
X018634Y017256D01*
X018884Y017506D01*
X019384Y017506D01*
X019634Y017256D01*
X019884Y017506D01*
X020384Y017506D01*
X020634Y017256D01*
X020884Y017506D01*
X021384Y017506D01*
X021634Y017256D01*
X021884Y017506D01*
X022384Y017506D01*
X022634Y017256D01*
X022884Y017506D01*
X023384Y017506D01*
X023634Y017256D01*
X023884Y017506D01*
X024384Y017506D01*
X024634Y017256D01*
X024884Y017506D01*
X025384Y017506D01*
X025634Y017256D01*
X025634Y016756D01*
X025384Y016506D01*
X024884Y016506D01*
X024634Y016756D01*
X024384Y016506D01*
X023884Y016506D01*
X023634Y016756D01*
X023384Y016506D01*
X022884Y016506D01*
X022634Y016756D01*
X022384Y016506D01*
X021884Y016506D01*
X021634Y016756D01*
X021384Y016506D01*
X020884Y016506D01*
X020634Y016756D01*
X020384Y016506D01*
X019884Y016506D01*
X019634Y016756D01*
X019384Y016506D01*
X018884Y016506D01*
X018634Y016756D01*
X018384Y016506D01*
X017884Y016506D01*
X017634Y016756D01*
X017384Y016506D01*
X016884Y016506D01*
X016634Y016756D01*
X016634Y017256D01*
X016884Y017506D01*
X018634Y019256D02*
X018634Y019756D01*
X020234Y019756D02*
X020234Y019256D01*
X020484Y019006D01*
X020984Y019006D01*
X021234Y019256D01*
X021234Y019756D01*
X020984Y020006D01*
X020484Y020006D01*
X020234Y019756D01*
X021234Y019756D02*
X021484Y020006D01*
X021984Y020006D01*
X022234Y019756D01*
X022484Y020006D01*
X022984Y020006D01*
X023234Y019756D01*
X023484Y020006D01*
X023984Y020006D01*
X024234Y019756D01*
X024484Y020006D01*
X024984Y020006D01*
X025234Y019756D01*
X025484Y020006D01*
X025984Y020006D01*
X026234Y019756D01*
X026484Y020006D01*
X026984Y020006D01*
X027234Y019756D01*
X027484Y020006D01*
X027984Y020006D01*
X028234Y019756D01*
X028234Y019256D01*
X027984Y019006D01*
X027484Y019006D01*
X027234Y019256D01*
X026984Y019006D01*
X026484Y019006D01*
X026234Y019256D01*
X026234Y019756D01*
X026234Y019256D02*
X025984Y019006D01*
X025484Y019006D01*
X025234Y019256D01*
X024984Y019006D01*
X024484Y019006D01*
X024234Y019256D01*
X023984Y019006D01*
X023484Y019006D01*
X023234Y019256D01*
X023234Y019756D01*
X023234Y019256D02*
X022984Y019006D01*
X022484Y019006D01*
X022234Y019256D01*
X021984Y019006D01*
X021484Y019006D01*
X021234Y019256D01*
X022234Y019256D02*
X022234Y019756D01*
X024234Y019756D02*
X024234Y019256D01*
X025234Y019256D02*
X025234Y019756D01*
X027234Y019756D02*
X027234Y019256D01*
X027138Y013676D02*
X027032Y013570D01*
X027138Y013676D02*
X027352Y013676D01*
X027459Y013570D01*
X027459Y013463D01*
X027032Y013036D01*
X027459Y013036D01*
X027676Y013143D02*
X028103Y013570D01*
X028103Y013143D01*
X027996Y013036D01*
X027783Y013036D01*
X027676Y013143D01*
X027676Y013570D01*
X027783Y013676D01*
X027996Y013676D01*
X028103Y013570D01*
X028321Y013463D02*
X028534Y013676D01*
X028534Y013036D01*
X028321Y013036D02*
X028748Y013036D01*
X028965Y013036D02*
X029392Y013036D01*
X029179Y013036D02*
X029179Y013676D01*
X028965Y013463D01*
X029717Y012176D02*
X029824Y012176D01*
X029824Y011536D01*
X029717Y011536D02*
X029931Y011536D01*
X030147Y011643D02*
X030147Y011856D01*
X030254Y011963D01*
X030467Y011963D01*
X030574Y011856D01*
X030574Y011749D01*
X030147Y011749D01*
X030147Y011643D02*
X030254Y011536D01*
X030467Y011536D01*
X030791Y011536D02*
X030791Y011963D01*
X030791Y011749D02*
X031005Y011963D01*
X031112Y011963D01*
X031973Y012176D02*
X032080Y012176D01*
X032080Y011536D01*
X032186Y011536D02*
X031973Y011536D01*
X032403Y011643D02*
X032509Y011536D01*
X032723Y011536D01*
X032830Y011643D01*
X032830Y011856D01*
X032723Y011963D01*
X032509Y011963D01*
X032403Y011856D01*
X032403Y011643D01*
X033047Y011643D02*
X033154Y011536D01*
X033474Y011536D01*
X033474Y011429D02*
X033474Y011963D01*
X033154Y011963D01*
X033047Y011856D01*
X033047Y011643D01*
X033261Y011322D02*
X033367Y011322D01*
X033474Y011429D01*
X033692Y011536D02*
X033905Y011536D01*
X033798Y011536D02*
X033798Y011963D01*
X033692Y011963D01*
X033798Y012176D02*
X033798Y012283D01*
X034121Y011856D02*
X034121Y011643D01*
X034228Y011536D01*
X034548Y011536D01*
X034548Y011963D02*
X034228Y011963D01*
X034121Y011856D01*
X035410Y011963D02*
X035731Y011963D01*
X035837Y011856D01*
X035837Y011643D01*
X035731Y011536D01*
X035410Y011536D01*
X035410Y012176D01*
X036055Y011856D02*
X036055Y011643D01*
X036162Y011536D01*
X036375Y011536D01*
X036482Y011643D01*
X036482Y011856D01*
X036375Y011963D01*
X036162Y011963D01*
X036055Y011856D01*
X036700Y011643D02*
X036806Y011749D01*
X037127Y011749D01*
X037127Y011856D02*
X037127Y011536D01*
X036806Y011536D01*
X036700Y011643D01*
X036806Y011963D02*
X037020Y011963D01*
X037127Y011856D01*
X037344Y011749D02*
X037558Y011963D01*
X037664Y011963D01*
X037881Y011856D02*
X037988Y011963D01*
X038308Y011963D01*
X038308Y012176D02*
X038308Y011536D01*
X037988Y011536D01*
X037881Y011643D01*
X037881Y011856D01*
X037344Y011963D02*
X037344Y011536D01*
X039170Y011536D02*
X039170Y012176D01*
X039490Y012176D01*
X039597Y012070D01*
X039597Y011856D01*
X039490Y011749D01*
X039170Y011749D01*
X039384Y011749D02*
X039597Y011536D01*
X039815Y011536D02*
X040242Y011536D01*
X040028Y011536D02*
X040028Y012176D01*
X039815Y011963D01*
X038134Y017006D02*
X037134Y017006D01*
X037134Y017906D01*
X037234Y018006D01*
X037134Y018106D01*
X037134Y018906D01*
X037234Y019006D01*
X037134Y019106D01*
X037134Y019906D01*
X037234Y020006D01*
X037134Y020106D01*
X037134Y020906D01*
X037234Y021006D01*
X037134Y021106D01*
X037134Y021906D01*
X037234Y022006D01*
X037134Y022106D01*
X037134Y022906D01*
X037234Y023006D01*
X037134Y023106D01*
X037134Y023906D01*
X037234Y024006D01*
X037134Y024106D01*
X037134Y025006D01*
X038134Y025006D01*
X038134Y024106D01*
X038034Y024006D01*
X038134Y023906D01*
X038134Y023106D01*
X038034Y023006D01*
X038134Y022906D01*
X038134Y022106D01*
X038034Y022006D01*
X038134Y021906D01*
X038134Y021106D01*
X038034Y021006D01*
X038134Y020906D01*
X038134Y020106D01*
X038034Y020006D01*
X038134Y019906D01*
X038134Y019106D01*
X038034Y019006D01*
X038134Y018906D01*
X038134Y018106D01*
X038034Y018006D01*
X038134Y017906D01*
X038134Y017006D01*
X034404Y019656D02*
X034404Y023356D01*
X034402Y023379D01*
X034397Y023402D01*
X034388Y023424D01*
X034375Y023444D01*
X034360Y023462D01*
X034342Y023477D01*
X034322Y023490D01*
X034300Y023499D01*
X034277Y023504D01*
X034254Y023506D01*
X033014Y023506D01*
X032991Y023504D01*
X032968Y023499D01*
X032946Y023490D01*
X032926Y023477D01*
X032908Y023462D01*
X032893Y023444D01*
X032880Y023424D01*
X032871Y023402D01*
X032866Y023379D01*
X032864Y023356D01*
X032864Y019656D01*
X032866Y019633D01*
X032871Y019610D01*
X032880Y019588D01*
X032893Y019568D01*
X032908Y019550D01*
X032926Y019535D01*
X032946Y019522D01*
X032968Y019513D01*
X032991Y019508D01*
X033014Y019506D01*
X033434Y019506D01*
X033834Y019506D01*
X034254Y019506D01*
X034277Y019508D01*
X034300Y019513D01*
X034322Y019522D01*
X034342Y019535D01*
X034360Y019550D01*
X034375Y019568D01*
X034388Y019588D01*
X034397Y019610D01*
X034402Y019633D01*
X034404Y019656D01*
X033834Y019506D02*
X033832Y019533D01*
X033827Y019560D01*
X033817Y019586D01*
X033805Y019610D01*
X033789Y019632D01*
X033771Y019652D01*
X033749Y019669D01*
X033726Y019684D01*
X033701Y019694D01*
X033675Y019702D01*
X033648Y019706D01*
X033620Y019706D01*
X033593Y019702D01*
X033567Y019694D01*
X033542Y019684D01*
X033519Y019669D01*
X033497Y019652D01*
X033479Y019632D01*
X033463Y019610D01*
X033451Y019586D01*
X033441Y019560D01*
X033436Y019533D01*
X033434Y019506D01*
X029500Y011963D02*
X029179Y011963D01*
X029073Y011856D01*
X029073Y011643D01*
X029179Y011536D01*
X029500Y011536D01*
X028855Y011536D02*
X028535Y011536D01*
X028428Y011643D01*
X028428Y011963D01*
X028211Y012070D02*
X028104Y012176D01*
X027890Y012176D01*
X027784Y012070D01*
X027784Y011643D01*
X027890Y011536D01*
X028104Y011536D01*
X028211Y011643D01*
X028642Y011322D02*
X028748Y011322D01*
X028855Y011429D01*
X028855Y011963D01*
X026922Y011963D02*
X026922Y011429D01*
X026815Y011322D01*
X026708Y011322D01*
X026601Y011536D02*
X026922Y011536D01*
X026601Y011536D02*
X026495Y011643D01*
X026495Y011963D01*
X026278Y011963D02*
X026171Y011963D01*
X025957Y011749D01*
X025957Y011536D02*
X025957Y011963D01*
X025740Y011856D02*
X025740Y011749D01*
X025313Y011749D01*
X025313Y011643D02*
X025313Y011856D01*
X025420Y011963D01*
X025633Y011963D01*
X025740Y011856D01*
X025633Y011536D02*
X025420Y011536D01*
X025313Y011643D01*
X025097Y011536D02*
X024990Y011643D01*
X024990Y012070D01*
X024883Y011963D02*
X025097Y011963D01*
X024667Y011963D02*
X024454Y011963D01*
X024560Y012070D02*
X024560Y011643D01*
X024667Y011536D01*
X024236Y011536D02*
X023916Y011536D01*
X023809Y011643D01*
X023916Y011749D01*
X024236Y011749D01*
X024236Y011856D02*
X024236Y011536D01*
X024236Y011856D02*
X024129Y011963D01*
X023916Y011963D01*
X023591Y011963D02*
X023485Y011856D01*
X023164Y011856D01*
X023164Y011536D02*
X023485Y011536D01*
X023591Y011643D01*
X023591Y011749D01*
X023485Y011856D01*
X023591Y011963D02*
X023591Y012070D01*
X023485Y012176D01*
X023164Y012176D01*
X023164Y011536D01*
X023271Y013036D02*
X023164Y013143D01*
X023591Y013570D01*
X023591Y013143D01*
X023485Y013036D01*
X023271Y013036D01*
X023164Y013143D02*
X023164Y013570D01*
X023271Y013676D01*
X023485Y013676D01*
X023591Y013570D01*
X023809Y013463D02*
X024023Y013676D01*
X024023Y013036D01*
X024236Y013036D02*
X023809Y013036D01*
X024454Y013036D02*
X024881Y013676D01*
X025098Y013463D02*
X025312Y013676D01*
X025312Y013036D01*
X025525Y013036D02*
X025098Y013036D01*
X025743Y013036D02*
X026170Y013463D01*
X026170Y013570D01*
X026063Y013676D01*
X025849Y013676D01*
X025743Y013570D01*
X025743Y013036D02*
X026170Y013036D01*
X026387Y013036D02*
X026814Y013676D01*
X023754Y028756D02*
X023334Y028756D01*
X022934Y028756D01*
X022514Y028756D01*
X022491Y028758D01*
X022468Y028763D01*
X022446Y028772D01*
X022426Y028785D01*
X022408Y028800D01*
X022393Y028818D01*
X022380Y028838D01*
X022371Y028860D01*
X022366Y028883D01*
X022364Y028906D01*
X022364Y032106D01*
X022366Y032129D01*
X022371Y032152D01*
X022380Y032174D01*
X022393Y032194D01*
X022408Y032212D01*
X022426Y032227D01*
X022446Y032240D01*
X022468Y032249D01*
X022491Y032254D01*
X022514Y032256D01*
X023754Y032256D01*
X023777Y032254D01*
X023800Y032249D01*
X023822Y032240D01*
X023842Y032227D01*
X023860Y032212D01*
X023875Y032194D01*
X023888Y032174D01*
X023897Y032152D01*
X023902Y032129D01*
X023904Y032106D01*
X023904Y028906D01*
X023902Y028883D01*
X023897Y028860D01*
X023888Y028838D01*
X023875Y028818D01*
X023860Y028800D01*
X023842Y028785D01*
X023822Y028772D01*
X023800Y028763D01*
X023777Y028758D01*
X023754Y028756D01*
X023334Y028756D02*
X023332Y028783D01*
X023327Y028810D01*
X023317Y028836D01*
X023305Y028860D01*
X023289Y028882D01*
X023271Y028902D01*
X023249Y028919D01*
X023226Y028934D01*
X023201Y028944D01*
X023175Y028952D01*
X023148Y028956D01*
X023120Y028956D01*
X023093Y028952D01*
X023067Y028944D01*
X023042Y028934D01*
X023019Y028919D01*
X022997Y028902D01*
X022979Y028882D01*
X022963Y028860D01*
X022951Y028836D01*
X022941Y028810D01*
X022936Y028783D01*
X022934Y028756D01*
X020442Y029446D02*
X019827Y029446D01*
X019827Y030566D02*
X020442Y030566D01*
X017904Y032106D02*
X017904Y028906D01*
X017902Y028883D01*
X017897Y028860D01*
X017888Y028838D01*
X017875Y028818D01*
X017860Y028800D01*
X017842Y028785D01*
X017822Y028772D01*
X017800Y028763D01*
X017777Y028758D01*
X017754Y028756D01*
X017334Y028756D01*
X016934Y028756D01*
X016514Y028756D01*
X016491Y028758D01*
X016468Y028763D01*
X016446Y028772D01*
X016426Y028785D01*
X016408Y028800D01*
X016393Y028818D01*
X016380Y028838D01*
X016371Y028860D01*
X016366Y028883D01*
X016364Y028906D01*
X016364Y032106D01*
X016366Y032129D01*
X016371Y032152D01*
X016380Y032174D01*
X016393Y032194D01*
X016408Y032212D01*
X016426Y032227D01*
X016446Y032240D01*
X016468Y032249D01*
X016491Y032254D01*
X016514Y032256D01*
X017754Y032256D01*
X017777Y032254D01*
X017800Y032249D01*
X017822Y032240D01*
X017842Y032227D01*
X017860Y032212D01*
X017875Y032194D01*
X017888Y032174D01*
X017897Y032152D01*
X017902Y032129D01*
X017904Y032106D01*
X017334Y028756D02*
X017332Y028783D01*
X017327Y028810D01*
X017317Y028836D01*
X017305Y028860D01*
X017289Y028882D01*
X017271Y028902D01*
X017249Y028919D01*
X017226Y028934D01*
X017201Y028944D01*
X017175Y028952D01*
X017148Y028956D01*
X017120Y028956D01*
X017093Y028952D01*
X017067Y028944D01*
X017042Y028934D01*
X017019Y028919D01*
X016997Y028902D01*
X016979Y028882D01*
X016963Y028860D01*
X016951Y028836D01*
X016941Y028810D01*
X016936Y028783D01*
X016934Y028756D01*
X016884Y038006D02*
X016634Y038256D01*
X016634Y038756D01*
X016884Y039006D01*
X017384Y039006D01*
X017634Y038756D01*
X017634Y038256D01*
X017384Y038006D01*
X016884Y038006D01*
X016634Y038256D02*
X016384Y038006D01*
X015884Y038006D01*
X015634Y038256D01*
X015384Y038006D01*
X014884Y038006D01*
X014634Y038256D01*
X014384Y038006D01*
X013884Y038006D01*
X013634Y038256D01*
X013634Y038756D01*
X013884Y039006D01*
X014384Y039006D01*
X014634Y038756D01*
X014884Y039006D01*
X015384Y039006D01*
X015634Y038756D01*
X015884Y039006D01*
X016384Y039006D01*
X016634Y038756D01*
X015634Y038756D02*
X015634Y038256D01*
X014634Y038256D02*
X014634Y038756D01*
X013634Y038756D02*
X013384Y039006D01*
X012884Y039006D01*
X012634Y038756D01*
X012384Y039006D01*
X011884Y039006D01*
X011634Y038756D01*
X011634Y038256D01*
X011884Y038006D01*
X012384Y038006D01*
X012634Y038256D01*
X012634Y038756D01*
X012634Y038256D02*
X012884Y038006D01*
X013384Y038006D01*
X013634Y038256D01*
X015884Y041006D02*
X016384Y041006D01*
X016634Y041256D01*
X016884Y041006D01*
X017384Y041006D01*
X017634Y041256D01*
X017634Y041756D01*
X017384Y042006D01*
X016884Y042006D01*
X016634Y041756D01*
X016634Y041256D01*
X016634Y041756D02*
X016384Y042006D01*
X015884Y042006D01*
X015634Y041756D01*
X015634Y041256D01*
X015884Y041006D01*
X018634Y038756D02*
X018634Y038256D01*
X018884Y038006D01*
X019384Y038006D01*
X019634Y038256D01*
X019634Y038756D01*
X019384Y039006D01*
X018884Y039006D01*
X018634Y038756D01*
X019634Y038756D02*
X019884Y039006D01*
X020384Y039006D01*
X020634Y038756D01*
X020884Y039006D01*
X021384Y039006D01*
X021634Y038756D01*
X021884Y039006D01*
X022384Y039006D01*
X022634Y038756D01*
X022884Y039006D01*
X023384Y039006D01*
X023634Y038756D01*
X023884Y039006D01*
X024384Y039006D01*
X024634Y038756D01*
X024634Y038256D01*
X024384Y038006D01*
X023884Y038006D01*
X023634Y038256D01*
X023634Y038756D01*
X023634Y038256D02*
X023384Y038006D01*
X022884Y038006D01*
X022634Y038256D01*
X022384Y038006D01*
X021884Y038006D01*
X021634Y038256D01*
X021384Y038006D01*
X020884Y038006D01*
X020634Y038256D01*
X020634Y038756D01*
X020634Y038256D02*
X020384Y038006D01*
X019884Y038006D01*
X019634Y038256D01*
X021634Y038256D02*
X021634Y038756D01*
X022634Y038756D02*
X022634Y038256D01*
X020884Y041006D02*
X020384Y041006D01*
X020134Y041256D01*
X019884Y041006D01*
X019384Y041006D01*
X019134Y041256D01*
X019134Y041756D01*
X019384Y042006D01*
X019884Y042006D01*
X020134Y041756D01*
X020384Y042006D01*
X020884Y042006D01*
X021134Y041756D01*
X021134Y041256D01*
X020884Y041006D01*
X020134Y041256D02*
X020134Y041756D01*
X021384Y046006D02*
X021884Y046006D01*
X022134Y046256D01*
X022384Y046006D01*
X022884Y046006D01*
X023134Y046256D01*
X023384Y046006D01*
X023884Y046006D01*
X024134Y046256D01*
X024384Y046006D01*
X024884Y046006D01*
X025134Y046256D01*
X025134Y046756D01*
X024884Y047006D01*
X024384Y047006D01*
X024134Y046756D01*
X023884Y047006D01*
X023384Y047006D01*
X023134Y046756D01*
X022884Y047006D01*
X022384Y047006D01*
X022134Y046756D01*
X021884Y047006D01*
X021384Y047006D01*
X021134Y046756D01*
X021134Y046256D01*
X021384Y046006D01*
X021384Y048506D02*
X021884Y048506D01*
X022134Y048756D01*
X022384Y048506D01*
X022884Y048506D01*
X023134Y048756D01*
X023384Y048506D01*
X023884Y048506D01*
X024134Y048756D01*
X024384Y048506D01*
X024884Y048506D01*
X025134Y048756D01*
X025134Y049256D01*
X024884Y049506D01*
X024384Y049506D01*
X024134Y049256D01*
X023884Y049506D01*
X023384Y049506D01*
X023134Y049256D01*
X022884Y049506D01*
X022384Y049506D01*
X022134Y049256D01*
X021884Y049506D01*
X021384Y049506D01*
X021134Y049256D01*
X021134Y048756D01*
X021384Y048506D01*
X017134Y048756D02*
X016884Y048506D01*
X016384Y048506D01*
X016134Y048756D01*
X015884Y048506D01*
X015384Y048506D01*
X015134Y048756D01*
X014884Y048506D01*
X014384Y048506D01*
X014134Y048756D01*
X013884Y048506D01*
X013384Y048506D01*
X013134Y048756D01*
X013134Y049256D01*
X013384Y049506D01*
X013884Y049506D01*
X014134Y049256D01*
X014384Y049506D01*
X014884Y049506D01*
X015134Y049256D01*
X015384Y049506D01*
X015884Y049506D01*
X016134Y049256D01*
X016384Y049506D01*
X016884Y049506D01*
X017134Y049256D01*
X017134Y048756D01*
X016884Y047006D02*
X016384Y047006D01*
X016134Y046756D01*
X015884Y047006D01*
X015384Y047006D01*
X015134Y046756D01*
X014884Y047006D01*
X014384Y047006D01*
X014134Y046756D01*
X013884Y047006D01*
X013384Y047006D01*
X013134Y046756D01*
X013134Y046256D01*
X013384Y046006D01*
X013884Y046006D01*
X014134Y046256D01*
X014384Y046006D01*
X014884Y046006D01*
X015134Y046256D01*
X015384Y046006D01*
X015884Y046006D01*
X016134Y046256D01*
X016384Y046006D01*
X016884Y046006D01*
X017134Y046256D01*
X017134Y046756D01*
X016884Y047006D01*
X011084Y045006D02*
X010484Y045006D01*
X010784Y045306D02*
X010784Y044706D01*
X008934Y045006D02*
X008484Y045006D01*
X008484Y045756D01*
X008234Y045756D01*
X008234Y044256D01*
X008484Y044256D01*
X008484Y045006D01*
X004884Y045006D02*
X004888Y045165D01*
X004900Y045325D01*
X004919Y045483D01*
X004946Y045640D01*
X004981Y045796D01*
X005024Y045949D01*
X005074Y046101D01*
X005131Y046250D01*
X005196Y046396D01*
X005268Y046538D01*
X005346Y046677D01*
X005432Y046812D01*
X005524Y046942D01*
X005622Y047068D01*
X005726Y047189D01*
X005836Y047304D01*
X005951Y047414D01*
X006072Y047518D01*
X006198Y047616D01*
X006328Y047708D01*
X006463Y047794D01*
X006602Y047872D01*
X006744Y047944D01*
X006890Y048009D01*
X007039Y048066D01*
X007191Y048116D01*
X007344Y048159D01*
X007500Y048194D01*
X007657Y048221D01*
X007815Y048240D01*
X007975Y048252D01*
X008134Y048256D01*
X008293Y048252D01*
X008453Y048240D01*
X008611Y048221D01*
X008768Y048194D01*
X008924Y048159D01*
X009077Y048116D01*
X009229Y048066D01*
X009378Y048009D01*
X009524Y047944D01*
X009666Y047872D01*
X009805Y047794D01*
X009940Y047708D01*
X010070Y047616D01*
X010196Y047518D01*
X010317Y047414D01*
X010432Y047304D01*
X010542Y047189D01*
X010646Y047068D01*
X010744Y046942D01*
X010836Y046812D01*
X010922Y046677D01*
X011000Y046538D01*
X011072Y046396D01*
X011137Y046250D01*
X011194Y046101D01*
X011244Y045949D01*
X011287Y045796D01*
X011322Y045640D01*
X011349Y045483D01*
X011368Y045325D01*
X011380Y045165D01*
X011384Y045006D01*
X011380Y044847D01*
X011368Y044687D01*
X011349Y044529D01*
X011322Y044372D01*
X011287Y044216D01*
X011244Y044063D01*
X011194Y043911D01*
X011137Y043762D01*
X011072Y043616D01*
X011000Y043474D01*
X010922Y043335D01*
X010836Y043200D01*
X010744Y043070D01*
X010646Y042944D01*
X010542Y042823D01*
X010432Y042708D01*
X010317Y042598D01*
X010196Y042494D01*
X010070Y042396D01*
X009940Y042304D01*
X009805Y042218D01*
X009666Y042140D01*
X009524Y042068D01*
X009378Y042003D01*
X009229Y041946D01*
X009077Y041896D01*
X008924Y041853D01*
X008768Y041818D01*
X008611Y041791D01*
X008453Y041772D01*
X008293Y041760D01*
X008134Y041756D01*
X007975Y041760D01*
X007815Y041772D01*
X007657Y041791D01*
X007500Y041818D01*
X007344Y041853D01*
X007191Y041896D01*
X007039Y041946D01*
X006890Y042003D01*
X006744Y042068D01*
X006602Y042140D01*
X006463Y042218D01*
X006328Y042304D01*
X006198Y042396D01*
X006072Y042494D01*
X005951Y042598D01*
X005836Y042708D01*
X005726Y042823D01*
X005622Y042944D01*
X005524Y043070D01*
X005432Y043200D01*
X005346Y043335D01*
X005268Y043474D01*
X005196Y043616D01*
X005131Y043762D01*
X005074Y043911D01*
X005024Y044063D01*
X004981Y044216D01*
X004946Y044372D01*
X004919Y044529D01*
X004900Y044687D01*
X004888Y044847D01*
X004884Y045006D01*
X007334Y045006D02*
X007884Y045006D01*
X007884Y049506D02*
X007634Y049756D01*
X007384Y049506D01*
X006884Y049506D01*
X006634Y049756D01*
X006634Y050256D01*
X006884Y050506D01*
X007384Y050506D01*
X007634Y050256D01*
X007884Y050506D01*
X008384Y050506D01*
X008634Y050256D01*
X008634Y049756D01*
X008384Y049506D01*
X007884Y049506D01*
X007634Y049756D02*
X007634Y050256D01*
X007884Y039506D02*
X007634Y039256D01*
X007634Y038756D01*
X007884Y038506D01*
X007634Y038256D01*
X007634Y037756D01*
X007884Y037506D01*
X007634Y037256D01*
X007634Y036756D01*
X007884Y036506D01*
X007634Y036256D01*
X007634Y035756D01*
X007884Y035506D01*
X008384Y035506D01*
X008634Y035756D01*
X008634Y036256D01*
X008384Y036506D01*
X008634Y036756D01*
X008634Y037256D01*
X008384Y037506D01*
X008634Y037756D01*
X008634Y038256D01*
X008384Y038506D01*
X008634Y038756D01*
X008634Y039256D01*
X008384Y039506D01*
X007884Y039506D01*
X005634Y039256D02*
X005634Y038756D01*
X005384Y038506D01*
X005634Y038256D01*
X005634Y037756D01*
X005384Y037506D01*
X005634Y037256D01*
X005634Y036756D01*
X005384Y036506D01*
X005634Y036256D01*
X005634Y035756D01*
X005384Y035506D01*
X004884Y035506D01*
X004634Y035756D01*
X004634Y036256D01*
X004884Y036506D01*
X004634Y036756D01*
X004634Y037256D01*
X004884Y037506D01*
X004634Y037756D01*
X004634Y038256D01*
X004884Y038506D01*
X004634Y038756D01*
X004634Y039256D01*
X004884Y039506D01*
X005384Y039506D01*
X005634Y039256D01*
X005384Y033006D02*
X004884Y033006D01*
X004634Y032756D01*
X004634Y032256D01*
X004884Y032006D01*
X004634Y031756D01*
X004634Y031256D01*
X004884Y031006D01*
X004634Y030756D01*
X004634Y030256D01*
X004884Y030006D01*
X004634Y029756D01*
X004634Y029256D01*
X004884Y029006D01*
X005384Y029006D01*
X005634Y029256D01*
X005634Y029756D01*
X005384Y030006D01*
X005634Y030256D01*
X005634Y030756D01*
X005384Y031006D01*
X005634Y031256D01*
X005634Y031756D01*
X005384Y032006D01*
X005634Y032256D01*
X005634Y032756D01*
X005384Y033006D01*
X007634Y032756D02*
X007634Y032256D01*
X007884Y032006D01*
X007634Y031756D01*
X007634Y031256D01*
X007884Y031006D01*
X007634Y030756D01*
X007634Y030256D01*
X007884Y030006D01*
X007634Y029756D01*
X007634Y029256D01*
X007884Y029006D01*
X008384Y029006D01*
X008634Y029256D01*
X008634Y029756D01*
X008384Y030006D01*
X008634Y030256D01*
X008634Y030756D01*
X008384Y031006D01*
X008634Y031256D01*
X008634Y031756D01*
X008384Y032006D01*
X008634Y032256D01*
X008634Y032756D01*
X008384Y033006D01*
X007884Y033006D01*
X007634Y032756D01*
X007884Y026506D02*
X007634Y026256D01*
X007634Y025756D01*
X007884Y025506D01*
X007634Y025256D01*
X007634Y024756D01*
X007884Y024506D01*
X007634Y024256D01*
X007634Y023756D01*
X007884Y023506D01*
X007634Y023256D01*
X007634Y022756D01*
X007884Y022506D01*
X008384Y022506D01*
X008634Y022756D01*
X008634Y023256D01*
X008384Y023506D01*
X008634Y023756D01*
X008634Y024256D01*
X008384Y024506D01*
X008634Y024756D01*
X008634Y025256D01*
X008384Y025506D01*
X008634Y025756D01*
X008634Y026256D01*
X008384Y026506D01*
X007884Y026506D01*
X005634Y026256D02*
X005634Y025756D01*
X005384Y025506D01*
X005634Y025256D01*
X005634Y024756D01*
X005384Y024506D01*
X005634Y024256D01*
X005634Y023756D01*
X005384Y023506D01*
X005634Y023256D01*
X005634Y022756D01*
X005384Y022506D01*
X004884Y022506D01*
X004634Y022756D01*
X004634Y023256D01*
X004884Y023506D01*
X004634Y023756D01*
X004634Y024256D01*
X004884Y024506D01*
X004634Y024756D01*
X004634Y025256D01*
X004884Y025506D01*
X004634Y025756D01*
X004634Y026256D01*
X004884Y026506D01*
X005384Y026506D01*
X005634Y026256D01*
X027634Y046256D02*
X027884Y046006D01*
X028384Y046006D01*
X028634Y046256D01*
X028884Y046006D01*
X029384Y046006D01*
X029634Y046256D01*
X029884Y046006D01*
X030384Y046006D01*
X030634Y046256D01*
X030884Y046006D01*
X031384Y046006D01*
X031634Y046256D01*
X031634Y046756D01*
X031384Y047006D01*
X030884Y047006D01*
X030634Y046756D01*
X030384Y047006D01*
X029884Y047006D01*
X029634Y046756D01*
X029384Y047006D01*
X028884Y047006D01*
X028634Y046756D01*
X028384Y047006D01*
X027884Y047006D01*
X027634Y046756D01*
X027634Y046256D01*
X027884Y048506D02*
X028384Y048506D01*
X028634Y048756D01*
X028884Y048506D01*
X029384Y048506D01*
X029634Y048756D01*
X029884Y048506D01*
X030384Y048506D01*
X030634Y048756D01*
X030884Y048506D01*
X031384Y048506D01*
X031634Y048756D01*
X031634Y049256D01*
X031384Y049506D01*
X030884Y049506D01*
X030634Y049256D01*
X030384Y049506D01*
X029884Y049506D01*
X029634Y049256D01*
X029384Y049506D01*
X028884Y049506D01*
X028634Y049256D01*
X028384Y049506D01*
X027884Y049506D01*
X027634Y049256D01*
X027634Y048756D01*
X027884Y048506D01*
X035634Y048756D02*
X035884Y048506D01*
X036384Y048506D01*
X036634Y048756D01*
X036884Y048506D01*
X037384Y048506D01*
X037634Y048756D01*
X037884Y048506D01*
X038384Y048506D01*
X038634Y048756D01*
X038884Y048506D01*
X039384Y048506D01*
X039634Y048756D01*
X039634Y049256D01*
X039384Y049506D01*
X038884Y049506D01*
X038634Y049256D01*
X038384Y049506D01*
X037884Y049506D01*
X037634Y049256D01*
X037384Y049506D01*
X036884Y049506D01*
X036634Y049256D01*
X036384Y049506D01*
X035884Y049506D01*
X035634Y049256D01*
X035634Y048756D01*
X035884Y047006D02*
X035634Y046756D01*
X035634Y046256D01*
X035884Y046006D01*
X036384Y046006D01*
X036634Y046256D01*
X036884Y046006D01*
X037384Y046006D01*
X037634Y046256D01*
X037884Y046006D01*
X038384Y046006D01*
X038634Y046256D01*
X038884Y046006D01*
X039384Y046006D01*
X039634Y046256D01*
X039634Y046756D01*
X039384Y047006D01*
X038884Y047006D01*
X038634Y046756D01*
X038384Y047006D01*
X037884Y047006D01*
X037634Y046756D01*
X037384Y047006D01*
X036884Y047006D01*
X036634Y046756D01*
X036384Y047006D01*
X035884Y047006D01*
X042134Y046756D02*
X042134Y046256D01*
X042384Y046006D01*
X042884Y046006D01*
X043134Y046256D01*
X043384Y046006D01*
X043884Y046006D01*
X044134Y046256D01*
X044384Y046006D01*
X044884Y046006D01*
X045134Y046256D01*
X045384Y046006D01*
X045884Y046006D01*
X046134Y046256D01*
X046134Y046756D01*
X045884Y047006D01*
X045384Y047006D01*
X045134Y046756D01*
X044884Y047006D01*
X044384Y047006D01*
X044134Y046756D01*
X043884Y047006D01*
X043384Y047006D01*
X043134Y046756D01*
X042884Y047006D01*
X042384Y047006D01*
X042134Y046756D01*
X042384Y048506D02*
X042884Y048506D01*
X043134Y048756D01*
X043384Y048506D01*
X043884Y048506D01*
X044134Y048756D01*
X044384Y048506D01*
X044884Y048506D01*
X045134Y048756D01*
X045384Y048506D01*
X045884Y048506D01*
X046134Y048756D01*
X046134Y049256D01*
X045884Y049506D01*
X045384Y049506D01*
X045134Y049256D01*
X044884Y049506D01*
X044384Y049506D01*
X044134Y049256D01*
X043884Y049506D01*
X043384Y049506D01*
X043134Y049256D01*
X042884Y049506D01*
X042384Y049506D01*
X042134Y049256D01*
X042134Y048756D01*
X042384Y048506D01*
X039384Y034006D02*
X038884Y034006D01*
X038634Y033756D01*
X038634Y033256D01*
X038884Y033006D01*
X038634Y032756D01*
X038634Y032256D01*
X038884Y032006D01*
X038634Y031756D01*
X038634Y031256D01*
X038884Y031006D01*
X038634Y030756D01*
X038634Y030256D01*
X038884Y030006D01*
X038634Y029756D01*
X038634Y029256D01*
X038884Y029006D01*
X039384Y029006D01*
X039634Y029256D01*
X039634Y029756D01*
X039384Y030006D01*
X039634Y030256D01*
X039634Y030756D01*
X039384Y031006D01*
X039634Y031256D01*
X039634Y031756D01*
X039384Y032006D01*
X039634Y032256D01*
X039634Y032756D01*
X039384Y033006D01*
X039634Y033256D01*
X039634Y033756D01*
X039384Y034006D01*
D11*
X036178Y032463D02*
X036178Y029746D01*
X036178Y029549D01*
X036178Y029746D02*
X031091Y029746D01*
X031091Y032463D01*
X031091Y029746D02*
X031091Y029549D01*
X044217Y029908D02*
X044217Y026604D01*
X044634Y027406D01*
X046484Y027406D01*
X046484Y029106D01*
X044634Y029106D01*
X044217Y029908D01*
X047134Y029908D01*
X046484Y029106D01*
X047134Y029908D02*
X047134Y026604D01*
X046484Y027406D01*
X047134Y026604D02*
X044217Y026604D01*
X044634Y027406D02*
X044634Y029106D01*
X044217Y024408D02*
X044634Y023606D01*
X046484Y023606D01*
X047134Y024408D01*
X044217Y024408D01*
X044217Y021104D01*
X044634Y021906D01*
X046484Y021906D01*
X046484Y023606D01*
X047134Y024408D02*
X047134Y021104D01*
X046484Y021906D01*
X047134Y021104D02*
X044217Y021104D01*
X044634Y021906D02*
X044634Y023606D01*
X044217Y018908D02*
X044634Y018106D01*
X046484Y018106D01*
X047134Y018908D01*
X044217Y018908D01*
X044217Y015604D01*
X044634Y016406D01*
X046484Y016406D01*
X046484Y018106D01*
X047134Y018908D02*
X047134Y015604D01*
X046484Y016406D01*
X047134Y015604D02*
X044217Y015604D01*
X044634Y016406D02*
X044634Y018106D01*
D12*
X019938Y030459D03*
D13*
X017764Y028756D02*
X017764Y032256D01*
X023764Y032256D02*
X023764Y028756D01*
X034264Y023506D02*
X034264Y019506D01*
D14*
X004134Y015006D02*
X004134Y000506D01*
X035634Y000506D01*
X035634Y015006D01*
X004134Y015006D01*
X006209Y016781D02*
X006510Y016781D01*
X006360Y016781D02*
X006360Y017231D01*
X006209Y017081D01*
X007210Y012881D02*
X007059Y012731D01*
X007210Y012881D02*
X007210Y012431D01*
X007360Y012431D02*
X007059Y012431D01*
X008134Y011006D02*
X008134Y003506D01*
X032134Y003506D01*
X032134Y011006D01*
X008134Y011006D01*
X010985Y016781D02*
X010985Y017231D01*
X010759Y017006D01*
X011060Y017006D01*
X008359Y022081D02*
X008359Y022381D01*
X008359Y022231D02*
X007909Y022231D01*
X008059Y022081D01*
X005634Y021506D02*
X000134Y021506D01*
X000134Y027506D01*
X005634Y027506D01*
X005634Y021506D01*
X005359Y022081D02*
X005359Y022381D01*
X005359Y022231D02*
X004909Y022231D01*
X005059Y022081D01*
X005134Y026631D02*
X005134Y026931D01*
X004909Y026856D02*
X005134Y026631D01*
X005359Y026856D02*
X004909Y026856D01*
X005634Y028006D02*
X000134Y028006D01*
X000134Y034006D01*
X005634Y034006D01*
X005634Y028006D01*
X005359Y028581D02*
X005359Y028881D01*
X005359Y028731D02*
X004909Y028731D01*
X005059Y028581D01*
X007909Y028731D02*
X008059Y028581D01*
X007909Y028731D02*
X008359Y028731D01*
X008359Y028581D02*
X008359Y028881D01*
X008134Y026931D02*
X008134Y026631D01*
X007909Y026856D01*
X008359Y026856D01*
X008134Y033131D02*
X008134Y033431D01*
X007909Y033356D02*
X008134Y033131D01*
X008359Y033356D02*
X007909Y033356D01*
X008059Y035081D02*
X007909Y035231D01*
X008359Y035231D01*
X008359Y035081D02*
X008359Y035381D01*
X005634Y034506D02*
X000134Y034506D01*
X000134Y040506D01*
X005634Y040506D01*
X005634Y034506D01*
X005359Y035081D02*
X005359Y035381D01*
X005359Y035231D02*
X004909Y035231D01*
X005059Y035081D01*
X005134Y033431D02*
X005134Y033131D01*
X004909Y033356D01*
X005359Y033356D01*
X005134Y039631D02*
X005134Y039931D01*
X004909Y039856D02*
X005134Y039631D01*
X005359Y039856D02*
X004909Y039856D01*
X007909Y039856D02*
X008134Y039631D01*
X008134Y039931D01*
X008359Y039856D02*
X007909Y039856D01*
X012709Y046281D02*
X013010Y046281D01*
X012860Y046281D02*
X012860Y046731D01*
X012709Y046581D01*
X012134Y048506D02*
X012134Y054006D01*
X018134Y054006D01*
X018134Y048506D01*
X012134Y048506D01*
X012709Y048781D02*
X013010Y048781D01*
X012860Y048781D02*
X012860Y049231D01*
X012709Y049081D01*
X017259Y049006D02*
X017560Y049006D01*
X017485Y048781D02*
X017485Y049231D01*
X017259Y049006D01*
X017485Y046731D02*
X017259Y046506D01*
X017560Y046506D01*
X017485Y046281D02*
X017485Y046731D01*
X020134Y048506D02*
X020134Y054006D01*
X026134Y054006D01*
X026134Y048506D01*
X020134Y048506D01*
X020709Y048781D02*
X021010Y048781D01*
X020860Y048781D02*
X020860Y049231D01*
X020709Y049081D01*
X020860Y046731D02*
X020860Y046281D01*
X021010Y046281D02*
X020709Y046281D01*
X020709Y046581D02*
X020860Y046731D01*
X025259Y046506D02*
X025560Y046506D01*
X025485Y046281D02*
X025485Y046731D01*
X025259Y046506D01*
X027209Y046581D02*
X027360Y046731D01*
X027360Y046281D01*
X027510Y046281D02*
X027209Y046281D01*
X026634Y048506D02*
X026634Y054006D01*
X032634Y054006D01*
X032634Y048506D01*
X026634Y048506D01*
X027209Y048781D02*
X027510Y048781D01*
X027360Y048781D02*
X027360Y049231D01*
X027209Y049081D01*
X025560Y049006D02*
X025259Y049006D01*
X025485Y049231D01*
X025485Y048781D01*
X031759Y049006D02*
X032060Y049006D01*
X031985Y048781D02*
X031985Y049231D01*
X031759Y049006D01*
X031985Y046731D02*
X031759Y046506D01*
X032060Y046506D01*
X031985Y046281D02*
X031985Y046731D01*
X034634Y048506D02*
X034634Y054006D01*
X040634Y054006D01*
X040634Y048506D01*
X034634Y048506D01*
X035209Y048781D02*
X035510Y048781D01*
X035360Y048781D02*
X035360Y049231D01*
X035209Y049081D01*
X035360Y046731D02*
X035360Y046281D01*
X035510Y046281D02*
X035209Y046281D01*
X035209Y046581D02*
X035360Y046731D01*
X039759Y046506D02*
X040060Y046506D01*
X039985Y046281D02*
X039985Y046731D01*
X039759Y046506D01*
X041709Y046581D02*
X041860Y046731D01*
X041860Y046281D01*
X042010Y046281D02*
X041709Y046281D01*
X041134Y048506D02*
X041134Y054006D01*
X047134Y054006D01*
X047134Y048506D01*
X041134Y048506D01*
X041709Y048781D02*
X042010Y048781D01*
X041860Y048781D02*
X041860Y049231D01*
X041709Y049081D01*
X040060Y049006D02*
X039759Y049006D01*
X039985Y049231D01*
X039985Y048781D01*
X046259Y049006D02*
X046560Y049006D01*
X046485Y048781D02*
X046485Y049231D01*
X046259Y049006D01*
X046485Y046731D02*
X046259Y046506D01*
X046560Y046506D01*
X046485Y046281D02*
X046485Y046731D01*
X038459Y033621D02*
X038459Y033321D01*
X038459Y033471D02*
X038009Y033471D01*
X038159Y033321D01*
X039809Y029621D02*
X039809Y029321D01*
X040034Y029321D01*
X039959Y029471D01*
X039959Y029546D01*
X040034Y029621D01*
X040184Y029621D01*
X040259Y029546D01*
X040259Y029396D01*
X040184Y029321D01*
X036934Y024631D02*
X037009Y024556D01*
X037009Y024406D01*
X036934Y024331D01*
X036859Y024331D01*
X036784Y024406D01*
X036784Y024556D01*
X036859Y024631D01*
X036934Y024631D01*
X036784Y024556D02*
X036709Y024631D01*
X036634Y024631D01*
X036559Y024556D01*
X036559Y024406D01*
X036634Y024331D01*
X036709Y024331D01*
X036784Y024406D01*
X037009Y017631D02*
X037009Y017331D01*
X037009Y017481D02*
X036559Y017481D01*
X036709Y017331D01*
X025199Y017681D02*
X024899Y017681D01*
X025049Y017681D02*
X025049Y018131D01*
X024899Y017981D01*
X017199Y016256D02*
X017199Y015956D01*
X017124Y015881D01*
X016974Y015881D01*
X016899Y015956D01*
X016974Y016106D02*
X017199Y016106D01*
X017199Y016256D02*
X017124Y016331D01*
X016974Y016331D01*
X016899Y016256D01*
X016899Y016181D01*
X016974Y016106D01*
D15*
X039694Y015742D03*
X039694Y015270D03*
X039694Y013742D03*
X039694Y013270D03*
X039694Y017270D03*
X039694Y017742D03*
X039694Y019270D03*
X039694Y019742D03*
X039694Y021270D03*
X039694Y021742D03*
X039694Y023270D03*
X039694Y023742D03*
X039694Y025270D03*
X039694Y025742D03*
X039694Y027270D03*
X039694Y027742D03*
D16*
X039694Y027506D03*
X039694Y025506D03*
X039694Y023506D03*
X039694Y021506D03*
X039694Y019506D03*
X039694Y017506D03*
X039694Y015506D03*
X039694Y013506D03*
D17*
X007909Y045006D03*
M02*
