G75*
G70*
%OFA0B0*%
%FSLAX24Y24*%
%IPPOS*%
%LPD*%
%AMOC8*
5,1,8,0,0,1.08239X$1,22.5*
%
%ADD10C,0.0600*%
%ADD11C,0.0554*%
%ADD12C,0.1400*%
%ADD13C,0.0780*%
%ADD14C,0.0520*%
%ADD15OC8,0.1240*%
%ADD16C,0.1240*%
%ADD17C,0.0160*%
%ADD18C,0.0400*%
%ADD19C,0.0396*%
%ADD20C,0.0100*%
D10*
X004372Y002501D02*
X004372Y003101D01*
X005372Y003101D02*
X005372Y002501D01*
X006372Y002501D02*
X006372Y003101D01*
X007372Y003101D02*
X007372Y002501D01*
X008372Y002501D02*
X008372Y003101D01*
X009372Y003101D02*
X009372Y002501D01*
X010372Y002501D02*
X010372Y003101D01*
X011372Y003101D02*
X011372Y002501D01*
X012372Y002501D02*
X012372Y003101D01*
X013372Y003101D02*
X013372Y002501D01*
X014372Y002501D02*
X014372Y003101D01*
X015372Y003101D02*
X015372Y002501D01*
X016372Y002501D02*
X016372Y003101D01*
X017372Y003101D02*
X017372Y002501D01*
X018372Y002501D02*
X018372Y003101D01*
X019372Y003101D02*
X019372Y002501D01*
X019272Y005801D02*
X019272Y006401D01*
X018272Y006401D02*
X018272Y005801D01*
X017272Y005801D02*
X017272Y006401D01*
X016272Y006401D02*
X016272Y005801D01*
X015272Y005801D02*
X015272Y006401D01*
X014272Y006401D02*
X014272Y005801D01*
X014272Y008301D02*
X014272Y008901D01*
X013272Y008901D02*
X013272Y008301D01*
X012272Y008301D02*
X012272Y008901D01*
X011272Y008901D02*
X011272Y008301D01*
X010272Y008301D02*
X010272Y008901D01*
X009272Y008901D02*
X009272Y008301D01*
X007272Y006401D02*
X007272Y005801D01*
X006272Y005801D02*
X006272Y006401D01*
X005272Y006401D02*
X005272Y005801D01*
X004272Y005801D02*
X004272Y006401D01*
X004972Y012101D02*
X005572Y012101D01*
X005572Y013101D02*
X004972Y013101D01*
X004972Y014101D02*
X005572Y014101D01*
X005572Y015101D02*
X004972Y015101D01*
X002572Y015101D02*
X001972Y015101D01*
X001972Y014101D02*
X002572Y014101D01*
X002572Y013101D02*
X001972Y013101D01*
X001972Y012101D02*
X002572Y012101D01*
X002572Y018601D02*
X001972Y018601D01*
X001972Y019601D02*
X002572Y019601D01*
X002572Y020601D02*
X001972Y020601D01*
X001972Y021601D02*
X002572Y021601D01*
X004972Y021601D02*
X005572Y021601D01*
X005572Y020601D02*
X004972Y020601D01*
X004972Y019601D02*
X005572Y019601D01*
X005572Y018601D02*
X004972Y018601D01*
X004972Y025101D02*
X005572Y025101D01*
X005572Y026101D02*
X004972Y026101D01*
X004972Y027101D02*
X005572Y027101D01*
X005572Y028101D02*
X004972Y028101D01*
X002572Y028101D02*
X001972Y028101D01*
X001972Y027101D02*
X002572Y027101D01*
X002572Y026101D02*
X001972Y026101D01*
X001972Y025101D02*
X002572Y025101D01*
X009272Y027301D02*
X009272Y027901D01*
X010272Y027901D02*
X010272Y027301D01*
X011272Y027301D02*
X011272Y027901D01*
X012272Y027901D02*
X012272Y027301D01*
X013272Y027301D02*
X013272Y027901D01*
X014272Y027901D02*
X014272Y027301D01*
X016272Y027301D02*
X016272Y027901D01*
X017272Y027901D02*
X017272Y027301D01*
X018272Y027301D02*
X018272Y027901D01*
X019272Y027901D02*
X019272Y027301D01*
X020272Y027301D02*
X020272Y027901D01*
X021272Y027901D02*
X021272Y027301D01*
X017772Y030301D02*
X017772Y030901D01*
X016772Y030901D02*
X016772Y030301D01*
X014272Y030301D02*
X014272Y030901D01*
X013272Y030901D02*
X013272Y030301D01*
X012772Y035301D02*
X012772Y035901D01*
X011772Y035901D02*
X011772Y035301D01*
X010772Y035301D02*
X010772Y035901D01*
X010772Y037801D02*
X010772Y038401D01*
X011772Y038401D02*
X011772Y037801D01*
X012772Y037801D02*
X012772Y038401D01*
X013772Y038401D02*
X013772Y037801D01*
X013772Y035901D02*
X013772Y035301D01*
X018772Y035301D02*
X018772Y035901D01*
X019772Y035901D02*
X019772Y035301D01*
X020772Y035301D02*
X020772Y035901D01*
X021772Y035901D02*
X021772Y035301D01*
X021772Y037801D02*
X021772Y038401D01*
X020772Y038401D02*
X020772Y037801D01*
X019772Y037801D02*
X019772Y038401D01*
X018772Y038401D02*
X018772Y037801D01*
X025272Y037801D02*
X025272Y038401D01*
X026272Y038401D02*
X026272Y037801D01*
X027272Y037801D02*
X027272Y038401D01*
X028272Y038401D02*
X028272Y037801D01*
X028272Y035901D02*
X028272Y035301D01*
X027272Y035301D02*
X027272Y035901D01*
X026272Y035901D02*
X026272Y035301D01*
X025272Y035301D02*
X025272Y035901D01*
X033272Y035901D02*
X033272Y035301D01*
X034272Y035301D02*
X034272Y035901D01*
X035272Y035901D02*
X035272Y035301D01*
X036272Y035301D02*
X036272Y035901D01*
X036272Y037801D02*
X036272Y038401D01*
X035272Y038401D02*
X035272Y037801D01*
X034272Y037801D02*
X034272Y038401D01*
X033272Y038401D02*
X033272Y037801D01*
X039772Y037801D02*
X039772Y038401D01*
X040772Y038401D02*
X040772Y037801D01*
X041772Y037801D02*
X041772Y038401D01*
X042772Y038401D02*
X042772Y037801D01*
X042772Y035901D02*
X042772Y035301D01*
X041772Y035301D02*
X041772Y035901D01*
X040772Y035901D02*
X040772Y035301D01*
X039772Y035301D02*
X039772Y035901D01*
X036572Y022601D02*
X035972Y022601D01*
X035972Y021601D02*
X036572Y021601D01*
X036572Y020601D02*
X035972Y020601D01*
X035972Y019601D02*
X036572Y019601D01*
X036572Y018601D02*
X035972Y018601D01*
X024872Y008901D02*
X024872Y008301D01*
X023872Y008301D02*
X023872Y008901D01*
X022872Y008901D02*
X022872Y008301D01*
X021872Y008301D02*
X021872Y008901D01*
X020872Y008901D02*
X020872Y008301D01*
X019872Y008301D02*
X019872Y008901D01*
X018872Y008901D02*
X018872Y008301D01*
X017872Y008301D02*
X017872Y008901D01*
X016272Y008901D02*
X016272Y008301D01*
X015272Y008301D02*
X015272Y008901D01*
X020272Y006401D02*
X020272Y005801D01*
X021272Y005801D02*
X021272Y006401D01*
X022272Y006401D02*
X022272Y005801D01*
X005272Y038801D02*
X005272Y039401D01*
X004272Y039401D02*
X004272Y038801D01*
D11*
X041772Y018878D02*
X041772Y018324D01*
X043647Y018324D02*
X043647Y018878D01*
X043647Y016378D02*
X043647Y015824D01*
X041772Y015824D02*
X041772Y016378D01*
X041772Y013378D02*
X041772Y012824D01*
X043647Y012824D02*
X043647Y013378D01*
X043647Y010878D02*
X043647Y010324D01*
X041772Y010324D02*
X041772Y010878D01*
X041772Y007878D02*
X041772Y007324D01*
X043647Y007324D02*
X043647Y007878D01*
X043647Y005378D02*
X043647Y004824D01*
X041772Y004824D02*
X041772Y005378D01*
D12*
X002272Y002801D03*
X031772Y002801D03*
D13*
X030272Y029211D02*
X030272Y029991D01*
D14*
X034512Y013601D02*
X035032Y013601D01*
X035032Y012601D02*
X034512Y012601D01*
X034512Y011601D02*
X035032Y011601D01*
X035032Y010601D02*
X034512Y010601D01*
X034512Y009601D02*
X035032Y009601D01*
X035032Y008601D02*
X034512Y008601D01*
X034512Y007601D02*
X035032Y007601D01*
X035032Y006601D02*
X034512Y006601D01*
D15*
X003772Y034101D03*
D16*
X006772Y034101D03*
D17*
X010772Y035601D02*
X010832Y035461D01*
X010832Y031941D01*
X013072Y029701D01*
X013712Y029701D01*
X016112Y027301D01*
X016272Y027601D01*
X016272Y027461D01*
X017072Y026661D01*
X019792Y026661D01*
X019792Y018181D01*
X027632Y018181D01*
X029392Y016421D01*
X030992Y015781D02*
X031472Y015301D01*
X042832Y015301D01*
X043632Y016101D01*
X043647Y016101D01*
X042352Y014501D02*
X043632Y013221D01*
X043647Y013101D01*
X042352Y014501D02*
X031792Y014501D01*
X030832Y013541D01*
X008752Y013541D01*
X008752Y010181D01*
X009072Y009861D01*
X012272Y009861D01*
X012272Y008601D01*
X013272Y008601D02*
X013392Y008581D01*
X013392Y007781D01*
X016592Y007781D01*
X017232Y008421D01*
X017232Y009541D01*
X022192Y009541D01*
X022672Y010021D01*
X033392Y010021D01*
X034352Y009061D01*
X042192Y009061D01*
X043632Y007621D01*
X043647Y007601D01*
X041772Y007601D02*
X041712Y007461D01*
X041392Y007141D01*
X023792Y007141D01*
X023792Y008581D01*
X023872Y008601D01*
X022992Y008581D02*
X022872Y008601D01*
X022992Y008581D02*
X022192Y007781D01*
X021872Y007781D01*
X020272Y006181D01*
X020272Y006101D01*
X021232Y006181D02*
X021272Y006101D01*
X021232Y006021D01*
X021232Y004581D01*
X019472Y002821D01*
X019372Y002801D01*
X019312Y002661D01*
X018512Y001861D01*
X009232Y001861D01*
X008432Y002661D01*
X008372Y002801D01*
X008432Y002821D01*
X007632Y003621D01*
X007312Y003621D01*
X005072Y003621D01*
X004272Y002821D01*
X004372Y002801D01*
X007312Y003621D02*
X007312Y006021D01*
X007272Y006101D01*
X005272Y006101D02*
X005232Y006181D01*
X003632Y007781D01*
X007152Y011301D02*
X007152Y015781D01*
X030992Y015781D01*
X031952Y014021D02*
X030992Y013061D01*
X018672Y013061D01*
X016912Y011301D01*
X016752Y010821D02*
X014512Y013061D01*
X016752Y010821D02*
X030352Y010821D01*
X030352Y011301D02*
X025552Y011301D01*
X024112Y012581D02*
X023792Y012261D01*
X018512Y012261D01*
X017552Y011301D01*
X017232Y010341D02*
X009232Y010341D01*
X008912Y009541D02*
X007152Y011301D01*
X008912Y009541D02*
X010352Y009541D01*
X011152Y008741D01*
X011272Y008601D01*
X014192Y006181D02*
X014272Y006101D01*
X014192Y006021D01*
X014992Y005221D01*
X017232Y005221D01*
X017232Y002821D01*
X017372Y002801D01*
X018272Y006101D02*
X018352Y006181D01*
X018352Y007781D01*
X021072Y007781D01*
X021872Y008581D01*
X021872Y008601D01*
X021392Y009861D02*
X017072Y009861D01*
X016272Y009061D01*
X016272Y008601D01*
X017872Y008581D02*
X017872Y008601D01*
X017872Y008581D02*
X016272Y006981D01*
X014992Y006981D01*
X014192Y006181D01*
X019472Y011781D02*
X034512Y011781D01*
X034672Y011621D01*
X034772Y011601D01*
X033392Y016581D02*
X031472Y018501D01*
X024432Y018501D01*
X022352Y020581D01*
X025072Y018981D02*
X030192Y018981D01*
X030352Y019141D01*
X030352Y021061D02*
X028752Y022661D01*
X031472Y022821D02*
X031632Y022661D01*
X036272Y022661D01*
X036272Y022601D01*
X036272Y022661D02*
X038832Y025221D01*
X043792Y025221D01*
X043792Y026501D01*
X043472Y026821D01*
X042672Y026821D01*
X042672Y030501D01*
X039952Y033221D01*
X037872Y032901D02*
X035952Y030981D01*
X031632Y030981D01*
X030352Y029701D01*
X030272Y029601D01*
X030032Y028581D02*
X027312Y031301D01*
X027312Y035461D01*
X027272Y035601D01*
X032432Y030501D02*
X032592Y030661D01*
X038192Y030661D01*
X041232Y028901D02*
X037232Y024901D01*
X036912Y024901D01*
X035312Y023301D01*
X033232Y023301D01*
X024912Y023301D01*
X025392Y022821D01*
X024912Y023301D02*
X022672Y025541D01*
X023632Y026501D01*
X022672Y025541D02*
X021552Y026661D01*
X020112Y026661D01*
X019792Y026981D01*
X019792Y026661D01*
X019792Y026981D02*
X019312Y027461D01*
X019272Y027601D01*
X019952Y028421D02*
X017772Y030601D01*
X016592Y028421D02*
X017392Y027621D01*
X017272Y027601D01*
X016272Y027461D02*
X016112Y027301D01*
X014032Y025221D01*
X013232Y027461D02*
X013272Y027601D01*
X013232Y027461D02*
X013232Y020741D01*
X005392Y020741D01*
X005272Y020601D01*
X005232Y020581D01*
X002352Y020581D01*
X002272Y020601D01*
X002272Y021601D02*
X002352Y021701D01*
X005232Y021701D01*
X005272Y021601D01*
X005232Y018661D02*
X002352Y018661D01*
X002272Y018601D01*
X005232Y018661D02*
X005272Y018601D01*
X006352Y016101D02*
X005392Y015141D01*
X005272Y015101D01*
X005232Y015141D01*
X002352Y015141D01*
X002272Y015101D01*
X002192Y014181D02*
X001392Y014181D01*
X001392Y028261D01*
X001872Y028741D01*
X014192Y028741D01*
X014192Y027621D01*
X014272Y027601D01*
X012272Y027601D02*
X012272Y027461D01*
X011472Y026661D01*
X008752Y026661D01*
X008432Y026981D01*
X005392Y026981D01*
X005272Y027101D01*
X005232Y027141D01*
X002352Y027141D01*
X002272Y027101D01*
X002352Y025221D02*
X002272Y025101D01*
X002352Y025221D02*
X005232Y025221D01*
X005272Y025101D01*
X014272Y030601D02*
X014352Y030501D01*
X016432Y028421D01*
X016592Y028421D01*
X019952Y028421D02*
X020592Y028421D01*
X021392Y027621D01*
X021272Y027601D01*
X022832Y029061D02*
X027312Y029061D01*
X027952Y029701D01*
X027152Y029701D02*
X022192Y029701D01*
X018192Y023781D02*
X018192Y019621D01*
X017712Y019941D02*
X017712Y020901D01*
X015472Y016421D02*
X015152Y016101D01*
X014352Y016101D01*
X014352Y016261D01*
X014352Y016101D02*
X006352Y016101D01*
X005232Y014181D02*
X005272Y014101D01*
X005232Y014181D02*
X002352Y014181D01*
X002272Y014101D01*
X002192Y014181D01*
X021392Y009861D02*
X021552Y010021D01*
X022032Y006981D02*
X021232Y006181D01*
X022272Y006101D02*
X022352Y006021D01*
X022352Y003621D01*
X022032Y006981D02*
X023792Y006981D01*
X023792Y007141D01*
X036272Y020601D02*
X036272Y020741D01*
X036752Y020741D01*
X040752Y024741D01*
X035952Y026821D02*
X034192Y028581D01*
X030032Y028581D01*
X013772Y038101D02*
X013712Y038181D01*
X012912Y038981D01*
X006192Y038981D01*
X005392Y038181D01*
X005072Y038181D01*
X004272Y038981D01*
X004272Y039101D01*
D18*
X014032Y025221D03*
X018192Y023781D03*
X017712Y020901D03*
X017712Y019941D03*
X018192Y019621D03*
X019792Y018181D03*
X022352Y020581D03*
X025072Y018981D03*
X025392Y022821D03*
X028752Y022661D03*
X030352Y021061D03*
X031472Y022821D03*
X033232Y023301D03*
X036912Y024901D03*
X035952Y026821D03*
X038192Y030661D03*
X037872Y032901D03*
X039952Y033221D03*
X041232Y028901D03*
X042672Y026821D03*
X040752Y024741D03*
X032432Y030501D03*
X027952Y029701D03*
X027152Y029701D03*
X023632Y026501D03*
X022832Y029061D03*
X022192Y029701D03*
X030352Y019141D03*
X033392Y016581D03*
X031952Y014021D03*
X030352Y011301D03*
X030352Y010821D03*
X025552Y011301D03*
X024112Y012581D03*
X021552Y010021D03*
X019472Y011781D03*
X017552Y011301D03*
X016912Y011301D03*
X017232Y010341D03*
X014512Y013061D03*
X014352Y016261D03*
X015472Y016421D03*
X009232Y010341D03*
X003632Y007781D03*
X022352Y003621D03*
X029392Y016421D03*
D19*
X016872Y019951D03*
X016872Y019951D03*
D20*
X016872Y017851D01*
X018672Y016051D01*
X032862Y016051D01*
X033392Y016581D01*
M02*
