G75*
G70*
%OFA0B0*%
%FSLAX24Y24*%
%IPPOS*%
%LPD*%
%AMOC8*
5,1,8,0,0,1.08239X$1,22.5*
%
%ADD10C,0.0000*%
%ADD11R,0.0236X0.0866*%
%ADD12R,0.0160X0.0080*%
%ADD13R,0.0866X0.0236*%
%ADD14C,0.0600*%
%ADD15R,0.0800X0.0260*%
%ADD16C,0.0554*%
%ADD17C,0.1400*%
%ADD18R,0.0591X0.0512*%
%ADD19R,0.0512X0.0591*%
%ADD20C,0.0780*%
%ADD21C,0.0520*%
%ADD22R,0.0472X0.0472*%
%ADD23OC8,0.1240*%
%ADD24C,0.1240*%
%ADD25C,0.0160*%
%ADD26C,0.0400*%
%ADD27C,0.0100*%
%ADD28C,0.0396*%
D10*
X000272Y000101D02*
X000272Y039971D01*
X044764Y039971D01*
X044764Y000101D01*
X000272Y000101D01*
X001142Y005601D02*
X001144Y005651D01*
X001150Y005701D01*
X001160Y005750D01*
X001174Y005798D01*
X001191Y005845D01*
X001212Y005890D01*
X001237Y005934D01*
X001265Y005975D01*
X001297Y006014D01*
X001331Y006051D01*
X001368Y006085D01*
X001408Y006115D01*
X001450Y006142D01*
X001494Y006166D01*
X001540Y006187D01*
X001587Y006203D01*
X001635Y006216D01*
X001685Y006225D01*
X001734Y006230D01*
X001785Y006231D01*
X001835Y006228D01*
X001884Y006221D01*
X001933Y006210D01*
X001981Y006195D01*
X002027Y006177D01*
X002072Y006155D01*
X002115Y006129D01*
X002156Y006100D01*
X002195Y006068D01*
X002231Y006033D01*
X002263Y005995D01*
X002293Y005955D01*
X002320Y005912D01*
X002343Y005868D01*
X002362Y005822D01*
X002378Y005774D01*
X002390Y005725D01*
X002398Y005676D01*
X002402Y005626D01*
X002402Y005576D01*
X002398Y005526D01*
X002390Y005477D01*
X002378Y005428D01*
X002362Y005380D01*
X002343Y005334D01*
X002320Y005290D01*
X002293Y005247D01*
X002263Y005207D01*
X002231Y005169D01*
X002195Y005134D01*
X002156Y005102D01*
X002115Y005073D01*
X002072Y005047D01*
X002027Y005025D01*
X001981Y005007D01*
X001933Y004992D01*
X001884Y004981D01*
X001835Y004974D01*
X001785Y004971D01*
X001734Y004972D01*
X001685Y004977D01*
X001635Y004986D01*
X001587Y004999D01*
X001540Y005015D01*
X001494Y005036D01*
X001450Y005060D01*
X001408Y005087D01*
X001368Y005117D01*
X001331Y005151D01*
X001297Y005188D01*
X001265Y005227D01*
X001237Y005268D01*
X001212Y005312D01*
X001191Y005357D01*
X001174Y005404D01*
X001160Y005452D01*
X001150Y005501D01*
X001144Y005551D01*
X001142Y005601D01*
X030142Y035601D02*
X030144Y035651D01*
X030150Y035701D01*
X030160Y035750D01*
X030174Y035798D01*
X030191Y035845D01*
X030212Y035890D01*
X030237Y035934D01*
X030265Y035975D01*
X030297Y036014D01*
X030331Y036051D01*
X030368Y036085D01*
X030408Y036115D01*
X030450Y036142D01*
X030494Y036166D01*
X030540Y036187D01*
X030587Y036203D01*
X030635Y036216D01*
X030685Y036225D01*
X030734Y036230D01*
X030785Y036231D01*
X030835Y036228D01*
X030884Y036221D01*
X030933Y036210D01*
X030981Y036195D01*
X031027Y036177D01*
X031072Y036155D01*
X031115Y036129D01*
X031156Y036100D01*
X031195Y036068D01*
X031231Y036033D01*
X031263Y035995D01*
X031293Y035955D01*
X031320Y035912D01*
X031343Y035868D01*
X031362Y035822D01*
X031378Y035774D01*
X031390Y035725D01*
X031398Y035676D01*
X031402Y035626D01*
X031402Y035576D01*
X031398Y035526D01*
X031390Y035477D01*
X031378Y035428D01*
X031362Y035380D01*
X031343Y035334D01*
X031320Y035290D01*
X031293Y035247D01*
X031263Y035207D01*
X031231Y035169D01*
X031195Y035134D01*
X031156Y035102D01*
X031115Y035073D01*
X031072Y035047D01*
X031027Y035025D01*
X030981Y035007D01*
X030933Y034992D01*
X030884Y034981D01*
X030835Y034974D01*
X030785Y034971D01*
X030734Y034972D01*
X030685Y034977D01*
X030635Y034986D01*
X030587Y034999D01*
X030540Y035015D01*
X030494Y035036D01*
X030450Y035060D01*
X030408Y035087D01*
X030368Y035117D01*
X030331Y035151D01*
X030297Y035188D01*
X030265Y035227D01*
X030237Y035268D01*
X030212Y035312D01*
X030191Y035357D01*
X030174Y035404D01*
X030160Y035452D01*
X030150Y035501D01*
X030144Y035551D01*
X030142Y035601D01*
X001142Y038601D02*
X001144Y038651D01*
X001150Y038701D01*
X001160Y038750D01*
X001174Y038798D01*
X001191Y038845D01*
X001212Y038890D01*
X001237Y038934D01*
X001265Y038975D01*
X001297Y039014D01*
X001331Y039051D01*
X001368Y039085D01*
X001408Y039115D01*
X001450Y039142D01*
X001494Y039166D01*
X001540Y039187D01*
X001587Y039203D01*
X001635Y039216D01*
X001685Y039225D01*
X001734Y039230D01*
X001785Y039231D01*
X001835Y039228D01*
X001884Y039221D01*
X001933Y039210D01*
X001981Y039195D01*
X002027Y039177D01*
X002072Y039155D01*
X002115Y039129D01*
X002156Y039100D01*
X002195Y039068D01*
X002231Y039033D01*
X002263Y038995D01*
X002293Y038955D01*
X002320Y038912D01*
X002343Y038868D01*
X002362Y038822D01*
X002378Y038774D01*
X002390Y038725D01*
X002398Y038676D01*
X002402Y038626D01*
X002402Y038576D01*
X002398Y038526D01*
X002390Y038477D01*
X002378Y038428D01*
X002362Y038380D01*
X002343Y038334D01*
X002320Y038290D01*
X002293Y038247D01*
X002263Y038207D01*
X002231Y038169D01*
X002195Y038134D01*
X002156Y038102D01*
X002115Y038073D01*
X002072Y038047D01*
X002027Y038025D01*
X001981Y038007D01*
X001933Y037992D01*
X001884Y037981D01*
X001835Y037974D01*
X001785Y037971D01*
X001734Y037972D01*
X001685Y037977D01*
X001635Y037986D01*
X001587Y037999D01*
X001540Y038015D01*
X001494Y038036D01*
X001450Y038060D01*
X001408Y038087D01*
X001368Y038117D01*
X001331Y038151D01*
X001297Y038188D01*
X001265Y038227D01*
X001237Y038268D01*
X001212Y038312D01*
X001191Y038357D01*
X001174Y038404D01*
X001160Y038452D01*
X001150Y038501D01*
X001144Y038551D01*
X001142Y038601D01*
X042142Y002101D02*
X042144Y002151D01*
X042150Y002201D01*
X042160Y002250D01*
X042174Y002298D01*
X042191Y002345D01*
X042212Y002390D01*
X042237Y002434D01*
X042265Y002475D01*
X042297Y002514D01*
X042331Y002551D01*
X042368Y002585D01*
X042408Y002615D01*
X042450Y002642D01*
X042494Y002666D01*
X042540Y002687D01*
X042587Y002703D01*
X042635Y002716D01*
X042685Y002725D01*
X042734Y002730D01*
X042785Y002731D01*
X042835Y002728D01*
X042884Y002721D01*
X042933Y002710D01*
X042981Y002695D01*
X043027Y002677D01*
X043072Y002655D01*
X043115Y002629D01*
X043156Y002600D01*
X043195Y002568D01*
X043231Y002533D01*
X043263Y002495D01*
X043293Y002455D01*
X043320Y002412D01*
X043343Y002368D01*
X043362Y002322D01*
X043378Y002274D01*
X043390Y002225D01*
X043398Y002176D01*
X043402Y002126D01*
X043402Y002076D01*
X043398Y002026D01*
X043390Y001977D01*
X043378Y001928D01*
X043362Y001880D01*
X043343Y001834D01*
X043320Y001790D01*
X043293Y001747D01*
X043263Y001707D01*
X043231Y001669D01*
X043195Y001634D01*
X043156Y001602D01*
X043115Y001573D01*
X043072Y001547D01*
X043027Y001525D01*
X042981Y001507D01*
X042933Y001492D01*
X042884Y001481D01*
X042835Y001474D01*
X042785Y001471D01*
X042734Y001472D01*
X042685Y001477D01*
X042635Y001486D01*
X042587Y001499D01*
X042540Y001515D01*
X042494Y001536D01*
X042450Y001560D01*
X042408Y001587D01*
X042368Y001617D01*
X042331Y001651D01*
X042297Y001688D01*
X042265Y001727D01*
X042237Y001768D01*
X042212Y001812D01*
X042191Y001857D01*
X042174Y001904D01*
X042160Y001952D01*
X042150Y002001D01*
X042144Y002051D01*
X042142Y002101D01*
D11*
X033022Y018290D03*
X032522Y018290D03*
X032022Y018290D03*
X031522Y018290D03*
X031022Y018290D03*
X030522Y018290D03*
X030022Y018290D03*
X029522Y018290D03*
X029022Y018290D03*
X028522Y018290D03*
X028522Y021912D03*
X029022Y021912D03*
X029522Y021912D03*
X030022Y021912D03*
X030522Y021912D03*
X031022Y021912D03*
X031522Y021912D03*
X032022Y021912D03*
X032522Y021912D03*
X033022Y021912D03*
X036022Y027577D03*
X036522Y027577D03*
X037022Y027577D03*
X037522Y027577D03*
X037522Y029624D03*
X037022Y029624D03*
X036522Y029624D03*
X036022Y029624D03*
X042022Y029624D03*
X042522Y029624D03*
X043022Y029624D03*
X043522Y029624D03*
X043522Y027577D03*
X043022Y027577D03*
X042522Y027577D03*
X042022Y027577D03*
X028022Y030577D03*
X027522Y030577D03*
X027022Y030577D03*
X026522Y030577D03*
X026522Y032624D03*
X027022Y032624D03*
X027522Y032624D03*
X028022Y032624D03*
X022522Y032624D03*
X022022Y032624D03*
X021522Y032624D03*
X021022Y032624D03*
X021022Y030577D03*
X021522Y030577D03*
X022022Y030577D03*
X022522Y030577D03*
D12*
X017784Y019485D03*
X017656Y019485D03*
X017656Y019229D03*
X017784Y019229D03*
X017784Y018973D03*
X017656Y018973D03*
X017656Y018717D03*
X017784Y018717D03*
X016888Y018717D03*
X016760Y018717D03*
X016760Y018973D03*
X016888Y018973D03*
X016888Y019229D03*
X016760Y019229D03*
X016760Y019485D03*
X016888Y019485D03*
D13*
X031249Y026351D03*
X031249Y026851D03*
X031249Y027351D03*
X031249Y027851D03*
X033296Y027851D03*
X033296Y027351D03*
X033296Y026851D03*
X033296Y026351D03*
X034296Y032351D03*
X034296Y032851D03*
X034296Y033351D03*
X034296Y033851D03*
X032249Y033851D03*
X032249Y033351D03*
X032249Y032851D03*
X032249Y032351D03*
X038749Y032351D03*
X038749Y032851D03*
X038749Y033351D03*
X038749Y033851D03*
X040796Y033851D03*
X040796Y033351D03*
X040796Y032851D03*
X040796Y032351D03*
D14*
X040772Y035301D02*
X040772Y035901D01*
X039772Y035901D02*
X039772Y035301D01*
X041772Y035301D02*
X041772Y035901D01*
X042772Y035901D02*
X042772Y035301D01*
X042772Y037801D02*
X042772Y038401D01*
X041772Y038401D02*
X041772Y037801D01*
X040772Y037801D02*
X040772Y038401D01*
X039772Y038401D02*
X039772Y037801D01*
X036272Y037801D02*
X036272Y038401D01*
X035272Y038401D02*
X035272Y037801D01*
X034272Y037801D02*
X034272Y038401D01*
X033272Y038401D02*
X033272Y037801D01*
X033272Y035901D02*
X033272Y035301D01*
X034272Y035301D02*
X034272Y035901D01*
X035272Y035901D02*
X035272Y035301D01*
X036272Y035301D02*
X036272Y035901D01*
X028272Y035901D02*
X028272Y035301D01*
X027272Y035301D02*
X027272Y035901D01*
X026272Y035901D02*
X026272Y035301D01*
X025272Y035301D02*
X025272Y035901D01*
X025272Y037801D02*
X025272Y038401D01*
X026272Y038401D02*
X026272Y037801D01*
X027272Y037801D02*
X027272Y038401D01*
X028272Y038401D02*
X028272Y037801D01*
X021772Y037801D02*
X021772Y038401D01*
X020772Y038401D02*
X020772Y037801D01*
X019772Y037801D02*
X019772Y038401D01*
X018772Y038401D02*
X018772Y037801D01*
X018772Y035901D02*
X018772Y035301D01*
X019772Y035301D02*
X019772Y035901D01*
X020772Y035901D02*
X020772Y035301D01*
X021772Y035301D02*
X021772Y035901D01*
X017772Y030901D02*
X017772Y030301D01*
X016772Y030301D02*
X016772Y030901D01*
X014272Y030901D02*
X014272Y030301D01*
X013272Y030301D02*
X013272Y030901D01*
X013272Y027901D02*
X013272Y027301D01*
X012272Y027301D02*
X012272Y027901D01*
X011272Y027901D02*
X011272Y027301D01*
X010272Y027301D02*
X010272Y027901D01*
X009272Y027901D02*
X009272Y027301D01*
X005572Y027101D02*
X004972Y027101D01*
X004972Y026101D02*
X005572Y026101D01*
X005572Y025101D02*
X004972Y025101D01*
X002572Y025101D02*
X001972Y025101D01*
X001972Y026101D02*
X002572Y026101D01*
X002572Y027101D02*
X001972Y027101D01*
X001972Y028101D02*
X002572Y028101D01*
X004972Y028101D02*
X005572Y028101D01*
X005572Y021601D02*
X004972Y021601D01*
X004972Y020601D02*
X005572Y020601D01*
X005572Y019601D02*
X004972Y019601D01*
X004972Y018601D02*
X005572Y018601D01*
X002572Y018601D02*
X001972Y018601D01*
X001972Y019601D02*
X002572Y019601D01*
X002572Y020601D02*
X001972Y020601D01*
X001972Y021601D02*
X002572Y021601D01*
X002572Y015101D02*
X001972Y015101D01*
X001972Y014101D02*
X002572Y014101D01*
X002572Y013101D02*
X001972Y013101D01*
X001972Y012101D02*
X002572Y012101D01*
X004972Y012101D02*
X005572Y012101D01*
X005572Y013101D02*
X004972Y013101D01*
X004972Y014101D02*
X005572Y014101D01*
X005572Y015101D02*
X004972Y015101D01*
X009272Y008901D02*
X009272Y008301D01*
X010272Y008301D02*
X010272Y008901D01*
X011272Y008901D02*
X011272Y008301D01*
X012272Y008301D02*
X012272Y008901D01*
X013272Y008901D02*
X013272Y008301D01*
X014272Y008301D02*
X014272Y008901D01*
X015272Y008901D02*
X015272Y008301D01*
X016272Y008301D02*
X016272Y008901D01*
X017872Y008901D02*
X017872Y008301D01*
X018872Y008301D02*
X018872Y008901D01*
X019872Y008901D02*
X019872Y008301D01*
X020872Y008301D02*
X020872Y008901D01*
X021872Y008901D02*
X021872Y008301D01*
X022872Y008301D02*
X022872Y008901D01*
X023872Y008901D02*
X023872Y008301D01*
X024872Y008301D02*
X024872Y008901D01*
X022272Y006401D02*
X022272Y005801D01*
X021272Y005801D02*
X021272Y006401D01*
X020272Y006401D02*
X020272Y005801D01*
X019272Y005801D02*
X019272Y006401D01*
X018272Y006401D02*
X018272Y005801D01*
X017272Y005801D02*
X017272Y006401D01*
X016272Y006401D02*
X016272Y005801D01*
X015272Y005801D02*
X015272Y006401D01*
X014272Y006401D02*
X014272Y005801D01*
X014372Y003101D02*
X014372Y002501D01*
X013372Y002501D02*
X013372Y003101D01*
X012372Y003101D02*
X012372Y002501D01*
X011372Y002501D02*
X011372Y003101D01*
X010372Y003101D02*
X010372Y002501D01*
X009372Y002501D02*
X009372Y003101D01*
X008372Y003101D02*
X008372Y002501D01*
X007372Y002501D02*
X007372Y003101D01*
X006372Y003101D02*
X006372Y002501D01*
X005372Y002501D02*
X005372Y003101D01*
X004372Y003101D02*
X004372Y002501D01*
X004272Y005801D02*
X004272Y006401D01*
X005272Y006401D02*
X005272Y005801D01*
X006272Y005801D02*
X006272Y006401D01*
X007272Y006401D02*
X007272Y005801D01*
X015372Y003101D02*
X015372Y002501D01*
X016372Y002501D02*
X016372Y003101D01*
X017372Y003101D02*
X017372Y002501D01*
X018372Y002501D02*
X018372Y003101D01*
X019372Y003101D02*
X019372Y002501D01*
X035972Y018601D02*
X036572Y018601D01*
X036572Y019601D02*
X035972Y019601D01*
X035972Y020601D02*
X036572Y020601D01*
X036572Y021601D02*
X035972Y021601D01*
X035972Y022601D02*
X036572Y022601D01*
X021272Y027301D02*
X021272Y027901D01*
X020272Y027901D02*
X020272Y027301D01*
X019272Y027301D02*
X019272Y027901D01*
X018272Y027901D02*
X018272Y027301D01*
X017272Y027301D02*
X017272Y027901D01*
X016272Y027901D02*
X016272Y027301D01*
X014272Y027301D02*
X014272Y027901D01*
X013772Y035301D02*
X013772Y035901D01*
X012772Y035901D02*
X012772Y035301D01*
X011772Y035301D02*
X011772Y035901D01*
X010772Y035901D02*
X010772Y035301D01*
X010772Y037801D02*
X010772Y038401D01*
X011772Y038401D02*
X011772Y037801D01*
X012772Y037801D02*
X012772Y038401D01*
X013772Y038401D02*
X013772Y037801D01*
X005272Y038801D02*
X005272Y039401D01*
X004272Y039401D02*
X004272Y038801D01*
D15*
X013062Y021101D03*
X013062Y020601D03*
X013062Y020101D03*
X013062Y019601D03*
X013062Y019101D03*
X013062Y018601D03*
X013062Y018101D03*
X015482Y018101D03*
X015482Y018601D03*
X015482Y019101D03*
X015482Y019601D03*
X015482Y020101D03*
X015482Y020601D03*
X015482Y021101D03*
X019062Y021101D03*
X019062Y020601D03*
X019062Y020101D03*
X019062Y019601D03*
X019062Y019101D03*
X019062Y018601D03*
X019062Y018101D03*
X021482Y018101D03*
X021482Y018601D03*
X021482Y019101D03*
X021482Y019601D03*
X021482Y020101D03*
X021482Y020601D03*
X021482Y021101D03*
X029562Y012351D03*
X029562Y011851D03*
X029562Y011351D03*
X029562Y010851D03*
X029562Y010351D03*
X029562Y009851D03*
X029562Y009351D03*
X029562Y008851D03*
X031982Y008851D03*
X031982Y009351D03*
X031982Y009851D03*
X031982Y010351D03*
X031982Y010851D03*
X031982Y011351D03*
X031982Y011851D03*
X031982Y012351D03*
D16*
X041772Y012824D02*
X041772Y013378D01*
X043647Y013378D02*
X043647Y012824D01*
X043647Y010878D02*
X043647Y010324D01*
X041772Y010324D02*
X041772Y010878D01*
X041772Y007878D02*
X041772Y007324D01*
X043647Y007324D02*
X043647Y007878D01*
X043647Y005378D02*
X043647Y004824D01*
X041772Y004824D02*
X041772Y005378D01*
X041772Y015824D02*
X041772Y016378D01*
X043647Y016378D02*
X043647Y015824D01*
X043647Y018324D02*
X043647Y018878D01*
X041772Y018878D02*
X041772Y018324D01*
D17*
X031772Y002801D03*
X002272Y002801D03*
D18*
X002272Y008227D03*
X002272Y008975D03*
X004272Y008975D03*
X004272Y008227D03*
X016772Y015727D03*
X016772Y016475D03*
X026272Y019727D03*
X026272Y020475D03*
X026272Y022727D03*
X026272Y023475D03*
X023772Y031227D03*
X023772Y031975D03*
X029272Y031975D03*
X029272Y031227D03*
D19*
X031898Y029101D03*
X032646Y029101D03*
X032898Y031101D03*
X033646Y031101D03*
X036398Y031101D03*
X037146Y031101D03*
X039398Y031101D03*
X040146Y031101D03*
X042398Y031101D03*
X043146Y031101D03*
X043146Y025601D03*
X042398Y025601D03*
X037146Y025601D03*
X036398Y025601D03*
X032646Y023601D03*
X031898Y023601D03*
X030646Y023601D03*
X029898Y023601D03*
X028646Y023601D03*
X027898Y023601D03*
X029898Y025101D03*
X030646Y025101D03*
X030398Y016601D03*
X031146Y016601D03*
X038898Y016601D03*
X039646Y016601D03*
X039646Y014601D03*
X038898Y014601D03*
X038898Y012601D03*
X039646Y012601D03*
X039646Y010601D03*
X038898Y010601D03*
X038898Y008601D03*
X039646Y008601D03*
X039646Y006601D03*
X038898Y006601D03*
X038898Y004601D03*
X039646Y004601D03*
X039646Y002601D03*
X038898Y002601D03*
X014646Y022101D03*
X013898Y022101D03*
D20*
X030272Y029211D02*
X030272Y029991D01*
D21*
X034512Y013601D02*
X035032Y013601D01*
X035032Y012601D02*
X034512Y012601D01*
X034512Y011601D02*
X035032Y011601D01*
X035032Y010601D02*
X034512Y010601D01*
X034512Y009601D02*
X035032Y009601D01*
X035032Y008601D02*
X034512Y008601D01*
X034512Y007601D02*
X035032Y007601D01*
X035032Y006601D02*
X034512Y006601D01*
D22*
X036359Y006601D03*
X037186Y006601D03*
X037186Y008601D03*
X036359Y008601D03*
X036359Y010601D03*
X037186Y010601D03*
X037186Y012601D03*
X036359Y012601D03*
X036359Y014601D03*
X037186Y014601D03*
X037186Y016601D03*
X036359Y016601D03*
X036359Y004601D03*
X037186Y004601D03*
X037186Y002601D03*
X036359Y002601D03*
D23*
X003772Y034101D03*
D24*
X006772Y034101D03*
D25*
X006672Y034021D01*
X006192Y033541D01*
X006192Y025861D01*
X005392Y025061D01*
X005272Y025101D01*
X004432Y024261D01*
X004432Y017701D01*
X004432Y012101D01*
X002272Y012101D01*
X004432Y012101D02*
X004912Y012101D01*
X004912Y008741D01*
X004272Y008101D01*
X004272Y008227D01*
X004272Y008101D02*
X004272Y006101D01*
X004272Y006021D01*
X004912Y005381D01*
X004912Y003141D01*
X005232Y002821D01*
X005372Y002801D01*
X005392Y002661D01*
X005392Y001541D01*
X018032Y001541D01*
X018192Y001701D01*
X018192Y002501D01*
X018352Y002661D01*
X018372Y002801D01*
X018512Y002821D01*
X018512Y003621D01*
X022352Y003621D01*
X024912Y003621D01*
X029392Y008101D01*
X029392Y008581D01*
X029552Y008741D01*
X029562Y008851D01*
X029562Y009351D02*
X029712Y009381D01*
X031312Y009381D01*
X031312Y008581D01*
X033232Y006661D01*
X034672Y006661D01*
X034772Y006601D01*
X034832Y006501D01*
X034832Y004101D01*
X036272Y002661D01*
X036359Y002601D01*
X037186Y002601D02*
X037232Y002661D01*
X038832Y002661D01*
X038898Y002601D01*
X039632Y002661D02*
X039646Y002601D01*
X039632Y002661D02*
X039632Y004581D01*
X039646Y004601D01*
X039632Y004741D01*
X039632Y005061D01*
X041712Y005061D01*
X041772Y005101D01*
X041872Y005221D01*
X041872Y007461D01*
X041772Y007601D01*
X043632Y007461D02*
X043647Y007601D01*
X043632Y007461D02*
X043632Y005221D01*
X043647Y005101D01*
X039632Y005061D02*
X039632Y006501D01*
X039646Y006601D01*
X039632Y006661D01*
X039632Y008581D01*
X039646Y008601D01*
X039632Y008741D01*
X039632Y010501D01*
X039646Y010601D01*
X039632Y010661D01*
X039632Y012581D01*
X039646Y012601D01*
X039632Y012741D01*
X039632Y013061D01*
X041712Y013061D01*
X041772Y013101D01*
X043632Y013061D02*
X043647Y013101D01*
X043632Y013061D02*
X043632Y010661D01*
X043647Y010601D01*
X041772Y010601D02*
X041712Y010661D01*
X039792Y010661D01*
X039646Y010601D01*
X038898Y010601D02*
X038832Y010661D01*
X037232Y010661D01*
X037186Y010601D01*
X036359Y010601D02*
X036272Y010661D01*
X034832Y010661D01*
X034772Y010601D01*
X034672Y010501D01*
X034672Y010341D01*
X032112Y010341D01*
X031982Y010351D01*
X031982Y009851D02*
X032112Y009861D01*
X034672Y009861D01*
X034672Y009701D01*
X034772Y009601D01*
X035632Y008741D01*
X036272Y008741D01*
X036359Y008601D01*
X037186Y008601D02*
X037232Y008581D01*
X038832Y008581D01*
X038898Y008601D01*
X038832Y006661D02*
X037232Y006661D01*
X037186Y006601D01*
X036359Y006601D02*
X036272Y006661D01*
X035632Y007301D01*
X035632Y007781D01*
X034832Y008581D01*
X034772Y008601D01*
X034672Y008741D01*
X034032Y009381D01*
X032112Y009381D01*
X031982Y009351D01*
X031982Y008851D02*
X032112Y008741D01*
X033392Y007461D01*
X034672Y007461D01*
X034772Y007601D01*
X034832Y007461D01*
X035632Y006661D01*
X035632Y005381D01*
X036272Y004741D01*
X036359Y004601D01*
X037186Y004601D02*
X037232Y004581D01*
X038832Y004581D01*
X038898Y004601D01*
X038898Y006601D02*
X038832Y006661D01*
X034672Y011461D02*
X034032Y010821D01*
X032112Y010821D01*
X031982Y010851D01*
X031982Y011351D02*
X032112Y011461D01*
X034032Y011461D01*
X034032Y011941D01*
X034672Y012581D01*
X034772Y012601D01*
X034832Y012741D01*
X035632Y013541D01*
X035632Y013861D01*
X036272Y014501D01*
X036359Y014601D01*
X037186Y014601D02*
X037232Y014661D01*
X038832Y014661D01*
X038898Y014601D01*
X039632Y014661D02*
X039646Y014601D01*
X039632Y014501D01*
X039632Y013061D01*
X038898Y012601D02*
X038832Y012581D01*
X037232Y012581D01*
X037186Y012601D01*
X036359Y012601D02*
X036272Y012581D01*
X035312Y011621D01*
X034832Y011621D01*
X034772Y011601D01*
X034672Y011461D01*
X033712Y011941D02*
X033712Y012581D01*
X034672Y013541D01*
X034772Y013601D01*
X034832Y013701D01*
X034832Y015141D01*
X033392Y016581D01*
X032912Y016741D02*
X033392Y017221D01*
X039632Y017221D01*
X039632Y016741D01*
X039646Y016601D01*
X039632Y016581D01*
X039632Y016101D01*
X041772Y016101D01*
X041872Y016101D01*
X041872Y018501D01*
X041772Y018601D01*
X041872Y018661D01*
X041872Y025061D01*
X042352Y025541D01*
X042398Y025601D01*
X042352Y025701D01*
X042032Y026021D01*
X042032Y027461D01*
X042022Y027577D01*
X042522Y027577D02*
X042512Y027461D01*
X042672Y027301D01*
X042672Y026821D01*
X043022Y027577D02*
X042992Y027621D01*
X042992Y028101D01*
X042832Y028261D01*
X041552Y028261D01*
X041552Y023781D01*
X036272Y018501D01*
X036272Y018601D01*
X036272Y018501D02*
X036272Y017541D01*
X032912Y017541D01*
X032592Y017861D01*
X032592Y018181D01*
X032522Y018290D01*
X033022Y018290D02*
X033072Y018341D01*
X034352Y019621D01*
X036272Y019621D01*
X036272Y019601D01*
X036272Y019461D01*
X037872Y021061D01*
X037872Y028261D01*
X037232Y028261D01*
X037072Y028101D01*
X037072Y027621D01*
X037022Y027577D01*
X036522Y027577D02*
X036432Y027621D01*
X036432Y028261D01*
X036112Y028581D01*
X035472Y027941D01*
X035472Y023461D01*
X036272Y022661D01*
X036272Y022601D01*
X035472Y022661D02*
X035472Y022341D01*
X036272Y021541D01*
X036272Y021601D01*
X036272Y020601D02*
X036272Y020581D01*
X034352Y020581D01*
X033072Y021861D01*
X033022Y021912D01*
X032592Y022021D02*
X032592Y022341D01*
X032912Y022661D01*
X034672Y022661D01*
X034672Y031941D01*
X034352Y032261D01*
X034296Y032351D01*
X034192Y032741D02*
X033712Y032741D01*
X033552Y032581D01*
X033552Y031141D01*
X033646Y031101D01*
X033712Y030981D01*
X034032Y030661D01*
X034032Y027621D01*
X033392Y026981D01*
X033392Y026821D01*
X033296Y026851D01*
X033232Y026821D01*
X032592Y026821D01*
X032592Y023621D01*
X032646Y023601D01*
X032752Y023461D01*
X033232Y023461D01*
X033232Y023301D01*
X032646Y023601D02*
X032592Y023461D01*
X032112Y022981D01*
X032112Y022021D01*
X032022Y021912D01*
X031952Y021861D01*
X031952Y021381D01*
X031632Y021061D01*
X031632Y020101D01*
X029072Y020101D01*
X029072Y018341D01*
X029022Y018290D01*
X028522Y018290D02*
X028432Y018181D01*
X027472Y017221D01*
X024592Y020101D01*
X024592Y027141D01*
X027152Y029701D01*
X027472Y030021D01*
X027472Y030501D01*
X027522Y030577D01*
X027952Y030501D02*
X028022Y030577D01*
X027952Y030501D02*
X027952Y029701D01*
X026992Y030181D02*
X026992Y030501D01*
X027022Y030577D01*
X026992Y030181D02*
X026672Y029861D01*
X024112Y029861D01*
X024112Y012581D01*
X023152Y011621D02*
X021552Y010021D01*
X020912Y010021D02*
X020912Y008741D01*
X020872Y008601D01*
X020752Y008581D01*
X020752Y007621D01*
X019312Y006181D01*
X019272Y006101D01*
X019312Y006021D01*
X019312Y005221D01*
X023472Y005221D01*
X025712Y007461D01*
X025712Y009861D01*
X028912Y009861D01*
X028912Y017221D01*
X029552Y017861D01*
X029552Y018181D01*
X029522Y018290D01*
X030352Y018501D02*
X030352Y019141D01*
X030352Y018501D02*
X030512Y018341D01*
X030522Y018290D01*
X030992Y018181D02*
X031022Y018290D01*
X030992Y018181D02*
X030992Y016741D01*
X031146Y016601D01*
X031152Y016581D01*
X031472Y016261D01*
X031472Y013541D01*
X032912Y013541D01*
X032912Y016741D01*
X031952Y018181D02*
X032022Y018290D01*
X031952Y018181D02*
X031952Y014021D01*
X031472Y013541D02*
X031472Y012261D01*
X031952Y012261D01*
X031982Y012351D01*
X032112Y011941D02*
X031982Y011851D01*
X032112Y011941D02*
X033712Y011941D01*
X031472Y012261D02*
X031312Y012101D01*
X031312Y010341D01*
X029712Y010341D01*
X029562Y010351D01*
X029552Y009861D02*
X028912Y009861D01*
X029552Y009861D02*
X029562Y009851D01*
X029712Y010821D02*
X029562Y010851D01*
X029712Y010821D02*
X030352Y010821D01*
X030352Y011301D02*
X029712Y011301D01*
X029562Y011351D01*
X029562Y011851D02*
X029712Y011941D01*
X030032Y011941D01*
X030192Y012101D01*
X030192Y016421D01*
X030398Y016601D01*
X030352Y016581D01*
X030192Y016421D01*
X029392Y016421D01*
X027472Y017221D02*
X025552Y015301D01*
X025552Y011301D01*
X022992Y008741D01*
X022872Y008601D01*
X021872Y008601D02*
X021872Y008741D01*
X024592Y011461D01*
X024592Y018501D01*
X025072Y018981D01*
X025392Y019781D02*
X025392Y022021D01*
X024912Y022501D01*
X024912Y026021D01*
X029872Y030981D01*
X029872Y031461D01*
X029392Y031941D01*
X029272Y031975D01*
X029232Y032101D01*
X029232Y032581D01*
X029232Y033381D01*
X032112Y033381D01*
X032249Y033351D01*
X032272Y033381D01*
X032592Y033381D01*
X032912Y033061D01*
X032912Y031141D01*
X032898Y031101D01*
X032432Y030501D02*
X032432Y032101D01*
X032272Y032261D01*
X032249Y032351D01*
X032112Y032741D02*
X032249Y032851D01*
X032112Y032741D02*
X031472Y032741D01*
X031472Y029221D01*
X031792Y029221D01*
X031898Y029101D01*
X031952Y029061D01*
X031952Y027461D01*
X031952Y025221D01*
X030672Y025221D01*
X030646Y025101D01*
X030672Y025061D01*
X030672Y023621D01*
X030646Y023601D01*
X030672Y023461D01*
X030992Y023141D01*
X030992Y022021D01*
X031022Y021912D01*
X031472Y021861D02*
X031472Y021381D01*
X030672Y020581D01*
X030192Y020581D01*
X029552Y021221D01*
X029552Y021861D01*
X029522Y021912D01*
X029552Y022021D01*
X029392Y022181D01*
X029392Y023781D01*
X029072Y024101D01*
X027952Y024101D01*
X027952Y023621D01*
X027898Y023601D01*
X027792Y023461D01*
X026352Y023461D01*
X026272Y023475D01*
X026192Y022821D02*
X025392Y022821D01*
X026192Y022821D02*
X026272Y022727D01*
X027792Y022021D02*
X027792Y023461D01*
X028646Y023601D02*
X028752Y023461D01*
X028752Y022661D01*
X028592Y022021D02*
X028522Y021912D01*
X028592Y022021D02*
X028912Y022021D01*
X029022Y021912D01*
X029072Y021861D01*
X029072Y020101D01*
X030032Y021381D02*
X030032Y021861D01*
X030022Y021912D01*
X030352Y022181D02*
X030352Y022981D01*
X030032Y023301D01*
X030032Y023461D01*
X029898Y023601D01*
X029872Y023621D01*
X029872Y025061D01*
X029898Y025101D01*
X031952Y023781D02*
X031952Y023621D01*
X031898Y023601D01*
X031792Y023461D01*
X031632Y023301D01*
X031632Y022821D01*
X031472Y022821D01*
X031632Y022821D02*
X031632Y022021D01*
X031522Y021912D01*
X031472Y021861D01*
X030522Y021912D02*
X030512Y022021D01*
X030352Y022181D01*
X030032Y021381D02*
X030352Y021061D01*
X031632Y020101D02*
X031632Y018341D01*
X031522Y018290D01*
X034832Y015141D02*
X036272Y016581D01*
X036359Y016601D01*
X037186Y016601D02*
X037232Y016581D01*
X038832Y016581D01*
X038898Y016601D01*
X039632Y016101D02*
X039632Y014661D01*
X043632Y016101D02*
X043647Y016101D01*
X043632Y016101D02*
X043632Y018501D01*
X043647Y018601D01*
X040752Y024741D02*
X040752Y032261D01*
X040796Y032351D01*
X040752Y032741D02*
X040272Y032741D01*
X040112Y032581D01*
X040112Y031141D01*
X040146Y031101D01*
X039472Y031141D02*
X039398Y031101D01*
X039472Y031141D02*
X039472Y033061D01*
X039152Y033381D01*
X038832Y033381D01*
X038749Y033351D01*
X038672Y033381D01*
X037232Y033381D01*
X037232Y038181D01*
X036432Y038981D01*
X027312Y038981D01*
X027312Y038181D01*
X027272Y038101D01*
X027152Y038181D01*
X026352Y038181D01*
X026272Y038101D01*
X026352Y038021D01*
X026352Y035621D01*
X026272Y035601D01*
X026352Y035621D02*
X027152Y035621D01*
X027272Y035601D01*
X027152Y035461D01*
X027152Y032901D01*
X026992Y032741D01*
X027022Y032624D01*
X026992Y032581D01*
X026992Y031941D01*
X027792Y031941D01*
X027952Y032101D01*
X027952Y032581D01*
X028022Y032624D01*
X028112Y032581D01*
X029232Y032581D01*
X029232Y031301D02*
X029272Y031227D01*
X029232Y031301D02*
X026512Y031301D01*
X026512Y031141D01*
X026512Y030661D01*
X026522Y030577D01*
X026512Y031141D02*
X023792Y031141D01*
X023772Y031227D01*
X023632Y031141D01*
X023632Y026501D01*
X023152Y026821D02*
X023312Y026981D01*
X023312Y029221D01*
X023152Y029381D01*
X023152Y031301D01*
X021872Y031301D01*
X021552Y030981D01*
X021552Y030661D01*
X021522Y030577D01*
X021022Y030577D02*
X020912Y030501D01*
X019312Y028901D01*
X019312Y027621D01*
X019272Y027601D01*
X018672Y027941D02*
X018672Y029221D01*
X021552Y032101D01*
X021712Y031941D01*
X022512Y031941D01*
X022512Y032101D01*
X022512Y032581D01*
X022522Y032624D01*
X022022Y032624D02*
X022032Y032741D01*
X021872Y032901D01*
X021872Y035461D01*
X021772Y035601D01*
X021872Y035621D01*
X021872Y038021D01*
X021772Y038101D01*
X020772Y038101D02*
X020752Y038181D01*
X019792Y038181D01*
X019772Y038101D01*
X019792Y038021D01*
X019792Y035621D01*
X019772Y035601D01*
X019792Y035621D02*
X020752Y035621D01*
X020772Y035601D01*
X020912Y035461D01*
X020912Y035301D01*
X021392Y034821D01*
X021392Y032901D01*
X021552Y032741D01*
X021522Y032624D01*
X021552Y032581D01*
X021552Y032101D01*
X021022Y032624D02*
X020912Y032741D01*
X018832Y034821D01*
X018832Y035461D01*
X018772Y035601D01*
X018832Y035621D01*
X018832Y038021D01*
X018772Y038101D01*
X013872Y038021D02*
X013872Y035621D01*
X013772Y035601D01*
X013872Y035461D01*
X013872Y030981D01*
X014192Y030661D01*
X014272Y030601D01*
X013392Y030501D02*
X013392Y030341D01*
X014832Y028901D01*
X014832Y023781D01*
X017712Y020901D01*
X017712Y020101D02*
X019062Y020101D01*
X018992Y020581D02*
X018672Y020581D01*
X018512Y020421D01*
X016552Y020421D01*
X016232Y020101D01*
X016232Y018181D01*
X015632Y018181D01*
X015482Y018101D01*
X015472Y018501D02*
X015482Y018601D01*
X015472Y018661D01*
X015472Y018981D01*
X015482Y019101D01*
X015472Y018501D02*
X014832Y018501D01*
X014832Y016421D01*
X019472Y011781D01*
X018352Y012421D02*
X018352Y010341D01*
X019792Y008901D01*
X019792Y008741D01*
X019872Y008601D01*
X018872Y008601D02*
X018832Y008741D01*
X017232Y010341D01*
X016912Y011301D02*
X014352Y008741D01*
X014272Y008601D01*
X014352Y008581D01*
X014352Y008421D01*
X014832Y007941D01*
X014832Y006501D01*
X015152Y006181D01*
X015272Y006101D01*
X015152Y006021D01*
X014832Y005701D01*
X014832Y003141D01*
X014512Y002821D01*
X014372Y002801D01*
X015372Y002801D02*
X015472Y002661D01*
X016272Y001861D01*
X017872Y001861D01*
X017872Y005381D01*
X017392Y005861D01*
X017392Y006021D01*
X017272Y006101D01*
X017232Y006181D01*
X016912Y006501D01*
X016912Y009061D01*
X016112Y009861D01*
X017552Y011301D01*
X018352Y012421D02*
X011952Y012421D01*
X008752Y009221D01*
X008752Y008101D01*
X008912Y007941D01*
X008912Y003141D01*
X009232Y002821D01*
X009372Y002801D01*
X007792Y003141D02*
X007792Y008901D01*
X009232Y010341D01*
X005272Y012101D02*
X005232Y012101D01*
X005272Y012101D02*
X004912Y012101D01*
X002352Y015141D02*
X002272Y015101D01*
X002192Y015141D01*
X001392Y014341D01*
X001392Y008261D01*
X002192Y008261D01*
X002272Y008227D01*
X002352Y008101D01*
X003632Y006821D01*
X003632Y003461D01*
X004272Y002821D01*
X004372Y002801D01*
X006352Y002821D02*
X006372Y002801D01*
X006352Y002821D02*
X006352Y006021D01*
X006272Y006101D01*
X003632Y007781D02*
X003632Y009061D01*
X002352Y009061D01*
X002272Y008975D01*
X003632Y009061D02*
X004272Y009061D01*
X004272Y008975D01*
X002352Y015141D02*
X003152Y015941D01*
X003152Y020741D01*
X002352Y021541D01*
X002272Y021601D01*
X002352Y021701D01*
X003152Y022501D01*
X003152Y028101D01*
X002272Y028101D01*
X003152Y028101D02*
X003792Y028101D01*
X003792Y034021D01*
X003772Y034101D01*
X003792Y034181D01*
X003792Y038501D01*
X004272Y038981D01*
X004272Y039101D01*
X005272Y039101D02*
X006672Y037701D01*
X006672Y035621D01*
X010672Y035621D01*
X010772Y035601D01*
X010832Y035621D01*
X010832Y038021D01*
X010772Y038101D01*
X011772Y038101D02*
X011792Y038021D01*
X011792Y035621D01*
X011772Y035601D01*
X011632Y035461D01*
X011632Y035301D01*
X009712Y033381D01*
X009712Y027941D01*
X009392Y027621D01*
X009272Y027601D01*
X010272Y027601D02*
X010352Y027621D01*
X010672Y027941D01*
X010672Y033381D01*
X012752Y035461D01*
X012772Y035601D01*
X012752Y035621D01*
X012752Y038021D01*
X012772Y038101D01*
X013772Y038101D02*
X013872Y038021D01*
X006672Y035621D02*
X006672Y034181D01*
X006772Y034101D01*
X005272Y028101D02*
X003792Y028101D01*
X011272Y027601D02*
X011312Y027461D01*
X011312Y016261D01*
X014512Y013061D01*
X016772Y015727D02*
X016912Y015781D01*
X018992Y017861D01*
X018992Y018021D01*
X019062Y018101D01*
X019152Y018181D01*
X019792Y018181D01*
X019152Y018661D02*
X019062Y018601D01*
X019152Y018661D02*
X021392Y018661D01*
X021482Y018601D01*
X021552Y018181D02*
X021482Y018101D01*
X021552Y018181D02*
X022192Y018181D01*
X022192Y019781D01*
X021872Y020101D01*
X021482Y020101D01*
X021072Y020101D01*
X020752Y020421D01*
X020752Y021061D01*
X019152Y021061D01*
X019062Y021101D01*
X019062Y020601D02*
X018992Y020581D01*
X018992Y019621D02*
X018192Y019621D01*
X017712Y019941D02*
X017712Y020101D01*
X018992Y019621D02*
X018992Y019141D01*
X019062Y019101D01*
X019062Y019601D02*
X018992Y019621D01*
X021482Y019601D02*
X021552Y019621D01*
X021552Y019141D01*
X021482Y019101D01*
X021552Y020581D02*
X021482Y020601D01*
X021552Y020581D02*
X022352Y020581D01*
X021482Y021101D02*
X021392Y021221D01*
X018352Y024261D01*
X018352Y027461D01*
X018272Y027601D01*
X018352Y027621D01*
X018672Y027941D01*
X018272Y027601D02*
X018192Y027621D01*
X017392Y027621D01*
X017272Y027601D01*
X015632Y026341D02*
X015632Y029381D01*
X016752Y030501D01*
X016772Y030601D01*
X013392Y030501D02*
X013272Y030601D01*
X015632Y026341D02*
X018192Y023781D01*
X015472Y021221D02*
X015482Y021101D01*
X015472Y021221D02*
X015312Y021381D01*
X014352Y020421D01*
X014352Y016261D01*
X015472Y016421D02*
X016752Y016421D01*
X016772Y016475D01*
X013062Y018101D02*
X012272Y018101D01*
X012272Y022101D01*
X013898Y022101D01*
X014032Y022181D01*
X014032Y025221D01*
X014646Y022101D02*
X014672Y022021D01*
X015312Y021381D01*
X023152Y026821D02*
X023152Y011621D01*
X022832Y011941D02*
X020912Y010021D01*
X022832Y011941D02*
X022832Y029061D01*
X022832Y030181D01*
X022512Y030501D01*
X022522Y030577D01*
X022192Y030341D02*
X022192Y029701D01*
X022192Y030341D02*
X022032Y030501D01*
X022022Y030577D01*
X022512Y032101D02*
X023632Y032101D01*
X023772Y031975D01*
X023792Y031941D01*
X026992Y031941D01*
X026522Y032624D02*
X026512Y032741D01*
X025392Y033861D01*
X025392Y035461D01*
X025272Y035601D01*
X025392Y035621D01*
X025392Y038021D01*
X025272Y038101D01*
X028272Y038101D02*
X028272Y035621D01*
X028272Y035601D01*
X028272Y035621D02*
X028112Y035461D01*
X028112Y035301D01*
X027632Y034821D01*
X027632Y032741D01*
X027522Y032624D01*
X030272Y029601D02*
X030352Y029541D01*
X030352Y029221D01*
X031472Y029221D01*
X032646Y029101D02*
X032752Y029061D01*
X033232Y028581D01*
X033232Y027941D01*
X033296Y027851D01*
X033232Y027781D01*
X032272Y027781D01*
X032272Y024101D01*
X031952Y023781D01*
X032592Y022021D02*
X032522Y021912D01*
X034672Y022661D02*
X035472Y022661D01*
X036912Y024901D02*
X036912Y025381D01*
X037072Y025541D01*
X037146Y025601D01*
X037232Y025701D01*
X037552Y026021D01*
X037552Y027461D01*
X037522Y027577D01*
X036112Y027461D02*
X036112Y026821D01*
X035952Y026821D01*
X036112Y026821D02*
X036112Y025861D01*
X036272Y025701D01*
X036398Y025601D01*
X036112Y027461D02*
X036022Y027577D01*
X036112Y028581D02*
X034992Y029701D01*
X034992Y033061D01*
X034672Y033381D01*
X034352Y033381D01*
X034296Y033351D01*
X034296Y033851D02*
X034352Y033861D01*
X034352Y035461D01*
X034272Y035601D01*
X034352Y035621D01*
X034352Y038021D01*
X034272Y038101D01*
X033392Y038021D02*
X033272Y038101D01*
X033392Y038021D02*
X033392Y035621D01*
X033272Y035601D01*
X033232Y035461D01*
X033232Y034821D01*
X032272Y033861D01*
X032249Y033851D01*
X034192Y032741D02*
X034296Y032851D01*
X036272Y033861D02*
X036272Y035601D01*
X036272Y038101D01*
X035312Y038021D02*
X035272Y038101D01*
X035312Y038021D02*
X035312Y035621D01*
X035272Y035601D01*
X035312Y035461D01*
X035632Y035141D01*
X035632Y030021D01*
X035952Y029701D01*
X036022Y029624D01*
X036432Y029701D02*
X036522Y029624D01*
X036432Y029701D02*
X036432Y030981D01*
X036398Y031101D01*
X037072Y030981D02*
X037146Y031101D01*
X037072Y030981D02*
X037072Y029701D01*
X037022Y029624D01*
X037522Y029624D02*
X037552Y029701D01*
X037712Y029861D01*
X037712Y032421D01*
X036272Y033861D01*
X037872Y032901D02*
X038672Y032901D01*
X038749Y032851D01*
X038749Y032351D02*
X038672Y032261D01*
X038672Y031141D01*
X038192Y030661D01*
X039952Y033221D02*
X039952Y033381D01*
X040752Y033381D01*
X040796Y033351D01*
X040796Y033851D02*
X040752Y033861D01*
X040752Y035461D01*
X040772Y035601D01*
X040752Y035621D01*
X040752Y038021D01*
X040772Y038101D01*
X039792Y038021D02*
X039772Y038101D01*
X039792Y038021D02*
X039792Y035621D01*
X039772Y035601D01*
X039632Y035461D01*
X039632Y034661D01*
X038832Y033861D01*
X038749Y033851D01*
X040796Y032851D02*
X040912Y032741D01*
X041392Y032741D01*
X041552Y032581D01*
X041552Y028901D01*
X041232Y028901D01*
X041552Y028901D02*
X042672Y028901D01*
X043472Y028101D01*
X043472Y027621D01*
X043522Y027577D01*
X043472Y027461D01*
X043472Y026021D01*
X043152Y025701D01*
X043146Y025601D01*
X043022Y029624D02*
X042992Y029701D01*
X042992Y030981D01*
X043146Y031101D01*
X042512Y030981D02*
X042398Y031101D01*
X042512Y030981D02*
X042512Y029701D01*
X042522Y029624D01*
X042032Y029701D02*
X042022Y029624D01*
X042032Y029701D02*
X041872Y029861D01*
X041872Y035461D01*
X041772Y035601D01*
X041872Y035621D01*
X041872Y038021D01*
X041772Y038101D01*
X042772Y038101D02*
X042832Y038021D01*
X042832Y035621D01*
X042772Y035601D01*
X042832Y035461D01*
X043632Y034661D01*
X043632Y029701D01*
X043522Y029624D01*
X040752Y032741D02*
X040796Y032851D01*
X033392Y027301D02*
X033392Y026981D01*
X033392Y027301D02*
X033296Y027351D01*
X031952Y027461D02*
X031312Y027461D01*
X031249Y027351D01*
X027792Y022021D02*
X026352Y020581D01*
X026272Y020475D01*
X026192Y019781D02*
X025392Y019781D01*
X026192Y019781D02*
X026272Y019727D01*
X016112Y009861D02*
X015312Y009061D01*
X015312Y008741D01*
X015272Y008601D01*
X016272Y008601D02*
X016272Y006101D01*
X016272Y002821D01*
X016372Y002801D01*
X007792Y003141D02*
X007472Y002821D01*
X007372Y002801D01*
X004432Y017701D02*
X005232Y018501D01*
X005272Y018601D01*
D26*
X014352Y016261D03*
X015472Y016421D03*
X014512Y013061D03*
X016912Y011301D03*
X017552Y011301D03*
X017232Y010341D03*
X019472Y011781D03*
X021552Y010021D03*
X024112Y012581D03*
X025552Y011301D03*
X030352Y011301D03*
X030352Y010821D03*
X031952Y014021D03*
X029392Y016421D03*
X030352Y019141D03*
X030352Y021061D03*
X031472Y022821D03*
X033232Y023301D03*
X036912Y024901D03*
X035952Y026821D03*
X038192Y030661D03*
X037872Y032901D03*
X039952Y033221D03*
X041232Y028901D03*
X042672Y026821D03*
X040752Y024741D03*
X032432Y030501D03*
X027952Y029701D03*
X027152Y029701D03*
X023632Y026501D03*
X022832Y029061D03*
X022192Y029701D03*
X018192Y023781D03*
X017712Y020901D03*
X017712Y019941D03*
X018192Y019621D03*
X019792Y018181D03*
X022352Y020581D03*
X025072Y018981D03*
X025392Y022821D03*
X028752Y022661D03*
X033392Y016581D03*
X022352Y003621D03*
X009232Y010341D03*
X003632Y007781D03*
X014032Y025221D03*
D27*
X016872Y019951D02*
X016872Y019485D01*
X016760Y019485D01*
X016760Y019229D02*
X016522Y019229D01*
X016522Y018101D01*
X016772Y018101D01*
X016772Y018717D01*
X016760Y018717D01*
X017372Y018701D02*
X017784Y018701D01*
X017784Y018717D01*
X017784Y018973D01*
X017784Y019229D02*
X018192Y019229D01*
X018192Y019621D01*
X017784Y019485D02*
X017372Y019485D01*
X017372Y018701D01*
X017784Y018717D02*
X018272Y018717D01*
X018272Y018101D01*
X019062Y018101D01*
X016772Y018101D02*
X016772Y016475D01*
D28*
X016872Y019951D03*
X016872Y019951D03*
M02*
