G75*
G70*
%OFA0B0*%
%FSLAX24Y24*%
%IPPOS*%
%LPD*%
%AMOC8*
5,1,8,0,0,1.08239X$1,22.5*
%
%ADD10R,0.0236X0.0866*%
%ADD11R,0.0160X0.0080*%
%ADD12R,0.0866X0.0236*%
%ADD13R,0.0800X0.0260*%
%ADD14R,0.0591X0.0512*%
%ADD15R,0.0512X0.0591*%
%ADD16R,0.0472X0.0472*%
D10*
X031384Y029195D03*
X031884Y029195D03*
X032384Y029195D03*
X032884Y029195D03*
X033384Y029195D03*
X033884Y029195D03*
X034384Y029195D03*
X034884Y029195D03*
X035384Y029195D03*
X035884Y029195D03*
X035884Y032817D03*
X035384Y032817D03*
X034884Y032817D03*
X034384Y032817D03*
X033884Y032817D03*
X033384Y032817D03*
X032884Y032817D03*
X032384Y032817D03*
X031884Y032817D03*
X031384Y032817D03*
X038884Y038482D03*
X039384Y038482D03*
X039884Y038482D03*
X040384Y038482D03*
X040384Y040530D03*
X039884Y040530D03*
X039384Y040530D03*
X038884Y040530D03*
X044884Y040530D03*
X045384Y040530D03*
X045884Y040530D03*
X046384Y040530D03*
X046384Y038482D03*
X045884Y038482D03*
X045384Y038482D03*
X044884Y038482D03*
X030884Y041482D03*
X030384Y041482D03*
X029884Y041482D03*
X029384Y041482D03*
X029384Y043530D03*
X029884Y043530D03*
X030384Y043530D03*
X030884Y043530D03*
X025384Y043530D03*
X024884Y043530D03*
X024384Y043530D03*
X023884Y043530D03*
X023884Y041482D03*
X024384Y041482D03*
X024884Y041482D03*
X025384Y041482D03*
D11*
X020646Y030390D03*
X020518Y030390D03*
X020518Y030134D03*
X020646Y030134D03*
X020646Y029878D03*
X020518Y029878D03*
X020518Y029622D03*
X020646Y029622D03*
X019751Y029622D03*
X019623Y029622D03*
X019623Y029878D03*
X019751Y029878D03*
X019751Y030134D03*
X019623Y030134D03*
X019623Y030390D03*
X019751Y030390D03*
D12*
X034111Y037256D03*
X034111Y037756D03*
X034111Y038256D03*
X034111Y038756D03*
X036158Y038756D03*
X036158Y038256D03*
X036158Y037756D03*
X036158Y037256D03*
X037158Y043256D03*
X037158Y043756D03*
X037158Y044256D03*
X037158Y044756D03*
X035111Y044756D03*
X035111Y044256D03*
X035111Y043756D03*
X035111Y043256D03*
X041611Y043256D03*
X041611Y043756D03*
X041611Y044256D03*
X041611Y044756D03*
X043658Y044756D03*
X043658Y044256D03*
X043658Y043756D03*
X043658Y043256D03*
D13*
X034844Y023256D03*
X034844Y022756D03*
X034844Y022256D03*
X034844Y021756D03*
X034844Y021256D03*
X034844Y020756D03*
X034844Y020256D03*
X034844Y019756D03*
X032424Y019756D03*
X032424Y020256D03*
X032424Y020756D03*
X032424Y021256D03*
X032424Y021756D03*
X032424Y022256D03*
X032424Y022756D03*
X032424Y023256D03*
X024344Y029006D03*
X024344Y029506D03*
X024344Y030006D03*
X024344Y030506D03*
X024344Y031006D03*
X024344Y031506D03*
X024344Y032006D03*
X021924Y032006D03*
X021924Y031506D03*
X021924Y031006D03*
X021924Y030506D03*
X021924Y030006D03*
X021924Y029506D03*
X021924Y029006D03*
X018344Y029006D03*
X018344Y029506D03*
X018344Y030006D03*
X018344Y030506D03*
X018344Y031006D03*
X018344Y031506D03*
X018344Y032006D03*
X015924Y032006D03*
X015924Y031506D03*
X015924Y031006D03*
X015924Y030506D03*
X015924Y030006D03*
X015924Y029506D03*
X015924Y029006D03*
D14*
X005134Y019132D03*
X005134Y019880D03*
X007134Y019880D03*
X007134Y019132D03*
X019634Y026632D03*
X019634Y027380D03*
X029134Y030632D03*
X029134Y031380D03*
X029134Y033632D03*
X029134Y034380D03*
X026634Y042132D03*
X026634Y042880D03*
X032134Y042880D03*
X032134Y042132D03*
D15*
X034760Y040006D03*
X035509Y040006D03*
X035760Y042006D03*
X036509Y042006D03*
X039260Y042006D03*
X040009Y042006D03*
X042260Y042006D03*
X043009Y042006D03*
X045260Y042006D03*
X046009Y042006D03*
X046009Y036506D03*
X045260Y036506D03*
X040009Y036506D03*
X039260Y036506D03*
X035509Y034506D03*
X034760Y034506D03*
X033509Y034506D03*
X032760Y034506D03*
X031509Y034506D03*
X030760Y034506D03*
X032760Y036006D03*
X033509Y036006D03*
X033260Y027506D03*
X034009Y027506D03*
X041760Y027506D03*
X042509Y027506D03*
X042509Y025506D03*
X041760Y025506D03*
X041760Y023506D03*
X042509Y023506D03*
X042509Y021506D03*
X041760Y021506D03*
X041760Y019506D03*
X042509Y019506D03*
X042509Y017506D03*
X041760Y017506D03*
X041760Y015506D03*
X042509Y015506D03*
X042509Y013506D03*
X041760Y013506D03*
X017509Y033006D03*
X016760Y033006D03*
D16*
X039221Y027506D03*
X040048Y027506D03*
X040048Y025506D03*
X039221Y025506D03*
X039221Y023506D03*
X040048Y023506D03*
X040048Y021506D03*
X039221Y021506D03*
X039221Y019506D03*
X040048Y019506D03*
X040048Y017506D03*
X039221Y017506D03*
X039221Y015506D03*
X040048Y015506D03*
X040048Y013506D03*
X039221Y013506D03*
M02*
