G75*
G70*
%OFA0B0*%
%FSLAX24Y24*%
%IPPOS*%
%LPD*%
%AMOC8*
5,1,8,0,0,1.08239X$1,22.5*
%
%ADD10C,0.0600*%
%ADD11C,0.0554*%
%ADD12C,0.1400*%
%ADD13C,0.1740*%
%ADD14C,0.0780*%
%ADD15C,0.0520*%
%ADD16OC8,0.1240*%
%ADD17C,0.1240*%
%ADD18C,0.0160*%
%ADD19C,0.0400*%
%ADD20C,0.0396*%
%ADD21C,0.0100*%
D10*
X007234Y013406D02*
X007234Y014006D01*
X008234Y014006D02*
X008234Y013406D01*
X009234Y013406D02*
X009234Y014006D01*
X010234Y014006D02*
X010234Y013406D01*
X011234Y013406D02*
X011234Y014006D01*
X012234Y014006D02*
X012234Y013406D01*
X013234Y013406D02*
X013234Y014006D01*
X014234Y014006D02*
X014234Y013406D01*
X015234Y013406D02*
X015234Y014006D01*
X016234Y014006D02*
X016234Y013406D01*
X017234Y013406D02*
X017234Y014006D01*
X018234Y014006D02*
X018234Y013406D01*
X019234Y013406D02*
X019234Y014006D01*
X020234Y014006D02*
X020234Y013406D01*
X021234Y013406D02*
X021234Y014006D01*
X022234Y014006D02*
X022234Y013406D01*
X022134Y016706D02*
X022134Y017306D01*
X021134Y017306D02*
X021134Y016706D01*
X020134Y016706D02*
X020134Y017306D01*
X019134Y017306D02*
X019134Y016706D01*
X018134Y016706D02*
X018134Y017306D01*
X017134Y017306D02*
X017134Y016706D01*
X017134Y019206D02*
X017134Y019806D01*
X016134Y019806D02*
X016134Y019206D01*
X015134Y019206D02*
X015134Y019806D01*
X014134Y019806D02*
X014134Y019206D01*
X013134Y019206D02*
X013134Y019806D01*
X012134Y019806D02*
X012134Y019206D01*
X010134Y017306D02*
X010134Y016706D01*
X009134Y016706D02*
X009134Y017306D01*
X008134Y017306D02*
X008134Y016706D01*
X007134Y016706D02*
X007134Y017306D01*
X007834Y023006D02*
X008434Y023006D01*
X008434Y024006D02*
X007834Y024006D01*
X007834Y025006D02*
X008434Y025006D01*
X008434Y026006D02*
X007834Y026006D01*
X005434Y026006D02*
X004834Y026006D01*
X004834Y025006D02*
X005434Y025006D01*
X005434Y024006D02*
X004834Y024006D01*
X004834Y023006D02*
X005434Y023006D01*
X005434Y029506D02*
X004834Y029506D01*
X004834Y030506D02*
X005434Y030506D01*
X005434Y031506D02*
X004834Y031506D01*
X004834Y032506D02*
X005434Y032506D01*
X007834Y032506D02*
X008434Y032506D01*
X008434Y031506D02*
X007834Y031506D01*
X007834Y030506D02*
X008434Y030506D01*
X008434Y029506D02*
X007834Y029506D01*
X007834Y036006D02*
X008434Y036006D01*
X008434Y037006D02*
X007834Y037006D01*
X007834Y038006D02*
X008434Y038006D01*
X008434Y039006D02*
X007834Y039006D01*
X005434Y039006D02*
X004834Y039006D01*
X004834Y038006D02*
X005434Y038006D01*
X005434Y037006D02*
X004834Y037006D01*
X004834Y036006D02*
X005434Y036006D01*
X012134Y038206D02*
X012134Y038806D01*
X013134Y038806D02*
X013134Y038206D01*
X014134Y038206D02*
X014134Y038806D01*
X015134Y038806D02*
X015134Y038206D01*
X016134Y038206D02*
X016134Y038806D01*
X017134Y038806D02*
X017134Y038206D01*
X019134Y038206D02*
X019134Y038806D01*
X020134Y038806D02*
X020134Y038206D01*
X021134Y038206D02*
X021134Y038806D01*
X022134Y038806D02*
X022134Y038206D01*
X023134Y038206D02*
X023134Y038806D01*
X024134Y038806D02*
X024134Y038206D01*
X020634Y041206D02*
X020634Y041806D01*
X019634Y041806D02*
X019634Y041206D01*
X017134Y041206D02*
X017134Y041806D01*
X016134Y041806D02*
X016134Y041206D01*
X015634Y046206D02*
X015634Y046806D01*
X014634Y046806D02*
X014634Y046206D01*
X013634Y046206D02*
X013634Y046806D01*
X013634Y048706D02*
X013634Y049306D01*
X014634Y049306D02*
X014634Y048706D01*
X015634Y048706D02*
X015634Y049306D01*
X016634Y049306D02*
X016634Y048706D01*
X016634Y046806D02*
X016634Y046206D01*
X021634Y046206D02*
X021634Y046806D01*
X022634Y046806D02*
X022634Y046206D01*
X023634Y046206D02*
X023634Y046806D01*
X024634Y046806D02*
X024634Y046206D01*
X024634Y048706D02*
X024634Y049306D01*
X023634Y049306D02*
X023634Y048706D01*
X022634Y048706D02*
X022634Y049306D01*
X021634Y049306D02*
X021634Y048706D01*
X028134Y048706D02*
X028134Y049306D01*
X029134Y049306D02*
X029134Y048706D01*
X030134Y048706D02*
X030134Y049306D01*
X031134Y049306D02*
X031134Y048706D01*
X031134Y046806D02*
X031134Y046206D01*
X030134Y046206D02*
X030134Y046806D01*
X029134Y046806D02*
X029134Y046206D01*
X028134Y046206D02*
X028134Y046806D01*
X036134Y046806D02*
X036134Y046206D01*
X037134Y046206D02*
X037134Y046806D01*
X038134Y046806D02*
X038134Y046206D01*
X039134Y046206D02*
X039134Y046806D01*
X039134Y048706D02*
X039134Y049306D01*
X038134Y049306D02*
X038134Y048706D01*
X037134Y048706D02*
X037134Y049306D01*
X036134Y049306D02*
X036134Y048706D01*
X042634Y048706D02*
X042634Y049306D01*
X043634Y049306D02*
X043634Y048706D01*
X044634Y048706D02*
X044634Y049306D01*
X045634Y049306D02*
X045634Y048706D01*
X045634Y046806D02*
X045634Y046206D01*
X044634Y046206D02*
X044634Y046806D01*
X043634Y046806D02*
X043634Y046206D01*
X042634Y046206D02*
X042634Y046806D01*
X039434Y033506D02*
X038834Y033506D01*
X038834Y032506D02*
X039434Y032506D01*
X039434Y031506D02*
X038834Y031506D01*
X038834Y030506D02*
X039434Y030506D01*
X039434Y029506D02*
X038834Y029506D01*
X027734Y019806D02*
X027734Y019206D01*
X026734Y019206D02*
X026734Y019806D01*
X025734Y019806D02*
X025734Y019206D01*
X024734Y019206D02*
X024734Y019806D01*
X023734Y019806D02*
X023734Y019206D01*
X022734Y019206D02*
X022734Y019806D01*
X021734Y019806D02*
X021734Y019206D01*
X020734Y019206D02*
X020734Y019806D01*
X019134Y019806D02*
X019134Y019206D01*
X018134Y019206D02*
X018134Y019806D01*
X023134Y017306D02*
X023134Y016706D01*
X024134Y016706D02*
X024134Y017306D01*
X025134Y017306D02*
X025134Y016706D01*
X008134Y049706D02*
X008134Y050306D01*
X007134Y050306D02*
X007134Y049706D01*
D11*
X044634Y029783D02*
X044634Y029229D01*
X044634Y027283D02*
X044634Y026729D01*
X046509Y026729D02*
X046509Y027283D01*
X046509Y029229D02*
X046509Y029783D01*
X046509Y024283D02*
X046509Y023729D01*
X046509Y021783D02*
X046509Y021229D01*
X044634Y021229D02*
X044634Y021783D01*
X044634Y023729D02*
X044634Y024283D01*
X044634Y018783D02*
X044634Y018229D01*
X044634Y016283D02*
X044634Y015729D01*
X046509Y015729D02*
X046509Y016283D01*
X046509Y018229D02*
X046509Y018783D01*
D12*
X005134Y001506D03*
X005134Y013706D03*
X034634Y013706D03*
X034634Y001506D03*
D13*
X001634Y022506D03*
X001634Y026506D03*
X001634Y029006D03*
X001634Y033006D03*
X001634Y035506D03*
X001634Y039506D03*
X013134Y052506D03*
X017134Y052506D03*
X021134Y052506D03*
X025134Y052506D03*
X027634Y052506D03*
X031634Y052506D03*
X035634Y052506D03*
X039634Y052506D03*
X042134Y052506D03*
X046134Y052506D03*
D14*
X033134Y040896D02*
X033134Y040116D01*
D15*
X037374Y024506D02*
X037894Y024506D01*
X037894Y023506D02*
X037374Y023506D01*
X037374Y022506D02*
X037894Y022506D01*
X037894Y021506D02*
X037374Y021506D01*
X037374Y020506D02*
X037894Y020506D01*
X037894Y019506D02*
X037374Y019506D01*
X037374Y018506D02*
X037894Y018506D01*
X037894Y017506D02*
X037374Y017506D01*
D16*
X006634Y045006D03*
D17*
X009634Y045006D03*
D18*
X008254Y049086D02*
X007934Y049086D01*
X007134Y049886D01*
X007134Y050006D01*
X008254Y049086D02*
X009054Y049886D01*
X015774Y049886D01*
X016574Y049086D01*
X016634Y049006D01*
X013634Y046506D02*
X013694Y046366D01*
X013694Y042846D01*
X015934Y040606D01*
X016574Y040606D01*
X018974Y038206D01*
X019134Y038506D01*
X019134Y038366D01*
X019934Y037566D01*
X022654Y037566D01*
X022654Y029086D01*
X030494Y029086D01*
X032254Y027326D01*
X033854Y026686D02*
X034334Y026206D01*
X045694Y026206D01*
X046494Y027006D01*
X046509Y027006D01*
X045214Y025406D02*
X046494Y024126D01*
X046509Y024006D01*
X045214Y025406D02*
X034654Y025406D01*
X033694Y024446D01*
X011614Y024446D01*
X011614Y021086D01*
X011934Y020766D01*
X015134Y020766D01*
X015134Y019506D01*
X014134Y019506D02*
X014014Y019646D01*
X013214Y020446D01*
X011774Y020446D01*
X010014Y022206D01*
X010014Y026686D01*
X033854Y026686D01*
X034814Y024926D02*
X033854Y023966D01*
X021534Y023966D01*
X019774Y022206D01*
X019614Y021726D02*
X017374Y023966D01*
X019614Y021726D02*
X033214Y021726D01*
X033214Y022206D02*
X028414Y022206D01*
X026974Y023486D02*
X026654Y023166D01*
X021374Y023166D01*
X020414Y022206D01*
X020094Y021246D02*
X012094Y021246D01*
X016134Y019506D02*
X016254Y019486D01*
X016254Y018686D01*
X019454Y018686D01*
X020094Y019326D01*
X020094Y020446D01*
X025054Y020446D01*
X025534Y020926D01*
X036254Y020926D01*
X037214Y019966D01*
X045054Y019966D01*
X046494Y018526D01*
X046509Y018506D01*
X044634Y018506D02*
X044574Y018366D01*
X044254Y018046D01*
X026654Y018046D01*
X026654Y019486D01*
X026734Y019506D01*
X025854Y019486D02*
X025734Y019506D01*
X025854Y019486D02*
X025054Y018686D01*
X024734Y018686D01*
X023134Y017086D01*
X023134Y017006D01*
X024094Y017086D02*
X024134Y017006D01*
X024094Y016926D01*
X024094Y015486D01*
X022334Y013726D01*
X022234Y013706D01*
X022174Y013566D01*
X021374Y012766D01*
X012094Y012766D01*
X011294Y013566D01*
X011234Y013706D01*
X011294Y013726D01*
X010494Y014526D01*
X010174Y014526D01*
X007934Y014526D01*
X007134Y013726D01*
X007234Y013706D01*
X010174Y014526D02*
X010174Y016926D01*
X010134Y017006D01*
X008134Y017006D02*
X008094Y017086D01*
X006494Y018686D01*
X005134Y025006D02*
X005054Y025086D01*
X004254Y025086D01*
X004254Y039166D01*
X004734Y039646D01*
X017054Y039646D01*
X017054Y038526D01*
X017134Y038506D01*
X016134Y038506D02*
X016094Y038366D01*
X016094Y031646D01*
X008254Y031646D01*
X008134Y031506D01*
X008094Y031486D01*
X005214Y031486D01*
X005134Y031506D01*
X005134Y032506D02*
X005214Y032606D01*
X008094Y032606D01*
X008134Y032506D01*
X008094Y029566D02*
X005214Y029566D01*
X005134Y029506D01*
X008094Y029566D02*
X008134Y029506D01*
X009214Y027006D02*
X008254Y026046D01*
X008134Y026006D01*
X008094Y026046D01*
X005214Y026046D01*
X005134Y026006D01*
X005214Y025086D02*
X005134Y025006D01*
X005214Y025086D02*
X008094Y025086D01*
X008134Y025006D01*
X009214Y027006D02*
X017214Y027006D01*
X017214Y027166D01*
X017214Y027006D02*
X018014Y027006D01*
X018334Y027326D01*
X020574Y030846D02*
X020574Y031806D01*
X021054Y030526D02*
X021054Y034686D01*
X022654Y037566D02*
X022654Y037886D01*
X022974Y037566D01*
X024414Y037566D01*
X025534Y036446D01*
X026494Y037406D01*
X025534Y036446D02*
X027774Y034206D01*
X036094Y034206D01*
X038174Y034206D01*
X039774Y035806D01*
X040094Y035806D01*
X044094Y039806D01*
X045534Y041406D02*
X045534Y037726D01*
X046334Y037726D01*
X046654Y037406D01*
X046654Y036126D01*
X041694Y036126D01*
X039134Y033566D01*
X039134Y033506D01*
X039134Y033566D02*
X034494Y033566D01*
X034334Y033726D01*
X033214Y031966D02*
X031614Y033566D01*
X033214Y030046D02*
X033054Y029886D01*
X027934Y029886D01*
X027294Y029406D02*
X034334Y029406D01*
X036254Y027486D01*
X039134Y031506D02*
X039134Y031646D01*
X039614Y031646D01*
X043614Y035646D01*
X038814Y037726D02*
X037054Y039486D01*
X032894Y039486D01*
X030174Y042206D01*
X030174Y046366D01*
X030134Y046506D01*
X034494Y041886D02*
X033214Y040606D01*
X033134Y040506D01*
X034494Y041886D02*
X038814Y041886D01*
X040734Y043806D01*
X041054Y041566D02*
X035454Y041566D01*
X035294Y041406D01*
X030814Y040606D02*
X030174Y039966D01*
X025694Y039966D01*
X025054Y040606D02*
X030014Y040606D01*
X027774Y034206D02*
X028254Y033726D01*
X025214Y031486D02*
X027294Y029406D01*
X022334Y022686D02*
X037374Y022686D01*
X037534Y022526D01*
X037634Y022506D01*
X026654Y018046D02*
X026654Y017886D01*
X024894Y017886D01*
X024094Y017086D01*
X025134Y017006D02*
X025214Y016926D01*
X025214Y014526D01*
X023934Y018686D02*
X021214Y018686D01*
X021214Y017086D01*
X021134Y017006D01*
X020094Y016126D02*
X017854Y016126D01*
X017054Y016926D01*
X017134Y017006D01*
X017054Y017086D01*
X017854Y017886D01*
X019134Y017886D01*
X020734Y019486D01*
X020734Y019506D01*
X019934Y020766D02*
X019134Y019966D01*
X019134Y019506D01*
X019934Y020766D02*
X024254Y020766D01*
X024414Y020926D01*
X024734Y019506D02*
X024734Y019486D01*
X023934Y018686D01*
X020094Y016126D02*
X020094Y013726D01*
X020234Y013706D01*
X016894Y036126D02*
X018974Y038206D01*
X019134Y038366D01*
X019294Y039326D02*
X019454Y039326D01*
X020254Y038526D01*
X020134Y038506D01*
X019294Y039326D02*
X017214Y041406D01*
X017134Y041506D01*
X015134Y038506D02*
X015134Y038366D01*
X014334Y037566D01*
X011614Y037566D01*
X011294Y037886D01*
X008254Y037886D01*
X008134Y038006D01*
X008094Y038046D01*
X005214Y038046D01*
X005134Y038006D01*
X005214Y036126D02*
X005134Y036006D01*
X005214Y036126D02*
X008094Y036126D01*
X008134Y036006D01*
X020634Y041506D02*
X022814Y039326D01*
X023454Y039326D01*
X024254Y038526D01*
X024134Y038506D01*
X022654Y037886D02*
X022174Y038366D01*
X022134Y038506D01*
X042814Y044126D02*
X045534Y041406D01*
D19*
X044094Y039806D03*
X045534Y037726D03*
X043614Y035646D03*
X039774Y035806D03*
X038814Y037726D03*
X036094Y034206D03*
X034334Y033726D03*
X033214Y031966D03*
X033214Y030046D03*
X032254Y027326D03*
X034814Y024926D03*
X036254Y027486D03*
X033214Y022206D03*
X033214Y021726D03*
X028414Y022206D03*
X026974Y023486D03*
X024414Y020926D03*
X022334Y022686D03*
X020414Y022206D03*
X019774Y022206D03*
X020094Y021246D03*
X017374Y023966D03*
X017214Y027166D03*
X018334Y027326D03*
X020574Y030846D03*
X021054Y030526D03*
X020574Y031806D03*
X022654Y029086D03*
X025214Y031486D03*
X027934Y029886D03*
X028254Y033726D03*
X031614Y033566D03*
X026494Y037406D03*
X025694Y039966D03*
X025054Y040606D03*
X030014Y040606D03*
X030814Y040606D03*
X035294Y041406D03*
X040734Y043806D03*
X041054Y041566D03*
X042814Y044126D03*
X021054Y034686D03*
X016894Y036126D03*
X012094Y021246D03*
X006494Y018686D03*
X025214Y014526D03*
D20*
X019734Y030856D03*
X019734Y030856D03*
D21*
X019734Y028756D01*
X021534Y026956D01*
X035724Y026956D01*
X036254Y027486D01*
M02*
