%
M48
M72
T01C0.0236
T02C0.0240
T03C0.0320
T04C0.0354
T05C0.0400
T06C0.0520
T07C0.1000
T08C0.1260
%
T01
X16872Y19951
X16872Y19951
T02
X17712Y19941
X18192Y19621
X19792Y18181
X22352Y20581
X25072Y18981
X25392Y22821
X28752Y22661
X30352Y21061
X31472Y22821
X33232Y23301
X36912Y24901
X35952Y26821
X38192Y30661
X37872Y32901
X39952Y33221
X41232Y28901
X42672Y26821
X40752Y24741
X32432Y30501
X27952Y29701
X27152Y29701
X23632Y26501
X22832Y29061
X22192Y29701
X18192Y23781
X17712Y20901
X14032Y25221
X15472Y16421
X14352Y16261
X14512Y13061
X16912Y11301
X17552Y11301
X17232Y10341
X19472Y11781
X21552Y10021
X24112Y12581
X25552Y11301
X30352Y11301
X30352Y10821
X31952Y14021
X29392Y16421
X30352Y19141
X33392Y16581
X22352Y3621
X9232Y10341
X3632Y7781
T03
X34772Y7601
X34772Y6601
X34772Y8601
X34772Y9601
X34772Y10601
X34772Y11601
X34772Y12601
X34772Y13601
T04
X41772Y13101
X43647Y13101
X43647Y10601
X41772Y10601
X41772Y7601
X43647Y7601
X43647Y5101
X41772Y5101
X41772Y16101
X43647Y16101
X43647Y18601
X41772Y18601
T05
X36272Y18601
X36272Y19601
X36272Y20601
X36272Y21601
X36272Y22601
X36272Y35601
X35272Y35601
X34272Y35601
X33272Y35601
X33272Y38101
X34272Y38101
X35272Y38101
X36272Y38101
X39772Y38101
X40772Y38101
X41772Y38101
X42772Y38101
X42772Y35601
X41772Y35601
X40772Y35601
X39772Y35601
X28272Y35601
X27272Y35601
X26272Y35601
X25272Y35601
X25272Y38101
X26272Y38101
X27272Y38101
X28272Y38101
X21772Y38101
X20772Y38101
X19772Y38101
X18772Y38101
X18772Y35601
X19772Y35601
X20772Y35601
X21772Y35601
X17772Y30601
X16772Y30601
X14272Y30601
X13272Y30601
X13272Y27601
X12272Y27601
X11272Y27601
X10272Y27601
X9272Y27601
X5272Y28101
X5272Y27101
X5272Y26101
X5272Y25101
X2272Y25101
X2272Y26101
X2272Y27101
X2272Y28101
X3772Y34101
X6772Y34101
X10772Y35601
X11772Y35601
X12772Y35601
X13772Y35601
X13772Y38101
X12772Y38101
X11772Y38101
X10772Y38101
X5272Y39101
X4272Y39101
X14272Y27601
X16272Y27601
X17272Y27601
X18272Y27601
X19272Y27601
X20272Y27601
X21272Y27601
X5272Y21601
X5272Y20601
X5272Y19601
X5272Y18601
X2272Y18601
X2272Y19601
X2272Y20601
X2272Y21601
X2272Y15101
X2272Y14101
X2272Y13101
X2272Y12101
X5272Y12101
X5272Y13101
X5272Y14101
X5272Y15101
X9272Y8601
X10272Y8601
X11272Y8601
X12272Y8601
X13272Y8601
X14272Y8601
X15272Y8601
X16272Y8601
X17872Y8601
X18872Y8601
X19872Y8601
X20872Y8601
X21872Y8601
X22872Y8601
X23872Y8601
X24872Y8601
X22272Y6101
X21272Y6101
X20272Y6101
X19272Y6101
X18272Y6101
X17272Y6101
X16272Y6101
X15272Y6101
X14272Y6101
X14372Y2801
X13372Y2801
X12372Y2801
X11372Y2801
X10372Y2801
X9372Y2801
X8372Y2801
X7372Y2801
X6372Y2801
X5372Y2801
X4372Y2801
X4272Y6101
X5272Y6101
X6272Y6101
X7272Y6101
X15372Y2801
X16372Y2801
X17372Y2801
X18372Y2801
X19372Y2801
T06
X30272Y29601
T07
X2272Y2801
X31772Y2801
T08
X42772Y2101
X30772Y35601
X1772Y38601
X1772Y5601
M30
