G75*
G70*
%OFA0B0*%
%FSLAX24Y24*%
%IPPOS*%
%LPD*%
%AMOC8*
5,1,8,0,0,1.08239X$1,22.5*
%
%ADD10C,0.0000*%
%ADD11R,0.0236X0.0866*%
%ADD12R,0.0160X0.0080*%
%ADD13R,0.0866X0.0236*%
%ADD14C,0.0600*%
%ADD15R,0.0800X0.0260*%
%ADD16C,0.0554*%
%ADD17C,0.1400*%
%ADD18C,0.1740*%
%ADD19R,0.0591X0.0512*%
%ADD20R,0.0512X0.0591*%
%ADD21C,0.0780*%
%ADD22C,0.0520*%
%ADD23R,0.0472X0.0472*%
%ADD24OC8,0.1240*%
%ADD25C,0.1240*%
%ADD26C,0.0160*%
%ADD27C,0.0400*%
%ADD28C,0.0100*%
%ADD29C,0.0396*%
D10*
X003134Y011006D02*
X003134Y050876D01*
X047627Y050876D01*
X047627Y011006D01*
X003134Y011006D01*
X004004Y016506D02*
X004006Y016556D01*
X004012Y016606D01*
X004022Y016655D01*
X004036Y016703D01*
X004053Y016750D01*
X004074Y016795D01*
X004099Y016839D01*
X004127Y016880D01*
X004159Y016919D01*
X004193Y016956D01*
X004230Y016990D01*
X004270Y017020D01*
X004312Y017047D01*
X004356Y017071D01*
X004402Y017092D01*
X004449Y017108D01*
X004497Y017121D01*
X004547Y017130D01*
X004596Y017135D01*
X004647Y017136D01*
X004697Y017133D01*
X004746Y017126D01*
X004795Y017115D01*
X004843Y017100D01*
X004889Y017082D01*
X004934Y017060D01*
X004977Y017034D01*
X005018Y017005D01*
X005057Y016973D01*
X005093Y016938D01*
X005125Y016900D01*
X005155Y016860D01*
X005182Y016817D01*
X005205Y016773D01*
X005224Y016727D01*
X005240Y016679D01*
X005252Y016630D01*
X005260Y016581D01*
X005264Y016531D01*
X005264Y016481D01*
X005260Y016431D01*
X005252Y016382D01*
X005240Y016333D01*
X005224Y016285D01*
X005205Y016239D01*
X005182Y016195D01*
X005155Y016152D01*
X005125Y016112D01*
X005093Y016074D01*
X005057Y016039D01*
X005018Y016007D01*
X004977Y015978D01*
X004934Y015952D01*
X004889Y015930D01*
X004843Y015912D01*
X004795Y015897D01*
X004746Y015886D01*
X004697Y015879D01*
X004647Y015876D01*
X004596Y015877D01*
X004547Y015882D01*
X004497Y015891D01*
X004449Y015904D01*
X004402Y015920D01*
X004356Y015941D01*
X004312Y015965D01*
X004270Y015992D01*
X004230Y016022D01*
X004193Y016056D01*
X004159Y016093D01*
X004127Y016132D01*
X004099Y016173D01*
X004074Y016217D01*
X004053Y016262D01*
X004036Y016309D01*
X004022Y016357D01*
X004012Y016406D01*
X004006Y016456D01*
X004004Y016506D01*
X010504Y025506D02*
X010506Y025556D01*
X010512Y025606D01*
X010522Y025655D01*
X010536Y025703D01*
X010553Y025750D01*
X010574Y025795D01*
X010599Y025839D01*
X010627Y025880D01*
X010659Y025919D01*
X010693Y025956D01*
X010730Y025990D01*
X010770Y026020D01*
X010812Y026047D01*
X010856Y026071D01*
X010902Y026092D01*
X010949Y026108D01*
X010997Y026121D01*
X011047Y026130D01*
X011096Y026135D01*
X011147Y026136D01*
X011197Y026133D01*
X011246Y026126D01*
X011295Y026115D01*
X011343Y026100D01*
X011389Y026082D01*
X011434Y026060D01*
X011477Y026034D01*
X011518Y026005D01*
X011557Y025973D01*
X011593Y025938D01*
X011625Y025900D01*
X011655Y025860D01*
X011682Y025817D01*
X011705Y025773D01*
X011724Y025727D01*
X011740Y025679D01*
X011752Y025630D01*
X011760Y025581D01*
X011764Y025531D01*
X011764Y025481D01*
X011760Y025431D01*
X011752Y025382D01*
X011740Y025333D01*
X011724Y025285D01*
X011705Y025239D01*
X011682Y025195D01*
X011655Y025152D01*
X011625Y025112D01*
X011593Y025074D01*
X011557Y025039D01*
X011518Y025007D01*
X011477Y024978D01*
X011434Y024952D01*
X011389Y024930D01*
X011343Y024912D01*
X011295Y024897D01*
X011246Y024886D01*
X011197Y024879D01*
X011147Y024876D01*
X011096Y024877D01*
X011047Y024882D01*
X010997Y024891D01*
X010949Y024904D01*
X010902Y024920D01*
X010856Y024941D01*
X010812Y024965D01*
X010770Y024992D01*
X010730Y025022D01*
X010693Y025056D01*
X010659Y025093D01*
X010627Y025132D01*
X010599Y025173D01*
X010574Y025217D01*
X010553Y025262D01*
X010536Y025309D01*
X010522Y025357D01*
X010512Y025406D01*
X010506Y025456D01*
X010504Y025506D01*
X015020Y028831D02*
X015022Y028870D01*
X015028Y028909D01*
X015038Y028947D01*
X015051Y028984D01*
X015068Y029019D01*
X015088Y029053D01*
X015112Y029084D01*
X015139Y029113D01*
X015168Y029139D01*
X015200Y029162D01*
X015234Y029182D01*
X015270Y029198D01*
X015307Y029210D01*
X015346Y029219D01*
X015385Y029224D01*
X015424Y029225D01*
X015463Y029222D01*
X015502Y029215D01*
X015539Y029204D01*
X015576Y029190D01*
X015611Y029172D01*
X015644Y029151D01*
X015675Y029126D01*
X015703Y029099D01*
X015728Y029069D01*
X015750Y029036D01*
X015769Y029002D01*
X015784Y028966D01*
X015796Y028928D01*
X015804Y028890D01*
X015808Y028851D01*
X015808Y028811D01*
X015804Y028772D01*
X015796Y028734D01*
X015784Y028696D01*
X015769Y028660D01*
X015750Y028626D01*
X015728Y028593D01*
X015703Y028563D01*
X015675Y028536D01*
X015644Y028511D01*
X015611Y028490D01*
X015576Y028472D01*
X015539Y028458D01*
X015502Y028447D01*
X015463Y028440D01*
X015424Y028437D01*
X015385Y028438D01*
X015346Y028443D01*
X015307Y028452D01*
X015270Y028464D01*
X015234Y028480D01*
X015200Y028500D01*
X015168Y028523D01*
X015139Y028549D01*
X015112Y028578D01*
X015088Y028609D01*
X015068Y028643D01*
X015051Y028678D01*
X015038Y028715D01*
X015028Y028753D01*
X015022Y028792D01*
X015020Y028831D01*
X010504Y036506D02*
X010506Y036556D01*
X010512Y036606D01*
X010522Y036655D01*
X010536Y036703D01*
X010553Y036750D01*
X010574Y036795D01*
X010599Y036839D01*
X010627Y036880D01*
X010659Y036919D01*
X010693Y036956D01*
X010730Y036990D01*
X010770Y037020D01*
X010812Y037047D01*
X010856Y037071D01*
X010902Y037092D01*
X010949Y037108D01*
X010997Y037121D01*
X011047Y037130D01*
X011096Y037135D01*
X011147Y037136D01*
X011197Y037133D01*
X011246Y037126D01*
X011295Y037115D01*
X011343Y037100D01*
X011389Y037082D01*
X011434Y037060D01*
X011477Y037034D01*
X011518Y037005D01*
X011557Y036973D01*
X011593Y036938D01*
X011625Y036900D01*
X011655Y036860D01*
X011682Y036817D01*
X011705Y036773D01*
X011724Y036727D01*
X011740Y036679D01*
X011752Y036630D01*
X011760Y036581D01*
X011764Y036531D01*
X011764Y036481D01*
X011760Y036431D01*
X011752Y036382D01*
X011740Y036333D01*
X011724Y036285D01*
X011705Y036239D01*
X011682Y036195D01*
X011655Y036152D01*
X011625Y036112D01*
X011593Y036074D01*
X011557Y036039D01*
X011518Y036007D01*
X011477Y035978D01*
X011434Y035952D01*
X011389Y035930D01*
X011343Y035912D01*
X011295Y035897D01*
X011246Y035886D01*
X011197Y035879D01*
X011147Y035876D01*
X011096Y035877D01*
X011047Y035882D01*
X010997Y035891D01*
X010949Y035904D01*
X010902Y035920D01*
X010856Y035941D01*
X010812Y035965D01*
X010770Y035992D01*
X010730Y036022D01*
X010693Y036056D01*
X010659Y036093D01*
X010627Y036132D01*
X010599Y036173D01*
X010574Y036217D01*
X010553Y036262D01*
X010536Y036309D01*
X010522Y036357D01*
X010512Y036406D01*
X010506Y036456D01*
X010504Y036506D01*
X004004Y049506D02*
X004006Y049556D01*
X004012Y049606D01*
X004022Y049655D01*
X004036Y049703D01*
X004053Y049750D01*
X004074Y049795D01*
X004099Y049839D01*
X004127Y049880D01*
X004159Y049919D01*
X004193Y049956D01*
X004230Y049990D01*
X004270Y050020D01*
X004312Y050047D01*
X004356Y050071D01*
X004402Y050092D01*
X004449Y050108D01*
X004497Y050121D01*
X004547Y050130D01*
X004596Y050135D01*
X004647Y050136D01*
X004697Y050133D01*
X004746Y050126D01*
X004795Y050115D01*
X004843Y050100D01*
X004889Y050082D01*
X004934Y050060D01*
X004977Y050034D01*
X005018Y050005D01*
X005057Y049973D01*
X005093Y049938D01*
X005125Y049900D01*
X005155Y049860D01*
X005182Y049817D01*
X005205Y049773D01*
X005224Y049727D01*
X005240Y049679D01*
X005252Y049630D01*
X005260Y049581D01*
X005264Y049531D01*
X005264Y049481D01*
X005260Y049431D01*
X005252Y049382D01*
X005240Y049333D01*
X005224Y049285D01*
X005205Y049239D01*
X005182Y049195D01*
X005155Y049152D01*
X005125Y049112D01*
X005093Y049074D01*
X005057Y049039D01*
X005018Y049007D01*
X004977Y048978D01*
X004934Y048952D01*
X004889Y048930D01*
X004843Y048912D01*
X004795Y048897D01*
X004746Y048886D01*
X004697Y048879D01*
X004647Y048876D01*
X004596Y048877D01*
X004547Y048882D01*
X004497Y048891D01*
X004449Y048904D01*
X004402Y048920D01*
X004356Y048941D01*
X004312Y048965D01*
X004270Y048992D01*
X004230Y049022D01*
X004193Y049056D01*
X004159Y049093D01*
X004127Y049132D01*
X004099Y049173D01*
X004074Y049217D01*
X004053Y049262D01*
X004036Y049309D01*
X004022Y049357D01*
X004012Y049406D01*
X004006Y049456D01*
X004004Y049506D01*
X030504Y019506D02*
X030506Y019556D01*
X030512Y019606D01*
X030522Y019655D01*
X030536Y019703D01*
X030553Y019750D01*
X030574Y019795D01*
X030599Y019839D01*
X030627Y019880D01*
X030659Y019919D01*
X030693Y019956D01*
X030730Y019990D01*
X030770Y020020D01*
X030812Y020047D01*
X030856Y020071D01*
X030902Y020092D01*
X030949Y020108D01*
X030997Y020121D01*
X031047Y020130D01*
X031096Y020135D01*
X031147Y020136D01*
X031197Y020133D01*
X031246Y020126D01*
X031295Y020115D01*
X031343Y020100D01*
X031389Y020082D01*
X031434Y020060D01*
X031477Y020034D01*
X031518Y020005D01*
X031557Y019973D01*
X031593Y019938D01*
X031625Y019900D01*
X031655Y019860D01*
X031682Y019817D01*
X031705Y019773D01*
X031724Y019727D01*
X031740Y019679D01*
X031752Y019630D01*
X031760Y019581D01*
X031764Y019531D01*
X031764Y019481D01*
X031760Y019431D01*
X031752Y019382D01*
X031740Y019333D01*
X031724Y019285D01*
X031705Y019239D01*
X031682Y019195D01*
X031655Y019152D01*
X031625Y019112D01*
X031593Y019074D01*
X031557Y019039D01*
X031518Y019007D01*
X031477Y018978D01*
X031434Y018952D01*
X031389Y018930D01*
X031343Y018912D01*
X031295Y018897D01*
X031246Y018886D01*
X031197Y018879D01*
X031147Y018876D01*
X031096Y018877D01*
X031047Y018882D01*
X030997Y018891D01*
X030949Y018904D01*
X030902Y018920D01*
X030856Y018941D01*
X030812Y018965D01*
X030770Y018992D01*
X030730Y019022D01*
X030693Y019056D01*
X030659Y019093D01*
X030627Y019132D01*
X030599Y019173D01*
X030574Y019217D01*
X030553Y019262D01*
X030536Y019309D01*
X030522Y019357D01*
X030512Y019406D01*
X030506Y019456D01*
X030504Y019506D01*
X045004Y013006D02*
X045006Y013056D01*
X045012Y013106D01*
X045022Y013155D01*
X045036Y013203D01*
X045053Y013250D01*
X045074Y013295D01*
X045099Y013339D01*
X045127Y013380D01*
X045159Y013419D01*
X045193Y013456D01*
X045230Y013490D01*
X045270Y013520D01*
X045312Y013547D01*
X045356Y013571D01*
X045402Y013592D01*
X045449Y013608D01*
X045497Y013621D01*
X045547Y013630D01*
X045596Y013635D01*
X045647Y013636D01*
X045697Y013633D01*
X045746Y013626D01*
X045795Y013615D01*
X045843Y013600D01*
X045889Y013582D01*
X045934Y013560D01*
X045977Y013534D01*
X046018Y013505D01*
X046057Y013473D01*
X046093Y013438D01*
X046125Y013400D01*
X046155Y013360D01*
X046182Y013317D01*
X046205Y013273D01*
X046224Y013227D01*
X046240Y013179D01*
X046252Y013130D01*
X046260Y013081D01*
X046264Y013031D01*
X046264Y012981D01*
X046260Y012931D01*
X046252Y012882D01*
X046240Y012833D01*
X046224Y012785D01*
X046205Y012739D01*
X046182Y012695D01*
X046155Y012652D01*
X046125Y012612D01*
X046093Y012574D01*
X046057Y012539D01*
X046018Y012507D01*
X045977Y012478D01*
X045934Y012452D01*
X045889Y012430D01*
X045843Y012412D01*
X045795Y012397D01*
X045746Y012386D01*
X045697Y012379D01*
X045647Y012376D01*
X045596Y012377D01*
X045547Y012382D01*
X045497Y012391D01*
X045449Y012404D01*
X045402Y012420D01*
X045356Y012441D01*
X045312Y012465D01*
X045270Y012492D01*
X045230Y012522D01*
X045193Y012556D01*
X045159Y012593D01*
X045127Y012632D01*
X045099Y012673D01*
X045074Y012717D01*
X045053Y012762D01*
X045036Y012809D01*
X045022Y012857D01*
X045012Y012906D01*
X045006Y012956D01*
X045004Y013006D01*
X033004Y046506D02*
X033006Y046556D01*
X033012Y046606D01*
X033022Y046655D01*
X033036Y046703D01*
X033053Y046750D01*
X033074Y046795D01*
X033099Y046839D01*
X033127Y046880D01*
X033159Y046919D01*
X033193Y046956D01*
X033230Y046990D01*
X033270Y047020D01*
X033312Y047047D01*
X033356Y047071D01*
X033402Y047092D01*
X033449Y047108D01*
X033497Y047121D01*
X033547Y047130D01*
X033596Y047135D01*
X033647Y047136D01*
X033697Y047133D01*
X033746Y047126D01*
X033795Y047115D01*
X033843Y047100D01*
X033889Y047082D01*
X033934Y047060D01*
X033977Y047034D01*
X034018Y047005D01*
X034057Y046973D01*
X034093Y046938D01*
X034125Y046900D01*
X034155Y046860D01*
X034182Y046817D01*
X034205Y046773D01*
X034224Y046727D01*
X034240Y046679D01*
X034252Y046630D01*
X034260Y046581D01*
X034264Y046531D01*
X034264Y046481D01*
X034260Y046431D01*
X034252Y046382D01*
X034240Y046333D01*
X034224Y046285D01*
X034205Y046239D01*
X034182Y046195D01*
X034155Y046152D01*
X034125Y046112D01*
X034093Y046074D01*
X034057Y046039D01*
X034018Y046007D01*
X033977Y045978D01*
X033934Y045952D01*
X033889Y045930D01*
X033843Y045912D01*
X033795Y045897D01*
X033746Y045886D01*
X033697Y045879D01*
X033647Y045876D01*
X033596Y045877D01*
X033547Y045882D01*
X033497Y045891D01*
X033449Y045904D01*
X033402Y045920D01*
X033356Y045941D01*
X033312Y045965D01*
X033270Y045992D01*
X033230Y046022D01*
X033193Y046056D01*
X033159Y046093D01*
X033127Y046132D01*
X033099Y046173D01*
X033074Y046217D01*
X033053Y046262D01*
X033036Y046309D01*
X033022Y046357D01*
X033012Y046406D01*
X033006Y046456D01*
X033004Y046506D01*
D11*
X030884Y043530D03*
X030384Y043530D03*
X029884Y043530D03*
X029384Y043530D03*
X029384Y041482D03*
X029884Y041482D03*
X030384Y041482D03*
X030884Y041482D03*
X025384Y041482D03*
X024884Y041482D03*
X024384Y041482D03*
X023884Y041482D03*
X023884Y043530D03*
X024384Y043530D03*
X024884Y043530D03*
X025384Y043530D03*
X031384Y032817D03*
X031884Y032817D03*
X032384Y032817D03*
X032884Y032817D03*
X033384Y032817D03*
X033884Y032817D03*
X034384Y032817D03*
X034884Y032817D03*
X035384Y032817D03*
X035884Y032817D03*
X035884Y029195D03*
X035384Y029195D03*
X034884Y029195D03*
X034384Y029195D03*
X033884Y029195D03*
X033384Y029195D03*
X032884Y029195D03*
X032384Y029195D03*
X031884Y029195D03*
X031384Y029195D03*
X038884Y038482D03*
X039384Y038482D03*
X039884Y038482D03*
X040384Y038482D03*
X040384Y040530D03*
X039884Y040530D03*
X039384Y040530D03*
X038884Y040530D03*
X044884Y040530D03*
X045384Y040530D03*
X045884Y040530D03*
X046384Y040530D03*
X046384Y038482D03*
X045884Y038482D03*
X045384Y038482D03*
X044884Y038482D03*
D12*
X020646Y030390D03*
X020518Y030390D03*
X020518Y030134D03*
X020646Y030134D03*
X020646Y029878D03*
X020518Y029878D03*
X020518Y029622D03*
X020646Y029622D03*
X019751Y029622D03*
X019623Y029622D03*
X019623Y029878D03*
X019751Y029878D03*
X019751Y030134D03*
X019623Y030134D03*
X019623Y030390D03*
X019751Y030390D03*
D13*
X034111Y037256D03*
X034111Y037756D03*
X034111Y038256D03*
X034111Y038756D03*
X036158Y038756D03*
X036158Y038256D03*
X036158Y037756D03*
X036158Y037256D03*
X037158Y043256D03*
X037158Y043756D03*
X037158Y044256D03*
X037158Y044756D03*
X035111Y044756D03*
X035111Y044256D03*
X035111Y043756D03*
X035111Y043256D03*
X041611Y043256D03*
X041611Y043756D03*
X041611Y044256D03*
X041611Y044756D03*
X043658Y044756D03*
X043658Y044256D03*
X043658Y043756D03*
X043658Y043256D03*
D14*
X043634Y046206D02*
X043634Y046806D01*
X042634Y046806D02*
X042634Y046206D01*
X044634Y046206D02*
X044634Y046806D01*
X045634Y046806D02*
X045634Y046206D01*
X045634Y048706D02*
X045634Y049306D01*
X044634Y049306D02*
X044634Y048706D01*
X043634Y048706D02*
X043634Y049306D01*
X042634Y049306D02*
X042634Y048706D01*
X039134Y048706D02*
X039134Y049306D01*
X038134Y049306D02*
X038134Y048706D01*
X037134Y048706D02*
X037134Y049306D01*
X036134Y049306D02*
X036134Y048706D01*
X036134Y046806D02*
X036134Y046206D01*
X037134Y046206D02*
X037134Y046806D01*
X038134Y046806D02*
X038134Y046206D01*
X039134Y046206D02*
X039134Y046806D01*
X031134Y046806D02*
X031134Y046206D01*
X030134Y046206D02*
X030134Y046806D01*
X029134Y046806D02*
X029134Y046206D01*
X028134Y046206D02*
X028134Y046806D01*
X028134Y048706D02*
X028134Y049306D01*
X029134Y049306D02*
X029134Y048706D01*
X030134Y048706D02*
X030134Y049306D01*
X031134Y049306D02*
X031134Y048706D01*
X024634Y048706D02*
X024634Y049306D01*
X023634Y049306D02*
X023634Y048706D01*
X022634Y048706D02*
X022634Y049306D01*
X021634Y049306D02*
X021634Y048706D01*
X021634Y046806D02*
X021634Y046206D01*
X022634Y046206D02*
X022634Y046806D01*
X023634Y046806D02*
X023634Y046206D01*
X024634Y046206D02*
X024634Y046806D01*
X020634Y041806D02*
X020634Y041206D01*
X019634Y041206D02*
X019634Y041806D01*
X017134Y041806D02*
X017134Y041206D01*
X016134Y041206D02*
X016134Y041806D01*
X016134Y038806D02*
X016134Y038206D01*
X015134Y038206D02*
X015134Y038806D01*
X014134Y038806D02*
X014134Y038206D01*
X013134Y038206D02*
X013134Y038806D01*
X012134Y038806D02*
X012134Y038206D01*
X008434Y038006D02*
X007834Y038006D01*
X007834Y037006D02*
X008434Y037006D01*
X008434Y036006D02*
X007834Y036006D01*
X005434Y036006D02*
X004834Y036006D01*
X004834Y037006D02*
X005434Y037006D01*
X005434Y038006D02*
X004834Y038006D01*
X004834Y039006D02*
X005434Y039006D01*
X007834Y039006D02*
X008434Y039006D01*
X008434Y032506D02*
X007834Y032506D01*
X007834Y031506D02*
X008434Y031506D01*
X008434Y030506D02*
X007834Y030506D01*
X007834Y029506D02*
X008434Y029506D01*
X005434Y029506D02*
X004834Y029506D01*
X004834Y030506D02*
X005434Y030506D01*
X005434Y031506D02*
X004834Y031506D01*
X004834Y032506D02*
X005434Y032506D01*
X005434Y026006D02*
X004834Y026006D01*
X004834Y025006D02*
X005434Y025006D01*
X005434Y024006D02*
X004834Y024006D01*
X004834Y023006D02*
X005434Y023006D01*
X007834Y023006D02*
X008434Y023006D01*
X008434Y024006D02*
X007834Y024006D01*
X007834Y025006D02*
X008434Y025006D01*
X008434Y026006D02*
X007834Y026006D01*
X012134Y019806D02*
X012134Y019206D01*
X013134Y019206D02*
X013134Y019806D01*
X014134Y019806D02*
X014134Y019206D01*
X015134Y019206D02*
X015134Y019806D01*
X016134Y019806D02*
X016134Y019206D01*
X017134Y019206D02*
X017134Y019806D01*
X018134Y019806D02*
X018134Y019206D01*
X019134Y019206D02*
X019134Y019806D01*
X020734Y019806D02*
X020734Y019206D01*
X021734Y019206D02*
X021734Y019806D01*
X022734Y019806D02*
X022734Y019206D01*
X023734Y019206D02*
X023734Y019806D01*
X024734Y019806D02*
X024734Y019206D01*
X025734Y019206D02*
X025734Y019806D01*
X026734Y019806D02*
X026734Y019206D01*
X027734Y019206D02*
X027734Y019806D01*
X025134Y017306D02*
X025134Y016706D01*
X024134Y016706D02*
X024134Y017306D01*
X023134Y017306D02*
X023134Y016706D01*
X022134Y016706D02*
X022134Y017306D01*
X021134Y017306D02*
X021134Y016706D01*
X020134Y016706D02*
X020134Y017306D01*
X019134Y017306D02*
X019134Y016706D01*
X018134Y016706D02*
X018134Y017306D01*
X017134Y017306D02*
X017134Y016706D01*
X017234Y014006D02*
X017234Y013406D01*
X016234Y013406D02*
X016234Y014006D01*
X015234Y014006D02*
X015234Y013406D01*
X014234Y013406D02*
X014234Y014006D01*
X013234Y014006D02*
X013234Y013406D01*
X012234Y013406D02*
X012234Y014006D01*
X011234Y014006D02*
X011234Y013406D01*
X010234Y013406D02*
X010234Y014006D01*
X009234Y014006D02*
X009234Y013406D01*
X008234Y013406D02*
X008234Y014006D01*
X007234Y014006D02*
X007234Y013406D01*
X007134Y016706D02*
X007134Y017306D01*
X008134Y017306D02*
X008134Y016706D01*
X009134Y016706D02*
X009134Y017306D01*
X010134Y017306D02*
X010134Y016706D01*
X018234Y014006D02*
X018234Y013406D01*
X019234Y013406D02*
X019234Y014006D01*
X020234Y014006D02*
X020234Y013406D01*
X021234Y013406D02*
X021234Y014006D01*
X022234Y014006D02*
X022234Y013406D01*
X038834Y029506D02*
X039434Y029506D01*
X039434Y030506D02*
X038834Y030506D01*
X038834Y031506D02*
X039434Y031506D01*
X039434Y032506D02*
X038834Y032506D01*
X038834Y033506D02*
X039434Y033506D01*
X024134Y038206D02*
X024134Y038806D01*
X023134Y038806D02*
X023134Y038206D01*
X022134Y038206D02*
X022134Y038806D01*
X021134Y038806D02*
X021134Y038206D01*
X020134Y038206D02*
X020134Y038806D01*
X019134Y038806D02*
X019134Y038206D01*
X017134Y038206D02*
X017134Y038806D01*
X016634Y046206D02*
X016634Y046806D01*
X015634Y046806D02*
X015634Y046206D01*
X014634Y046206D02*
X014634Y046806D01*
X013634Y046806D02*
X013634Y046206D01*
X013634Y048706D02*
X013634Y049306D01*
X014634Y049306D02*
X014634Y048706D01*
X015634Y048706D02*
X015634Y049306D01*
X016634Y049306D02*
X016634Y048706D01*
X008134Y049706D02*
X008134Y050306D01*
X007134Y050306D02*
X007134Y049706D01*
D15*
X015924Y032006D03*
X015924Y031506D03*
X015924Y031006D03*
X015924Y030506D03*
X015924Y030006D03*
X015924Y029506D03*
X015924Y029006D03*
X018344Y029006D03*
X018344Y029506D03*
X018344Y030006D03*
X018344Y030506D03*
X018344Y031006D03*
X018344Y031506D03*
X018344Y032006D03*
X021924Y032006D03*
X021924Y031506D03*
X021924Y031006D03*
X021924Y030506D03*
X021924Y030006D03*
X021924Y029506D03*
X021924Y029006D03*
X024344Y029006D03*
X024344Y029506D03*
X024344Y030006D03*
X024344Y030506D03*
X024344Y031006D03*
X024344Y031506D03*
X024344Y032006D03*
X032424Y023256D03*
X032424Y022756D03*
X032424Y022256D03*
X032424Y021756D03*
X032424Y021256D03*
X032424Y020756D03*
X032424Y020256D03*
X032424Y019756D03*
X034844Y019756D03*
X034844Y020256D03*
X034844Y020756D03*
X034844Y021256D03*
X034844Y021756D03*
X034844Y022256D03*
X034844Y022756D03*
X034844Y023256D03*
D16*
X044634Y023729D02*
X044634Y024283D01*
X046509Y024283D02*
X046509Y023729D01*
X046509Y021783D02*
X046509Y021229D01*
X044634Y021229D02*
X044634Y021783D01*
X044634Y018783D02*
X044634Y018229D01*
X044634Y016283D02*
X044634Y015729D01*
X046509Y015729D02*
X046509Y016283D01*
X046509Y018229D02*
X046509Y018783D01*
X046509Y026729D02*
X046509Y027283D01*
X046509Y029229D02*
X046509Y029783D01*
X044634Y029783D02*
X044634Y029229D01*
X044634Y027283D02*
X044634Y026729D01*
D17*
X005134Y001506D03*
X005134Y013706D03*
X034634Y013706D03*
X034634Y001506D03*
D18*
X001634Y022506D03*
X001634Y026506D03*
X001634Y029006D03*
X001634Y033006D03*
X001634Y035506D03*
X001634Y039506D03*
X013134Y052506D03*
X017134Y052506D03*
X021134Y052506D03*
X025134Y052506D03*
X027634Y052506D03*
X031634Y052506D03*
X035634Y052506D03*
X039634Y052506D03*
X042134Y052506D03*
X046134Y052506D03*
D19*
X032134Y042880D03*
X032134Y042132D03*
X026634Y042132D03*
X026634Y042880D03*
X029134Y034380D03*
X029134Y033632D03*
X029134Y031380D03*
X029134Y030632D03*
X019634Y027380D03*
X019634Y026632D03*
X007134Y019880D03*
X007134Y019132D03*
X005134Y019132D03*
X005134Y019880D03*
D20*
X016760Y033006D03*
X017509Y033006D03*
X030760Y034506D03*
X031509Y034506D03*
X032760Y034506D03*
X033509Y034506D03*
X034760Y034506D03*
X035509Y034506D03*
X033509Y036006D03*
X032760Y036006D03*
X034760Y040006D03*
X035509Y040006D03*
X035760Y042006D03*
X036509Y042006D03*
X039260Y042006D03*
X040009Y042006D03*
X042260Y042006D03*
X043009Y042006D03*
X045260Y042006D03*
X046009Y042006D03*
X046009Y036506D03*
X045260Y036506D03*
X040009Y036506D03*
X039260Y036506D03*
X041760Y027506D03*
X042509Y027506D03*
X042509Y025506D03*
X041760Y025506D03*
X041760Y023506D03*
X042509Y023506D03*
X042509Y021506D03*
X041760Y021506D03*
X041760Y019506D03*
X042509Y019506D03*
X042509Y017506D03*
X041760Y017506D03*
X041760Y015506D03*
X042509Y015506D03*
X042509Y013506D03*
X041760Y013506D03*
X034009Y027506D03*
X033260Y027506D03*
D21*
X033134Y040116D02*
X033134Y040896D01*
D22*
X037374Y024506D02*
X037894Y024506D01*
X037894Y023506D02*
X037374Y023506D01*
X037374Y022506D02*
X037894Y022506D01*
X037894Y021506D02*
X037374Y021506D01*
X037374Y020506D02*
X037894Y020506D01*
X037894Y019506D02*
X037374Y019506D01*
X037374Y018506D02*
X037894Y018506D01*
X037894Y017506D02*
X037374Y017506D01*
D23*
X039221Y017506D03*
X040048Y017506D03*
X040048Y015506D03*
X039221Y015506D03*
X039221Y013506D03*
X040048Y013506D03*
X040048Y019506D03*
X039221Y019506D03*
X039221Y021506D03*
X040048Y021506D03*
X040048Y023506D03*
X039221Y023506D03*
X039221Y025506D03*
X040048Y025506D03*
X040048Y027506D03*
X039221Y027506D03*
D24*
X006634Y045006D03*
D25*
X009634Y045006D03*
D26*
X009534Y044926D01*
X009054Y044446D01*
X009054Y036766D01*
X008254Y035966D01*
X008134Y036006D01*
X007294Y035166D01*
X007294Y028606D01*
X007294Y023006D01*
X005134Y023006D01*
X004254Y025246D02*
X005054Y026046D01*
X005134Y026006D01*
X005214Y026046D01*
X006014Y026846D01*
X006014Y031646D01*
X005214Y032446D01*
X005134Y032506D01*
X005214Y032606D01*
X006014Y033406D01*
X006014Y039006D01*
X005134Y039006D01*
X006014Y039006D02*
X006654Y039006D01*
X006654Y044926D01*
X006634Y045006D01*
X006654Y045086D01*
X006654Y049406D01*
X007134Y049886D01*
X007134Y050006D01*
X008134Y050006D02*
X009534Y048606D01*
X009534Y046526D01*
X013534Y046526D01*
X013634Y046506D01*
X013694Y046526D01*
X013694Y048926D01*
X013634Y049006D01*
X014634Y049006D02*
X014654Y048926D01*
X014654Y046526D01*
X014634Y046506D01*
X014494Y046366D01*
X014494Y046206D01*
X012574Y044286D01*
X012574Y038846D01*
X012254Y038526D01*
X012134Y038506D01*
X013134Y038506D02*
X013214Y038526D01*
X013534Y038846D01*
X013534Y044286D01*
X015614Y046366D01*
X015634Y046506D01*
X015614Y046526D01*
X015614Y048926D01*
X015634Y049006D01*
X016634Y049006D02*
X016734Y048926D01*
X016734Y046526D01*
X016634Y046506D01*
X016734Y046366D01*
X016734Y041886D01*
X017054Y041566D01*
X017134Y041506D01*
X016254Y041406D02*
X016134Y041506D01*
X016254Y041406D02*
X016254Y041246D01*
X017694Y039806D01*
X017694Y034686D01*
X020574Y031806D01*
X020574Y031006D02*
X021924Y031006D01*
X021854Y031486D02*
X021534Y031486D01*
X021374Y031326D01*
X019414Y031326D01*
X019094Y031006D01*
X019094Y029086D01*
X018494Y029086D01*
X018344Y029006D01*
X018334Y029406D02*
X018344Y029506D01*
X018334Y029566D01*
X018334Y029886D01*
X018344Y030006D01*
X018334Y029406D02*
X017694Y029406D01*
X017694Y027326D01*
X022334Y022686D01*
X021214Y023326D02*
X021214Y021246D01*
X022654Y019806D01*
X022654Y019646D01*
X022734Y019506D01*
X023614Y019486D02*
X023614Y018526D01*
X022174Y017086D01*
X022134Y017006D01*
X022174Y016926D01*
X022174Y016126D01*
X026334Y016126D01*
X028574Y018366D01*
X028574Y020766D01*
X031774Y020766D01*
X031774Y028126D01*
X032414Y028766D01*
X032414Y029086D01*
X032384Y029195D01*
X031934Y029246D02*
X031884Y029195D01*
X031934Y029246D02*
X031934Y031006D01*
X034494Y031006D01*
X034494Y029246D01*
X034384Y029195D01*
X034814Y029086D02*
X034884Y029195D01*
X034814Y029086D02*
X034814Y024926D01*
X034334Y024446D02*
X035774Y024446D01*
X035774Y027646D01*
X036254Y028126D01*
X042494Y028126D01*
X042494Y027646D01*
X042509Y027506D01*
X042494Y027486D01*
X042494Y027006D01*
X044634Y027006D01*
X044734Y027006D01*
X044734Y029406D01*
X044634Y029506D01*
X044734Y029566D01*
X044734Y035966D01*
X045214Y036446D01*
X045260Y036506D01*
X045214Y036606D01*
X044894Y036926D01*
X044894Y038366D01*
X044884Y038482D01*
X045384Y038482D02*
X045374Y038366D01*
X045534Y038206D01*
X045534Y037726D01*
X045884Y038482D02*
X045854Y038526D01*
X045854Y039006D01*
X045694Y039166D01*
X044414Y039166D01*
X044414Y034686D01*
X039134Y029406D01*
X039134Y029506D01*
X039134Y029406D02*
X039134Y028446D01*
X035774Y028446D01*
X035454Y028766D01*
X035454Y029086D01*
X035384Y029195D01*
X035884Y029195D02*
X035934Y029246D01*
X037214Y030526D01*
X039134Y030526D01*
X039134Y030506D01*
X039134Y030366D01*
X040734Y031966D01*
X040734Y039166D01*
X040094Y039166D01*
X039934Y039006D01*
X039934Y038526D01*
X039884Y038482D01*
X039384Y038482D02*
X039294Y038526D01*
X039294Y039166D01*
X038974Y039486D01*
X038334Y038846D01*
X038334Y034366D01*
X039134Y033566D01*
X039134Y033506D01*
X039134Y032506D02*
X039134Y032446D01*
X038334Y033246D01*
X038334Y033566D01*
X037534Y033566D01*
X037534Y042846D01*
X037214Y043166D01*
X037158Y043256D01*
X037054Y043646D02*
X036574Y043646D01*
X036414Y043486D01*
X036414Y042046D01*
X036509Y042006D01*
X036574Y041886D01*
X036894Y041566D01*
X036894Y038526D01*
X036254Y037886D01*
X036254Y037726D01*
X036158Y037756D01*
X036094Y037726D01*
X035454Y037726D01*
X035454Y034526D01*
X035509Y034506D01*
X035614Y034366D01*
X036094Y034366D01*
X036094Y034206D01*
X035509Y034506D02*
X035454Y034366D01*
X034974Y033886D01*
X034974Y032926D01*
X034884Y032817D01*
X034814Y032766D01*
X034814Y032286D01*
X034494Y031966D01*
X034494Y031006D01*
X033534Y031486D02*
X034334Y032286D01*
X034334Y032766D01*
X034384Y032817D01*
X034494Y032926D01*
X034494Y033726D01*
X034334Y033726D01*
X034494Y033726D02*
X034494Y034206D01*
X034654Y034366D01*
X034760Y034506D01*
X034814Y034526D01*
X034814Y034686D01*
X035134Y035006D01*
X035134Y038686D01*
X036094Y038686D01*
X036158Y038756D01*
X036094Y038846D01*
X036094Y039486D01*
X035614Y039966D01*
X035509Y040006D01*
X034814Y039966D02*
X034760Y040006D01*
X034654Y040126D01*
X034334Y040126D01*
X034334Y043646D01*
X034974Y043646D01*
X035111Y043756D01*
X035111Y044256D02*
X034974Y044286D01*
X032094Y044286D01*
X032094Y043486D01*
X032094Y043006D01*
X032134Y042880D01*
X032254Y042846D01*
X032734Y042366D01*
X032734Y041886D01*
X027774Y036926D01*
X027774Y033406D01*
X028254Y032926D01*
X028254Y030686D01*
X029054Y030686D01*
X029134Y030632D01*
X029134Y031380D02*
X029214Y031486D01*
X030654Y032926D01*
X030654Y034366D01*
X030760Y034506D01*
X030814Y034526D01*
X030814Y035006D01*
X031934Y035006D01*
X032254Y034686D01*
X032254Y033086D01*
X032414Y032926D01*
X032384Y032817D01*
X032414Y032766D01*
X032414Y032126D01*
X033054Y031486D01*
X033534Y031486D01*
X033214Y031966D02*
X032894Y032286D01*
X032894Y032766D01*
X032884Y032817D01*
X033214Y033086D02*
X033214Y033886D01*
X032894Y034206D01*
X032894Y034366D01*
X032760Y034506D01*
X032734Y034526D01*
X032734Y035966D01*
X032760Y036006D01*
X033509Y036006D02*
X033534Y036126D01*
X034814Y036126D01*
X034814Y038366D01*
X034814Y039966D01*
X034334Y040126D02*
X033214Y040126D01*
X033214Y040446D01*
X033134Y040506D01*
X032134Y042132D02*
X032094Y042206D01*
X029374Y042206D01*
X029374Y042046D01*
X029374Y041566D01*
X029384Y041482D01*
X029854Y041406D02*
X029854Y041086D01*
X029534Y040766D01*
X026974Y040766D01*
X026974Y023486D01*
X027454Y022366D02*
X024734Y019646D01*
X024734Y019506D01*
X023774Y019646D02*
X023774Y020926D01*
X025694Y022846D01*
X025694Y039966D01*
X025694Y041086D01*
X025374Y041406D01*
X025384Y041482D01*
X025054Y041246D02*
X025054Y040606D01*
X025054Y041246D02*
X024894Y041406D01*
X024884Y041482D01*
X024414Y041566D02*
X024414Y041886D01*
X024734Y042206D01*
X026014Y042206D01*
X026014Y040286D01*
X026174Y040126D01*
X026174Y037886D01*
X026014Y037726D01*
X026014Y022526D01*
X024414Y020926D01*
X023774Y019646D02*
X023734Y019506D01*
X023614Y019486D01*
X021734Y019506D02*
X021694Y019646D01*
X020094Y021246D01*
X019774Y022206D02*
X017214Y019646D01*
X017134Y019506D01*
X017214Y019486D01*
X017214Y019326D01*
X017694Y018846D01*
X017694Y017406D01*
X018014Y017086D01*
X018134Y017006D01*
X018014Y016926D01*
X017694Y016606D01*
X017694Y014046D01*
X017374Y013726D01*
X017234Y013706D01*
X018234Y013706D02*
X018334Y013566D01*
X019134Y012766D01*
X020734Y012766D01*
X020734Y016286D01*
X020254Y016766D01*
X020254Y016926D01*
X020134Y017006D01*
X020094Y017086D01*
X019774Y017406D01*
X019774Y019966D01*
X018974Y020766D01*
X020414Y022206D01*
X021214Y023326D02*
X014814Y023326D01*
X011614Y020126D01*
X011614Y019006D01*
X011774Y018846D01*
X011774Y014046D01*
X012094Y013726D01*
X012234Y013706D01*
X010654Y014046D02*
X010654Y019806D01*
X012094Y021246D01*
X009134Y017006D02*
X009214Y016926D01*
X009214Y013726D01*
X009234Y013706D01*
X008254Y013566D02*
X008234Y013706D01*
X008094Y013726D01*
X007774Y014046D01*
X007774Y016286D01*
X007134Y016926D01*
X007134Y017006D01*
X007134Y019006D01*
X007134Y019132D01*
X007134Y019006D02*
X007774Y019646D01*
X007774Y023006D01*
X008134Y023006D01*
X008094Y023006D01*
X007774Y023006D02*
X007294Y023006D01*
X007134Y019966D02*
X006494Y019966D01*
X006494Y018686D01*
X006494Y017726D02*
X006494Y014366D01*
X007134Y013726D01*
X007234Y013706D01*
X008254Y013566D02*
X008254Y012446D01*
X020894Y012446D01*
X021054Y012606D01*
X021054Y013406D01*
X021214Y013566D01*
X021234Y013706D01*
X021374Y013726D01*
X021374Y014526D01*
X025214Y014526D01*
X027774Y014526D01*
X032254Y019006D01*
X032254Y019486D01*
X032414Y019646D01*
X032424Y019756D01*
X032424Y020256D02*
X032574Y020286D01*
X034174Y020286D01*
X034174Y019486D01*
X036094Y017566D01*
X037534Y017566D01*
X037634Y017506D01*
X037694Y017406D01*
X037694Y015006D01*
X039134Y013566D01*
X039221Y013506D01*
X040048Y013506D02*
X040094Y013566D01*
X041694Y013566D01*
X041760Y013506D01*
X042494Y013566D02*
X042509Y013506D01*
X042494Y013566D02*
X042494Y015486D01*
X042509Y015506D01*
X042494Y015646D01*
X042494Y015966D01*
X044574Y015966D01*
X044634Y016006D01*
X044734Y016126D01*
X044734Y018366D01*
X044634Y018506D01*
X046494Y018366D02*
X046509Y018506D01*
X046494Y018366D02*
X046494Y016126D01*
X046509Y016006D01*
X042494Y015966D02*
X042494Y017406D01*
X042509Y017506D01*
X042494Y017566D01*
X042494Y019486D01*
X042509Y019506D01*
X042494Y019646D01*
X042494Y021406D01*
X042509Y021506D01*
X042494Y021566D01*
X042494Y023486D01*
X042509Y023506D01*
X042494Y023646D01*
X042494Y023966D01*
X044574Y023966D01*
X044634Y024006D01*
X046494Y023966D02*
X046509Y024006D01*
X046494Y023966D02*
X046494Y021566D01*
X046509Y021506D01*
X044634Y021506D02*
X044574Y021566D01*
X042654Y021566D01*
X042509Y021506D01*
X041760Y021506D02*
X041694Y021566D01*
X040094Y021566D01*
X040048Y021506D01*
X039221Y021506D02*
X039134Y021566D01*
X037694Y021566D01*
X037634Y021506D01*
X037534Y021406D01*
X037534Y021246D01*
X034974Y021246D01*
X034844Y021256D01*
X034974Y021726D02*
X034844Y021756D01*
X034974Y021726D02*
X036894Y021726D01*
X037534Y022366D01*
X037634Y022506D01*
X037694Y022526D01*
X038174Y022526D01*
X039134Y023486D01*
X039221Y023506D01*
X040048Y023506D02*
X040094Y023486D01*
X041694Y023486D01*
X041760Y023506D01*
X042494Y023966D02*
X042494Y025406D01*
X042509Y025506D01*
X042494Y025566D01*
X042494Y027006D01*
X041760Y027506D02*
X041694Y027486D01*
X040094Y027486D01*
X040048Y027506D01*
X039221Y027506D02*
X039134Y027486D01*
X037694Y026046D01*
X036254Y027486D01*
X037694Y026046D02*
X037694Y024606D01*
X037634Y024506D01*
X037534Y024446D01*
X036574Y023486D01*
X036574Y022846D01*
X034974Y022846D01*
X034844Y022756D01*
X034814Y023166D02*
X034844Y023256D01*
X034814Y023166D02*
X034334Y023166D01*
X034334Y024446D01*
X034334Y027166D01*
X034014Y027486D01*
X034009Y027506D01*
X033854Y027646D01*
X033854Y029086D01*
X033884Y029195D01*
X033384Y029195D02*
X033374Y029246D01*
X033214Y029406D01*
X033214Y030046D01*
X031934Y031006D02*
X031934Y032766D01*
X031884Y032817D01*
X031774Y032926D01*
X031454Y032926D01*
X031384Y032817D01*
X031614Y033566D02*
X031614Y034366D01*
X031509Y034506D01*
X030654Y034366D02*
X029214Y034366D01*
X029134Y034380D01*
X029054Y033726D02*
X029134Y033632D01*
X029054Y033726D02*
X028254Y033726D01*
X027454Y031006D02*
X030334Y028126D01*
X031294Y029086D01*
X031384Y029195D01*
X030334Y028126D02*
X028414Y026206D01*
X028414Y022206D01*
X025854Y019646D01*
X025734Y019506D01*
X027454Y022366D02*
X027454Y029406D01*
X027934Y029886D01*
X027454Y031006D02*
X027454Y038046D01*
X030014Y040606D01*
X030334Y040926D01*
X030334Y041406D01*
X030384Y041482D01*
X030814Y041406D02*
X030884Y041482D01*
X030814Y041406D02*
X030814Y040606D01*
X029854Y041406D02*
X029884Y041482D01*
X029374Y042046D02*
X026654Y042046D01*
X026634Y042132D01*
X026494Y042046D01*
X026494Y037406D01*
X024384Y041482D02*
X024414Y041566D01*
X023884Y041482D02*
X023774Y041406D01*
X022174Y039806D01*
X022174Y038526D01*
X022134Y038506D01*
X021534Y038846D02*
X021534Y040126D01*
X024414Y043006D01*
X024574Y042846D01*
X025374Y042846D01*
X025374Y043006D01*
X025374Y043486D01*
X025384Y043530D01*
X024884Y043530D02*
X024894Y043646D01*
X024734Y043806D01*
X024734Y046366D01*
X024634Y046506D01*
X024734Y046526D01*
X024734Y048926D01*
X024634Y049006D01*
X023634Y049006D02*
X023614Y049086D01*
X022654Y049086D01*
X022634Y049006D01*
X022654Y048926D01*
X022654Y046526D01*
X022634Y046506D01*
X022654Y046526D02*
X023614Y046526D01*
X023634Y046506D01*
X023774Y046366D01*
X023774Y046206D01*
X024254Y045726D01*
X024254Y043806D01*
X024414Y043646D01*
X024384Y043530D01*
X024414Y043486D01*
X024414Y043006D01*
X023884Y043530D02*
X023774Y043646D01*
X021694Y045726D01*
X021694Y046366D01*
X021634Y046506D01*
X021694Y046526D01*
X021694Y048926D01*
X021634Y049006D01*
X025374Y043006D02*
X026494Y043006D01*
X026634Y042880D01*
X026654Y042846D01*
X029854Y042846D01*
X030654Y042846D01*
X030814Y043006D01*
X030814Y043486D01*
X030884Y043530D01*
X030974Y043486D01*
X032094Y043486D01*
X030494Y043646D02*
X030384Y043530D01*
X030494Y043646D02*
X030494Y045726D01*
X030974Y046206D01*
X030974Y046366D01*
X031134Y046526D01*
X031134Y046506D01*
X031134Y046526D02*
X031134Y049006D01*
X030174Y049086D02*
X030174Y049886D01*
X039294Y049886D01*
X040094Y049086D01*
X040094Y044286D01*
X041534Y044286D01*
X041611Y044256D01*
X041694Y044286D01*
X042014Y044286D01*
X042334Y043966D01*
X042334Y042046D01*
X042260Y042006D01*
X041534Y042046D02*
X041534Y043166D01*
X041611Y043256D01*
X041611Y043756D02*
X041534Y043806D01*
X040734Y043806D01*
X040574Y043326D02*
X039134Y044766D01*
X039134Y046506D01*
X039134Y049006D01*
X038174Y048926D02*
X038134Y049006D01*
X038174Y048926D02*
X038174Y046526D01*
X038134Y046506D01*
X038174Y046366D01*
X038494Y046046D01*
X038494Y040926D01*
X038814Y040606D01*
X038884Y040530D01*
X039294Y040606D02*
X039384Y040530D01*
X039294Y040606D02*
X039294Y041886D01*
X039260Y042006D01*
X039934Y041886D02*
X040009Y042006D01*
X039934Y041886D02*
X039934Y040606D01*
X039884Y040530D01*
X040384Y040530D02*
X040414Y040606D01*
X040574Y040766D01*
X040574Y043326D01*
X041611Y044756D02*
X041694Y044766D01*
X042494Y045566D01*
X042494Y046366D01*
X042634Y046506D01*
X042654Y046526D01*
X042654Y048926D01*
X042634Y049006D01*
X043614Y048926D02*
X043634Y049006D01*
X043614Y048926D02*
X043614Y046526D01*
X043634Y046506D01*
X043614Y046366D01*
X043614Y044766D01*
X043658Y044756D01*
X043614Y044286D02*
X042814Y044286D01*
X042814Y044126D01*
X043134Y043646D02*
X043614Y043646D01*
X043658Y043756D01*
X043774Y043646D01*
X044254Y043646D01*
X044414Y043486D01*
X044414Y039806D01*
X044094Y039806D01*
X044414Y039806D02*
X045534Y039806D01*
X046334Y039006D01*
X046334Y038526D01*
X046384Y038482D01*
X046334Y038366D01*
X046334Y036926D01*
X046014Y036606D01*
X046009Y036506D01*
X043614Y035646D02*
X043614Y043166D01*
X043658Y043256D01*
X043134Y043646D02*
X042974Y043486D01*
X042974Y042046D01*
X043009Y042006D01*
X041534Y042046D02*
X041054Y041566D01*
X038974Y039486D02*
X037854Y040606D01*
X037854Y043966D01*
X037534Y044286D01*
X037214Y044286D01*
X037158Y044256D01*
X037158Y043756D02*
X037054Y043646D01*
X037158Y044756D02*
X037214Y044766D01*
X037214Y046366D01*
X037134Y046506D01*
X037214Y046526D01*
X037214Y048926D01*
X037134Y049006D01*
X036254Y048926D02*
X036134Y049006D01*
X036254Y048926D02*
X036254Y046526D01*
X036134Y046506D01*
X036094Y046366D01*
X036094Y045726D01*
X035134Y044766D01*
X035111Y044756D01*
X035134Y044286D02*
X035111Y044256D01*
X035134Y044286D02*
X035454Y044286D01*
X035774Y043966D01*
X035774Y042046D01*
X035760Y042006D01*
X035294Y041406D02*
X035294Y043006D01*
X035134Y043166D01*
X035111Y043256D01*
X038884Y038482D02*
X038974Y038366D01*
X038974Y037726D01*
X038814Y037726D01*
X038974Y037726D02*
X038974Y036766D01*
X039134Y036606D01*
X039260Y036506D01*
X039774Y036286D02*
X039774Y035806D01*
X039774Y036286D02*
X039934Y036446D01*
X040009Y036506D01*
X040094Y036606D01*
X040414Y036926D01*
X040414Y038366D01*
X040384Y038482D01*
X036254Y038206D02*
X036254Y037886D01*
X036254Y038206D02*
X036158Y038256D01*
X034814Y038366D02*
X034174Y038366D01*
X034111Y038256D01*
X033509Y036006D02*
X033534Y035966D01*
X033534Y034526D01*
X033509Y034506D01*
X033534Y034366D01*
X033854Y034046D01*
X033854Y032926D01*
X033884Y032817D01*
X033384Y032817D02*
X033374Y032926D01*
X033214Y033086D01*
X035384Y032817D02*
X035454Y032926D01*
X035454Y033246D01*
X035774Y033566D01*
X037534Y033566D01*
X035934Y032766D02*
X037214Y031486D01*
X039134Y031486D01*
X039134Y031506D01*
X035934Y032766D02*
X035884Y032817D01*
X033260Y027506D02*
X033054Y027326D01*
X032254Y027326D01*
X033054Y027326D02*
X033054Y023006D01*
X032894Y022846D01*
X032574Y022846D01*
X032424Y022756D01*
X032424Y022256D02*
X032574Y022206D01*
X033214Y022206D01*
X033214Y021726D02*
X032574Y021726D01*
X032424Y021756D01*
X032424Y021256D02*
X032574Y021246D01*
X034174Y021246D01*
X034174Y023006D01*
X034334Y023166D01*
X034974Y022366D02*
X034844Y022256D01*
X034974Y022366D02*
X036894Y022366D01*
X036894Y022846D01*
X037534Y023486D01*
X037634Y023506D01*
X037694Y023646D01*
X038494Y024446D01*
X038494Y024766D01*
X039134Y025406D01*
X039221Y025506D01*
X040048Y025506D02*
X040094Y025566D01*
X041694Y025566D01*
X041760Y025506D01*
X037534Y020766D02*
X037534Y020606D01*
X037634Y020506D01*
X038494Y019646D01*
X039134Y019646D01*
X039221Y019506D01*
X040048Y019506D02*
X040094Y019486D01*
X041694Y019486D01*
X041760Y019506D01*
X041694Y017566D02*
X040094Y017566D01*
X040048Y017506D01*
X039221Y017506D02*
X039134Y017566D01*
X038494Y018206D01*
X038494Y018686D01*
X037694Y019486D01*
X037634Y019506D01*
X037534Y019646D01*
X036894Y020286D01*
X034974Y020286D01*
X034844Y020256D01*
X034844Y019756D02*
X034974Y019646D01*
X036254Y018366D01*
X037534Y018366D01*
X037634Y018506D01*
X037694Y018366D01*
X038494Y017566D01*
X038494Y016286D01*
X039134Y015646D01*
X039221Y015506D01*
X040048Y015506D02*
X040094Y015486D01*
X041694Y015486D01*
X041760Y015506D01*
X041760Y017506D02*
X041694Y017566D01*
X037534Y020766D02*
X034974Y020766D01*
X034844Y020756D01*
X032424Y020756D02*
X032414Y020766D01*
X031774Y020766D01*
X033054Y027326D02*
X033214Y027486D01*
X033260Y027506D01*
X025054Y029086D02*
X025054Y030686D01*
X024734Y031006D01*
X024344Y031006D01*
X023934Y031006D01*
X023614Y031326D01*
X023614Y031966D01*
X022014Y031966D01*
X021924Y032006D01*
X021924Y031506D02*
X021854Y031486D01*
X021854Y030526D02*
X021054Y030526D01*
X020574Y030846D02*
X020574Y031006D01*
X021854Y030526D02*
X021854Y030046D01*
X021924Y030006D01*
X022014Y029566D02*
X021924Y029506D01*
X022014Y029566D02*
X024254Y029566D01*
X024344Y029506D01*
X024414Y029086D02*
X024344Y029006D01*
X024414Y029086D02*
X025054Y029086D01*
X024414Y030046D02*
X024344Y030006D01*
X024414Y030046D02*
X024414Y030526D01*
X024344Y030506D01*
X024414Y031486D02*
X024344Y031506D01*
X024414Y031486D02*
X025214Y031486D01*
X024344Y032006D02*
X024254Y032126D01*
X021214Y035166D01*
X021214Y038366D01*
X021134Y038506D01*
X021214Y038526D01*
X021534Y038846D01*
X021134Y038506D02*
X021054Y038526D01*
X020254Y038526D01*
X020134Y038506D01*
X018494Y037246D02*
X018494Y040286D01*
X019614Y041406D01*
X019634Y041506D01*
X018494Y037246D02*
X021054Y034686D01*
X018334Y032126D02*
X018344Y032006D01*
X018334Y032126D02*
X018174Y032286D01*
X017214Y031326D01*
X017214Y027166D01*
X018334Y027326D02*
X019614Y027326D01*
X019634Y027380D01*
X019774Y026686D02*
X019634Y026632D01*
X019774Y026686D02*
X021854Y028766D01*
X021854Y028926D01*
X021924Y029006D01*
X022014Y029086D01*
X022654Y029086D01*
X021924Y030506D02*
X021854Y030526D01*
X018174Y032286D02*
X017534Y032926D01*
X017509Y033006D01*
X016894Y033086D02*
X016760Y033006D01*
X015134Y033006D01*
X015134Y029006D01*
X015924Y029006D01*
X014174Y027166D02*
X014174Y038366D01*
X014134Y038506D01*
X016894Y036126D02*
X016894Y033086D01*
X014174Y027166D02*
X017374Y023966D01*
X018974Y020766D02*
X018174Y019966D01*
X018174Y019646D01*
X018134Y019506D01*
X019134Y019506D02*
X019134Y017006D01*
X019134Y013726D01*
X019234Y013706D01*
X010654Y014046D02*
X010334Y013726D01*
X010234Y013706D01*
X006494Y017726D02*
X005214Y019006D01*
X005134Y019132D01*
X005054Y019166D01*
X004254Y019166D01*
X004254Y025246D01*
X007294Y028606D02*
X008094Y029406D01*
X008134Y029506D01*
X008134Y039006D02*
X006654Y039006D01*
X009634Y045006D02*
X009534Y045086D01*
X009534Y046526D01*
X028134Y046506D02*
X028254Y046526D01*
X028254Y048926D01*
X028134Y049006D01*
X029134Y049006D02*
X029214Y048926D01*
X029214Y046526D01*
X029134Y046506D01*
X029214Y046526D02*
X030014Y046526D01*
X030134Y046506D01*
X030014Y046366D01*
X030014Y043806D01*
X029854Y043646D01*
X029884Y043530D01*
X029854Y043486D01*
X029854Y042846D01*
X029384Y043530D02*
X029374Y043646D01*
X028254Y044766D01*
X028254Y046366D01*
X028134Y046506D01*
X029134Y049006D02*
X029214Y049086D01*
X030014Y049086D01*
X030134Y049006D01*
X030174Y049086D01*
X043614Y044286D02*
X043658Y044256D01*
X044734Y046366D02*
X044634Y046506D01*
X044734Y046526D01*
X044734Y048926D01*
X044634Y049006D01*
X045634Y049006D02*
X045694Y048926D01*
X045694Y046526D01*
X045634Y046506D01*
X045694Y046366D01*
X046494Y045566D01*
X046494Y040606D01*
X046384Y040530D01*
X045884Y040530D02*
X045854Y040606D01*
X045854Y041886D01*
X046009Y042006D01*
X045374Y041886D02*
X045260Y042006D01*
X045374Y041886D02*
X045374Y040606D01*
X045384Y040530D01*
X044894Y040606D02*
X044734Y040766D01*
X044734Y046366D01*
X044894Y040606D02*
X044884Y040530D01*
X046509Y029506D02*
X046494Y029406D01*
X046494Y027006D01*
X046509Y027006D01*
X007134Y019966D02*
X007134Y019880D01*
X006494Y019966D02*
X005214Y019966D01*
X005134Y019880D01*
D27*
X006494Y018686D03*
X012094Y021246D03*
X017374Y023966D03*
X019774Y022206D03*
X020414Y022206D03*
X020094Y021246D03*
X022334Y022686D03*
X024414Y020926D03*
X026974Y023486D03*
X028414Y022206D03*
X032254Y027326D03*
X033214Y030046D03*
X033214Y031966D03*
X034334Y033726D03*
X036094Y034206D03*
X038814Y037726D03*
X039774Y035806D03*
X043614Y035646D03*
X045534Y037726D03*
X044094Y039806D03*
X041054Y041566D03*
X040734Y043806D03*
X042814Y044126D03*
X035294Y041406D03*
X030814Y040606D03*
X030014Y040606D03*
X026494Y037406D03*
X025694Y039966D03*
X025054Y040606D03*
X021054Y034686D03*
X020574Y031806D03*
X020574Y030846D03*
X021054Y030526D03*
X022654Y029086D03*
X025214Y031486D03*
X027934Y029886D03*
X028254Y033726D03*
X031614Y033566D03*
X036254Y027486D03*
X034814Y024926D03*
X033214Y022206D03*
X033214Y021726D03*
X025214Y014526D03*
X018334Y027326D03*
X017214Y027166D03*
X016894Y036126D03*
D28*
X019734Y030856D02*
X019734Y030390D01*
X019623Y030390D01*
X019623Y030134D02*
X019384Y030134D01*
X019384Y029006D01*
X019634Y029006D01*
X019634Y029622D01*
X019623Y029622D01*
X019634Y029006D02*
X019634Y027380D01*
X021134Y029006D02*
X021134Y029622D01*
X020646Y029622D01*
X020646Y029878D01*
X020646Y029622D02*
X020646Y029606D01*
X020234Y029606D01*
X020234Y030390D01*
X020646Y030390D01*
X020646Y030134D02*
X021054Y030134D01*
X021054Y030526D01*
X021134Y029006D02*
X021924Y029006D01*
D29*
X019734Y030856D03*
X019734Y030856D03*
M02*
