G75*
G70*
%OFA0B0*%
%FSLAX24Y24*%
%IPPOS*%
%LPD*%
%AMOC8*
5,1,8,0,0,1.08239X$1,22.5*
%
%ADD10OC8,0.0520*%
%ADD11C,0.0660*%
%ADD12C,0.2540*%
%ADD13R,0.0866X0.0236*%
%ADD14R,0.0780X0.0210*%
%ADD15R,0.0551X0.0110*%
%ADD16R,0.1000X0.1000*%
%ADD17OC8,0.1500*%
%ADD18OC8,0.1250*%
%ADD19C,0.0100*%
%ADD20C,0.1000*%
%ADD21C,0.0400*%
%ADD22C,0.0396*%
D10*
X055092Y007501D03*
X066292Y007501D03*
X077192Y007401D03*
X088592Y006601D03*
X088592Y010601D03*
X077192Y011401D03*
X066292Y011501D03*
X055092Y011501D03*
X033192Y017801D03*
X039592Y018601D03*
X033192Y021801D03*
X039592Y022601D03*
X019592Y022601D03*
X009092Y021601D03*
X019592Y018601D03*
X009092Y017601D03*
D11*
X008922Y009601D02*
X008262Y009601D01*
X008262Y008601D02*
X008922Y008601D01*
X008922Y007601D02*
X008262Y007601D01*
X019262Y007601D02*
X019922Y007601D01*
X019922Y008601D02*
X019262Y008601D01*
X019262Y009601D02*
X019922Y009601D01*
X030262Y009601D02*
X030922Y009601D01*
X030922Y008601D02*
X030262Y008601D01*
X030262Y007601D02*
X030922Y007601D01*
X041262Y007601D02*
X041922Y007601D01*
X041922Y008601D02*
X041262Y008601D01*
X041262Y009601D02*
X041922Y009601D01*
X052262Y009601D02*
X052922Y009601D01*
X052922Y008601D02*
X052262Y008601D01*
X052262Y007601D02*
X052922Y007601D01*
X063262Y007601D02*
X063922Y007601D01*
X063922Y008601D02*
X063262Y008601D01*
X063262Y009601D02*
X063922Y009601D01*
X074262Y009601D02*
X074922Y009601D01*
X074922Y008601D02*
X074262Y008601D01*
X074262Y007601D02*
X074922Y007601D01*
X085262Y007601D02*
X085922Y007601D01*
X085922Y008601D02*
X085262Y008601D01*
X085262Y009601D02*
X085922Y009601D01*
D12*
X007592Y003601D03*
X018592Y003601D03*
X029592Y003601D03*
X040592Y003601D03*
X051592Y003601D03*
X062592Y003601D03*
X073592Y003601D03*
X084592Y003601D03*
X084592Y013601D03*
X073592Y013601D03*
X062592Y013601D03*
X051592Y013601D03*
X040592Y013601D03*
X029592Y013601D03*
X018592Y013601D03*
X007592Y013601D03*
D13*
X004616Y017351D03*
X004616Y017851D03*
X004616Y018351D03*
X004616Y018851D03*
X002569Y018851D03*
X002569Y018351D03*
X002569Y017851D03*
X002569Y017351D03*
X013569Y017351D03*
X013569Y017851D03*
X013569Y018351D03*
X013569Y018851D03*
X015616Y018851D03*
X015616Y018351D03*
X015616Y017851D03*
X015616Y017351D03*
X024569Y017351D03*
X024569Y017851D03*
X024569Y018351D03*
X024569Y018851D03*
X026616Y018851D03*
X026616Y018351D03*
X026616Y017851D03*
X026616Y017351D03*
X035569Y017351D03*
X035569Y017851D03*
X035569Y018351D03*
X035569Y018851D03*
X037616Y018851D03*
X037616Y018351D03*
X037616Y017851D03*
X037616Y017351D03*
D14*
X037616Y020101D03*
X037616Y020601D03*
X035719Y020601D03*
X035719Y020101D03*
X035719Y021101D03*
X035719Y021601D03*
X035719Y022101D03*
X035719Y022601D03*
X035719Y023101D03*
X037616Y023101D03*
X037616Y022601D03*
X037616Y022101D03*
X037616Y021601D03*
X037616Y021101D03*
X015616Y021101D03*
X015616Y021601D03*
X015616Y022101D03*
X015616Y022601D03*
X015616Y023101D03*
X013719Y023101D03*
X013719Y022601D03*
X013719Y022101D03*
X013719Y021601D03*
X013719Y021101D03*
X013719Y020601D03*
X013719Y020101D03*
X015616Y020101D03*
X015616Y020601D03*
D15*
X056305Y018994D03*
X056305Y018798D03*
X056305Y018601D03*
X056305Y018404D03*
X056305Y018207D03*
X058077Y018207D03*
X058077Y018404D03*
X058077Y018601D03*
X058077Y018798D03*
X058077Y018994D03*
X078305Y018994D03*
X078305Y018798D03*
X078305Y018601D03*
X078305Y018404D03*
X078305Y018207D03*
X080077Y018207D03*
X080077Y018404D03*
X080077Y018601D03*
X080077Y018798D03*
X080077Y018994D03*
D16*
X080592Y011101D03*
X069592Y011101D03*
X058592Y011101D03*
X047592Y011101D03*
X036592Y011101D03*
X025592Y011101D03*
X014592Y011101D03*
X003592Y011101D03*
X003592Y006101D03*
X014592Y006101D03*
X025592Y006101D03*
X036592Y006101D03*
X047592Y006101D03*
X058592Y006101D03*
X069592Y006101D03*
X080592Y006101D03*
D17*
X045392Y006401D03*
X043392Y006401D03*
X045392Y008601D03*
X043392Y009601D03*
D18*
X066392Y018901D03*
X078692Y010801D03*
X022492Y021301D03*
X002692Y023301D03*
X002592Y021101D03*
D19*
X001792Y021101D01*
X001792Y018401D01*
X002569Y018401D01*
X002569Y018351D01*
X002592Y018401D01*
X003892Y018401D01*
X004092Y018601D01*
X013292Y018601D01*
X013492Y018401D01*
X013569Y018351D01*
X013592Y018401D01*
X014892Y018401D01*
X015092Y018601D01*
X018992Y018601D01*
X019392Y019001D01*
X020592Y019001D01*
X021192Y018401D01*
X024492Y018401D01*
X024569Y018351D01*
X024592Y018401D01*
X025392Y018401D01*
X025592Y018601D01*
X034492Y018601D01*
X034692Y018401D01*
X035492Y018401D01*
X035569Y018351D01*
X035592Y018401D01*
X036292Y018401D01*
X036492Y018601D01*
X038192Y018601D01*
X039792Y020201D01*
X057192Y020201D01*
X057992Y019401D01*
X059092Y020501D01*
X079092Y020501D01*
X079992Y019601D01*
X079992Y019001D01*
X080077Y018994D01*
X080092Y018801D02*
X080077Y018798D01*
X080092Y018801D02*
X081392Y018801D01*
X088592Y011601D01*
X088592Y010601D01*
X080592Y011101D02*
X080592Y018501D01*
X080492Y018601D01*
X080077Y018601D01*
X080077Y018404D02*
X079992Y018401D01*
X078992Y018401D01*
X078992Y020101D01*
X078692Y019201D02*
X077492Y019201D01*
X073292Y015001D01*
X072992Y015001D01*
X069592Y011601D01*
X069592Y011101D01*
X066292Y011501D02*
X066292Y011901D01*
X059392Y018801D01*
X058092Y018801D01*
X058077Y018798D01*
X058077Y018994D02*
X057992Y019001D01*
X057992Y019401D01*
X057092Y019801D02*
X057092Y018401D01*
X057992Y018401D01*
X058077Y018404D01*
X058077Y018601D02*
X058492Y018601D01*
X058492Y011501D01*
X058592Y011101D01*
X058592Y010201D02*
X057792Y010201D01*
X056092Y011901D01*
X056092Y018201D01*
X056292Y018201D01*
X056305Y018207D01*
X056392Y018201D01*
X057992Y018201D01*
X058077Y018207D01*
X057092Y018401D02*
X056892Y018401D01*
X056692Y018601D01*
X056305Y018601D01*
X056305Y018798D02*
X056392Y018801D01*
X056692Y018801D01*
X056792Y018901D01*
X056792Y019101D01*
X056692Y019201D01*
X055892Y019201D01*
X052992Y016301D01*
X052992Y009901D01*
X052592Y009601D01*
X055892Y010901D02*
X057092Y009701D01*
X057092Y007601D01*
X058592Y006101D01*
X061892Y006901D02*
X058592Y010201D01*
X055892Y010901D02*
X055892Y018401D01*
X056292Y018401D01*
X056305Y018404D01*
X055992Y019001D02*
X055592Y018601D01*
X055592Y012001D01*
X055092Y011501D01*
X042392Y013801D02*
X042392Y008401D01*
X041592Y007601D01*
X036592Y006101D02*
X034992Y007701D01*
X034992Y009101D01*
X035392Y009501D01*
X035392Y017301D01*
X035569Y017351D01*
X035592Y017301D01*
X035592Y017901D01*
X035569Y017851D01*
X035592Y017901D02*
X037592Y017901D01*
X037616Y017851D01*
X037592Y017901D02*
X037592Y018301D01*
X037616Y018351D01*
X037616Y018851D02*
X037592Y018901D01*
X036792Y018901D01*
X036392Y019301D01*
X033492Y019301D01*
X033292Y019501D01*
X027292Y019501D01*
X026692Y018901D01*
X026616Y018851D01*
X026592Y018901D01*
X025692Y018901D01*
X025392Y019201D01*
X015992Y019201D01*
X015692Y018901D01*
X015616Y018851D01*
X015592Y018901D01*
X015192Y019301D01*
X013192Y019301D01*
X012792Y018901D01*
X004692Y018901D01*
X004616Y018851D01*
X004616Y018351D02*
X004592Y018301D01*
X004592Y017901D01*
X004616Y017851D01*
X004592Y017901D02*
X002592Y017901D01*
X002569Y017851D01*
X002592Y017901D02*
X002592Y017301D01*
X002569Y017351D01*
X002492Y017301D01*
X002492Y009501D01*
X002092Y009101D01*
X002092Y007601D01*
X003592Y006101D01*
X004592Y008601D02*
X004592Y010801D01*
X004242Y010451D01*
X004592Y010801D02*
X004592Y017301D01*
X004616Y017351D01*
X002569Y018851D02*
X002592Y018901D01*
X007192Y023501D01*
X014192Y023501D01*
X014392Y023301D01*
X014392Y022901D01*
X014192Y022701D01*
X013792Y022701D01*
X013719Y022601D01*
X014592Y022801D02*
X014892Y023101D01*
X013992Y024001D01*
X003392Y024001D01*
X002692Y023301D01*
X009092Y021601D02*
X011592Y021601D01*
X013092Y023101D01*
X013719Y023101D01*
X014892Y023101D02*
X015492Y023701D01*
X039092Y023701D01*
X039992Y022801D01*
X039992Y022401D01*
X039192Y021601D01*
X037616Y021601D01*
X036892Y021601D01*
X036392Y022101D01*
X035719Y022101D01*
X035719Y022601D02*
X034892Y022601D01*
X034492Y023101D02*
X035719Y023101D01*
X034492Y023101D02*
X033192Y021801D01*
X034092Y021601D02*
X035719Y021601D01*
X037616Y022101D02*
X038392Y022101D01*
X037616Y022601D02*
X039592Y022601D01*
X038292Y023101D02*
X037616Y023101D01*
X037592Y023101D01*
X037192Y023501D01*
X032892Y023501D01*
X032492Y023101D01*
X015616Y023101D01*
X015592Y023101D01*
X015616Y022601D02*
X015592Y022601D01*
X015616Y022601D02*
X019592Y022601D01*
X016292Y022101D02*
X015616Y022101D01*
X015092Y021601D02*
X014592Y022101D01*
X014592Y022801D01*
X014592Y022101D02*
X013719Y022101D01*
X013719Y021601D02*
X012892Y021601D01*
X015092Y021601D02*
X015616Y021601D01*
X015616Y020601D02*
X013719Y020601D01*
X015616Y020601D02*
X022592Y020601D01*
X022592Y021301D01*
X022492Y021301D01*
X022592Y020601D02*
X035719Y020601D01*
X037616Y020601D01*
X037592Y020101D02*
X037616Y020101D01*
X037592Y020101D02*
X037292Y019801D01*
X035292Y019801D01*
X034992Y020101D01*
X015616Y020101D01*
X014292Y018901D02*
X013592Y018901D01*
X013569Y018851D01*
X015592Y018301D02*
X015616Y018351D01*
X015592Y018301D02*
X015592Y017901D01*
X015616Y017851D01*
X015592Y017901D02*
X013592Y017901D01*
X013569Y017851D01*
X013592Y017901D02*
X013592Y017301D01*
X013569Y017351D01*
X013492Y017301D01*
X013492Y009501D01*
X013092Y009101D01*
X013092Y007601D01*
X014592Y006101D01*
X019592Y007601D02*
X020392Y008401D01*
X020392Y013801D01*
X019592Y014601D01*
X019592Y018601D01*
X023292Y018801D02*
X024592Y018801D01*
X024569Y018851D01*
X026592Y018301D02*
X026616Y018351D01*
X026592Y018301D02*
X026592Y017901D01*
X026616Y017851D01*
X026592Y017901D02*
X024592Y017901D01*
X024569Y017851D01*
X024592Y017901D02*
X024592Y017301D01*
X024569Y017351D01*
X024392Y017301D01*
X024392Y009501D01*
X023992Y009101D01*
X023992Y007701D01*
X025592Y006101D01*
X030592Y007601D02*
X032292Y009301D01*
X032292Y016901D01*
X033192Y017801D01*
X035569Y018851D02*
X035592Y018901D01*
X034792Y018901D01*
X039592Y018601D02*
X039592Y016601D01*
X042392Y013801D01*
X037592Y010801D02*
X037242Y010451D01*
X037592Y010801D02*
X037592Y017301D01*
X037616Y017351D01*
X026616Y017351D02*
X026592Y017301D01*
X026592Y010801D01*
X026242Y010451D01*
X015592Y010801D02*
X015592Y017301D01*
X015616Y017351D01*
X037592Y022601D02*
X037616Y022601D01*
X055992Y019001D02*
X056292Y019001D01*
X056305Y018994D01*
X077192Y018201D02*
X077192Y011401D01*
X077792Y011001D02*
X078692Y010101D01*
X078692Y010801D01*
X077792Y011001D02*
X077792Y018101D01*
X077892Y018201D01*
X078292Y018201D01*
X078305Y018207D01*
X078392Y018201D01*
X079992Y018201D01*
X080077Y018207D01*
X078992Y018401D02*
X078392Y018401D01*
X078305Y018404D01*
X078392Y018401D02*
X078392Y018601D01*
X078305Y018601D01*
X078305Y018798D02*
X078392Y018801D01*
X078692Y018801D01*
X078792Y018901D01*
X078792Y019101D01*
X078692Y019201D01*
X078305Y018994D02*
X078292Y019001D01*
X077992Y019001D01*
X077192Y018201D01*
X078692Y010101D02*
X078692Y006601D01*
X077392Y005301D01*
X070492Y005301D01*
X070392Y005201D01*
X068092Y005201D01*
X067392Y005901D01*
X064992Y005901D01*
X063992Y006901D01*
X061892Y006901D01*
X063592Y007601D02*
X063692Y007501D01*
X066292Y007501D01*
X074592Y007601D02*
X074792Y007401D01*
X077192Y007401D01*
X085592Y007601D02*
X086592Y006601D01*
X088592Y006601D01*
X055092Y007501D02*
X052692Y007501D01*
X052592Y007601D01*
X015592Y010801D02*
X015242Y010451D01*
D20*
X014592Y011101D01*
X015242Y010451D02*
X017092Y008601D01*
X019592Y008601D01*
X025592Y011101D02*
X026242Y010451D01*
X028092Y008601D01*
X030592Y008601D01*
X036592Y011101D02*
X037242Y010451D01*
X039092Y008601D01*
X041592Y008601D01*
X047592Y011101D02*
X049092Y009601D01*
X052592Y009601D01*
X058592Y011101D02*
X060092Y009601D01*
X063592Y009601D01*
X069592Y011101D02*
X071092Y009601D01*
X074592Y009601D01*
X080592Y011101D02*
X082092Y009601D01*
X085592Y009601D01*
X008592Y008601D02*
X006092Y008601D01*
X004242Y010451D01*
X003592Y011101D01*
D21*
X023292Y018801D03*
X014292Y018901D03*
X016292Y022101D03*
X034092Y021601D03*
X034892Y022601D03*
X038292Y023101D03*
X038392Y022101D03*
X034792Y018901D03*
X057092Y019801D03*
X078992Y020101D03*
D22*
X012892Y021601D03*
M02*
