G75*
G70*
%OFA0B0*%
%FSLAX24Y24*%
%IPPOS*%
%LPD*%
%AMOC8*
5,1,8,0,0,1.08239X$1,22.5*
%
%ADD10OC8,0.0520*%
%ADD11C,0.0660*%
%ADD12C,0.2540*%
%ADD13R,0.1000X0.1000*%
%ADD14OC8,0.1500*%
%ADD15OC8,0.1250*%
%ADD16C,0.0400*%
%ADD17C,0.1000*%
%ADD18C,0.0100*%
%ADD19C,0.0396*%
%ADD20C,0.1500*%
D10*
X055092Y007501D03*
X066292Y007501D03*
X077192Y007401D03*
X088592Y006601D03*
X088592Y010601D03*
X077192Y011401D03*
X066292Y011501D03*
X055092Y011501D03*
X033192Y017801D03*
X039592Y018601D03*
X033192Y021801D03*
X039592Y022601D03*
X019592Y022601D03*
X009092Y021601D03*
X019592Y018601D03*
X009092Y017601D03*
D11*
X008922Y009601D02*
X008262Y009601D01*
X008262Y008601D02*
X008922Y008601D01*
X008922Y007601D02*
X008262Y007601D01*
X019262Y007601D02*
X019922Y007601D01*
X019922Y008601D02*
X019262Y008601D01*
X019262Y009601D02*
X019922Y009601D01*
X030262Y009601D02*
X030922Y009601D01*
X030922Y008601D02*
X030262Y008601D01*
X030262Y007601D02*
X030922Y007601D01*
X041262Y007601D02*
X041922Y007601D01*
X041922Y008601D02*
X041262Y008601D01*
X041262Y009601D02*
X041922Y009601D01*
X052262Y009601D02*
X052922Y009601D01*
X052922Y008601D02*
X052262Y008601D01*
X052262Y007601D02*
X052922Y007601D01*
X063262Y007601D02*
X063922Y007601D01*
X063922Y008601D02*
X063262Y008601D01*
X063262Y009601D02*
X063922Y009601D01*
X074262Y009601D02*
X074922Y009601D01*
X074922Y008601D02*
X074262Y008601D01*
X074262Y007601D02*
X074922Y007601D01*
X085262Y007601D02*
X085922Y007601D01*
X085922Y008601D02*
X085262Y008601D01*
X085262Y009601D02*
X085922Y009601D01*
D12*
X007592Y003601D03*
X018592Y003601D03*
X029592Y003601D03*
X040592Y003601D03*
X051592Y003601D03*
X062592Y003601D03*
X073592Y003601D03*
X084592Y003601D03*
X084592Y013601D03*
X073592Y013601D03*
X062592Y013601D03*
X051592Y013601D03*
X040592Y013601D03*
X029592Y013601D03*
X018592Y013601D03*
X007592Y013601D03*
D13*
X003592Y011101D03*
X014592Y011101D03*
X025592Y011101D03*
X036592Y011101D03*
X047592Y011101D03*
X058592Y011101D03*
X069592Y011101D03*
X080592Y011101D03*
X080592Y006101D03*
X069592Y006101D03*
X058592Y006101D03*
X047592Y006101D03*
X036592Y006101D03*
X025592Y006101D03*
X014592Y006101D03*
X003592Y006101D03*
D14*
X043392Y006401D03*
X045392Y006401D03*
X045392Y008601D03*
X043392Y009601D03*
D15*
X066392Y018901D03*
X078692Y010801D03*
X022492Y021301D03*
X002692Y023301D03*
X002592Y021101D03*
D16*
X014292Y018901D03*
X023292Y018801D03*
X034092Y021601D03*
X034892Y022601D03*
X038292Y023101D03*
X038392Y022101D03*
X034792Y018901D03*
X016292Y022101D03*
X057092Y019801D03*
X078992Y020101D03*
D17*
X043392Y009601D02*
X041592Y009601D01*
X034092Y009601D01*
X030592Y009601D01*
X019592Y009601D01*
X012392Y009601D01*
X008592Y009601D01*
X043392Y006401D02*
X045392Y006401D01*
X045392Y006101D01*
X047592Y006101D01*
X045392Y008601D02*
X052592Y008601D01*
X063592Y008601D01*
X074592Y008601D01*
X085592Y008601D01*
D18*
X052592Y008601D02*
X052192Y008901D01*
X038292Y022801D01*
X038292Y023101D01*
X038392Y022101D02*
X038392Y018901D01*
X034792Y018901D01*
X034092Y021601D02*
X034092Y009601D01*
X012392Y009601D02*
X012392Y021601D01*
X012892Y021601D01*
X014292Y018901D02*
X016292Y020901D01*
X016292Y022101D01*
X023292Y018801D02*
X027092Y022601D01*
X034892Y022601D01*
X057092Y019801D02*
X066292Y019801D01*
X066292Y018901D01*
X066392Y018901D01*
X066292Y019801D02*
X077792Y019801D01*
X078092Y020101D01*
X078992Y020101D01*
X009092Y017601D02*
X009092Y011101D01*
X007792Y009801D01*
X007792Y008401D01*
X008592Y007601D01*
D19*
X012892Y021601D03*
D20*
X014592Y006101D02*
X003592Y006101D01*
X014592Y006101D02*
X025592Y006101D01*
X036592Y006101D01*
X047592Y006101D01*
X058592Y006101D01*
X069592Y006101D01*
X080592Y006101D01*
M02*
