G75*
G70*
%OFA0B0*%
%FSLAX24Y24*%
%IPPOS*%
%LPD*%
%AMOC8*
5,1,8,0,0,1.08239X$1,22.5*
%
%ADD10C,0.0100*%
%ADD11C,0.0040*%
%ADD12R,0.0110X0.0551*%
%ADD13C,0.0520*%
D10*
X001276Y001427D02*
X002882Y003034D01*
X002882Y003140D01*
X003079Y003140D02*
X003079Y002230D01*
X002276Y001427D01*
X003276Y001427D02*
X003276Y003140D01*
X003473Y003140D02*
X003473Y002230D01*
X004276Y001427D01*
X005276Y001427D02*
X003670Y003034D01*
X003670Y003140D01*
X002276Y003327D02*
X002278Y003347D01*
X002284Y003365D01*
X002293Y003383D01*
X002305Y003398D01*
X002320Y003410D01*
X002338Y003419D01*
X002356Y003425D01*
X002376Y003427D01*
X002396Y003425D01*
X002414Y003419D01*
X002432Y003410D01*
X002447Y003398D01*
X002459Y003383D01*
X002468Y003365D01*
X002474Y003347D01*
X002476Y003327D01*
X002474Y003307D01*
X002468Y003289D01*
X002459Y003271D01*
X002447Y003256D01*
X002432Y003244D01*
X002414Y003235D01*
X002396Y003229D01*
X002376Y003227D01*
X002356Y003229D01*
X002338Y003235D01*
X002320Y003244D01*
X002305Y003256D01*
X002293Y003271D01*
X002284Y003289D01*
X002278Y003307D01*
X002276Y003327D01*
X002882Y004715D02*
X002882Y004821D01*
X001276Y006427D01*
X002276Y006427D02*
X003079Y005624D01*
X003079Y004715D01*
X003276Y004715D02*
X003276Y006427D01*
X003473Y005624D02*
X004276Y006427D01*
X003473Y005624D02*
X003473Y004715D01*
X003670Y004715D02*
X003670Y004821D01*
X005276Y006427D01*
D11*
X005226Y004896D02*
X005456Y004589D01*
X005379Y004435D02*
X005226Y004435D01*
X005226Y004282D01*
X005072Y004435D02*
X004996Y004358D01*
X004996Y004205D01*
X005072Y004128D01*
X005379Y004128D01*
X005456Y004205D01*
X005456Y004358D01*
X005379Y004435D01*
X004996Y004589D02*
X005226Y004896D01*
X005456Y003975D02*
X004996Y003975D01*
X004996Y003668D02*
X005456Y003975D01*
X005456Y003668D02*
X004996Y003668D01*
X004996Y003514D02*
X004996Y003208D01*
X004996Y003361D02*
X005456Y003361D01*
X005456Y003054D02*
X005226Y002747D01*
X004996Y003054D01*
X001556Y003084D02*
X001479Y003008D01*
X001172Y003314D01*
X001479Y003314D01*
X001556Y003238D01*
X001556Y003084D01*
X001479Y003008D02*
X001172Y003008D01*
X001096Y003084D01*
X001096Y003238D01*
X001172Y003314D01*
X001326Y003468D02*
X001326Y003775D01*
X001249Y003928D02*
X001479Y003928D01*
X001556Y004005D01*
X001556Y004235D01*
X001249Y004235D01*
X001249Y004389D02*
X001249Y004465D01*
X001326Y004542D01*
X001249Y004619D01*
X001326Y004696D01*
X001556Y004696D01*
X001556Y004542D02*
X001326Y004542D01*
X001249Y004389D02*
X001556Y004389D01*
X001479Y004849D02*
X001403Y004926D01*
X001403Y005156D01*
X001326Y005156D02*
X001556Y005156D01*
X001556Y004926D01*
X001479Y004849D01*
X001249Y004926D02*
X001249Y005079D01*
X001326Y005156D01*
X001249Y005309D02*
X001556Y005616D01*
X001556Y005309D02*
X001249Y005616D01*
X001556Y002854D02*
X001556Y002547D01*
X001556Y002701D02*
X001096Y002701D01*
X001249Y002547D01*
D12*
X002882Y003140D03*
X003079Y003140D03*
X003276Y003140D03*
X003473Y003140D03*
X003670Y003140D03*
X003670Y004715D03*
X003473Y004715D03*
X003276Y004715D03*
X003079Y004715D03*
X002882Y004715D03*
D13*
X001276Y001687D02*
X001276Y001167D01*
X002276Y001167D02*
X002276Y001687D01*
X003276Y001687D02*
X003276Y001167D01*
X004276Y001167D02*
X004276Y001687D01*
X005276Y001687D02*
X005276Y001167D01*
X005276Y006167D02*
X005276Y006687D01*
X004276Y006687D02*
X004276Y006167D01*
X003276Y006167D02*
X003276Y006687D01*
X002276Y006687D02*
X002276Y006167D01*
X001276Y006167D02*
X001276Y006687D01*
M02*
