%
M48
M72
T01C0.0400
%
T01
X1272Y1423
X2272Y1423
X3272Y1423
X4272Y1423
X6272Y1423
X7272Y1423
X8272Y1423
X9272Y1423
X11272Y1423
X12272Y1423
X13272Y1423
X14272Y1423
X16272Y1423
X17272Y1423
X18272Y1423
X19272Y1423
X21272Y1423
X22272Y1423
X23272Y1423
X24272Y1423
X26272Y1423
X27272Y1423
X28272Y1423
X29272Y1423
X29272Y5423
X28272Y5423
X27272Y5423
X26272Y5423
X24272Y5423
X23272Y5423
X22272Y5423
X21272Y5423
X19272Y5423
X18272Y5423
X17272Y5423
X16272Y5423
X14272Y5423
X13272Y5423
X12272Y5423
X11272Y5423
X9272Y5423
X8272Y5423
X7272Y5423
X6272Y5423
X4272Y5423
X3272Y5423
X2272Y5423
X1272Y5423
X1772Y7823
X2772Y7823
X3772Y7823
X4772Y7823
X8072Y7823
X9072Y7823
X10072Y7823
X11072Y7823
X14472Y7823
X15472Y7823
X16472Y7823
X17472Y7823
X20372Y7823
X21372Y7823
X22372Y7823
X23372Y7823
X24372Y7823
X25372Y7823
X26372Y7823
X27372Y7823
X28372Y7823
X29372Y7823
X29372Y15823
X28372Y15823
X27372Y15823
X26372Y15823
X25372Y15823
X24372Y15823
X23372Y15823
X22372Y15823
X21372Y15823
X20372Y15823
X20372Y18323
X21372Y18323
X22372Y18323
X23372Y18323
X24372Y18323
X25372Y18323
X26372Y18323
X27372Y18323
X28372Y18323
X29372Y18323
X29372Y26323
X28372Y26323
X27372Y26323
X26372Y26323
X25372Y26323
X24372Y26323
X23372Y26323
X22372Y26323
X21372Y26323
X20372Y26323
X17472Y22923
X16472Y22923
X15472Y22923
X14472Y22923
X11472Y22923
X10472Y22923
X9472Y22923
X8472Y22923
X4772Y22923
X3772Y22923
X2772Y22923
X1772Y22923
X1772Y16923
X2772Y16923
X3772Y16923
X4772Y16923
X4772Y13823
X3772Y13823
X2772Y13823
X1772Y13823
X8072Y13823
X9072Y13823
X10072Y13823
X11072Y13823
X11472Y16923
X10472Y16923
X9472Y16923
X8472Y16923
X14472Y16923
X15472Y16923
X16472Y16923
X17472Y16923
X17472Y13823
X16472Y13823
X15472Y13823
X14472Y13823
M30
