%
M48
M72
T01C0.0320
T02C0.0360
T03C0.0400
T04C0.0433
T05C0.0440
T06C0.0512
T07C0.1102
T08C0.2165
%
T01
X12701Y5001
X12701Y5801
X15401Y5801
X15401Y4801
X37601Y4601
X37601Y3801
X52401Y30301
X52401Y31101
T02
X49301Y29301
X44201Y30401
X44201Y32401
X49301Y34301
X55201Y39401
X60201Y39401
X67901Y38001
X70301Y38001
X70301Y43001
X67901Y43001
X39201Y32401
X39201Y30401
X37901Y38001
X35401Y38001
X35401Y43001
X37901Y43001
X27701Y38301
X22701Y38301
X35601Y19101
X37801Y19101
X37801Y14101
X35601Y14101
X27701Y15401
X22701Y15401
X22801Y6701
X22801Y3901
X17801Y3901
X17801Y6701
X43801Y7801
X43801Y2801
X55101Y15201
X60101Y15201
X67701Y13901
X70001Y13901
X70001Y18901
X67701Y18901
T03
X3001Y5301
X3001Y6301
X29801Y5201
X29801Y3201
X34201Y3201
X34201Y5201
X38801Y2601
X39801Y2601
X40401Y13851
X40401Y19751
X46601Y30401
X46601Y31401
X40401Y37451
X40401Y43351
X56401Y32801
X56401Y30801
X60801Y30701
X60801Y32701
X64701Y32201
X64701Y31201
X67601Y31201
X67601Y32201
X72701Y37351
X72701Y43251
X72701Y19451
X72701Y13551
X13801Y29401
X12801Y29401
T04
X33351Y33401
X36101Y31601
X45451Y3851
X49901Y2601
T05
X56601Y18101
X57601Y18101
X58601Y18101
X26101Y18201
X25101Y18201
X24101Y18201
X24101Y42351
X25101Y42351
X26101Y42351
X56601Y42351
X57601Y42351
X58601Y42351
T06
X27101Y34301
X23601Y34301
X23601Y29301
X27101Y29301
X15701Y26101
X10701Y26101
X53101Y9001
X56801Y9001
X56801Y4001
X53101Y4001
T07
X52601Y17101
X62601Y17101
X30101Y17201
X20101Y17201
X20101Y41351
X30101Y41351
X52601Y41351
X62601Y41351
T08
X76701Y46901
X76701Y3801
X3501Y26101
X3401Y46901
M30
