G75*
G70*
%OFA0B0*%
%FSLAX24Y24*%
%IPPOS*%
%LPD*%
%AMOC8*
5,1,8,0,0,1.08239X$1,22.5*
%
%ADD10C,0.0660*%
%ADD11C,0.2540*%
%ADD12R,0.1000X0.1000*%
%ADD13C,0.0600*%
%ADD14R,0.3543X0.3543*%
%ADD15R,0.0866X0.0236*%
%ADD16OC8,0.0560*%
%ADD17OC8,0.0600*%
%ADD18C,0.1000*%
%ADD19OC8,0.1000*%
%ADD20OC8,0.0630*%
%ADD21C,0.0630*%
%ADD22OC8,0.0520*%
%ADD23C,0.0520*%
%ADD24R,0.0197X0.0394*%
%ADD25R,0.0512X0.0591*%
%ADD26C,0.0160*%
%ADD27C,0.0250*%
%ADD28C,0.0500*%
%ADD29C,0.5000*%
%ADD30C,0.1000*%
%ADD31C,0.0650*%
D10*
X024101Y017871D02*
X024101Y018531D01*
X025101Y018531D02*
X025101Y017871D01*
X026101Y017871D02*
X026101Y018531D01*
X056601Y018431D02*
X056601Y017771D01*
X057601Y017771D02*
X057601Y018431D01*
X058601Y018431D02*
X058601Y017771D01*
X058601Y042021D02*
X058601Y042681D01*
X057601Y042681D02*
X057601Y042021D01*
X056601Y042021D02*
X056601Y042681D01*
X026101Y042681D02*
X026101Y042021D01*
X025101Y042021D02*
X025101Y042681D01*
X024101Y042681D02*
X024101Y042021D01*
D11*
X020101Y041351D03*
X030101Y041351D03*
X052601Y041351D03*
X062601Y041351D03*
X062601Y017101D03*
X052601Y017101D03*
X030101Y017201D03*
X020101Y017201D03*
D12*
X015701Y026101D03*
X010701Y026101D03*
X023601Y029301D03*
X027101Y029301D03*
X027101Y034301D03*
X023601Y034301D03*
X053101Y009001D03*
X056801Y009001D03*
X056801Y004001D03*
X053101Y004001D03*
D13*
X039801Y002901D02*
X039801Y002301D01*
X038801Y002301D02*
X038801Y002901D01*
X003301Y005301D02*
X002701Y005301D01*
X002701Y006301D02*
X003301Y006301D01*
X012801Y029101D02*
X012801Y029701D01*
X013801Y029701D02*
X013801Y029101D01*
X046301Y030401D02*
X046901Y030401D01*
X046901Y031401D02*
X046301Y031401D01*
X064401Y031201D02*
X065001Y031201D01*
X065001Y032201D02*
X064401Y032201D01*
X067301Y032201D02*
X067901Y032201D01*
X067901Y031201D02*
X067301Y031201D01*
D14*
X076701Y046901D03*
X076701Y003801D03*
X003501Y026101D03*
X003401Y046901D03*
D15*
X033277Y032151D03*
X033277Y031651D03*
X033277Y031151D03*
X033277Y030651D03*
X035324Y030651D03*
X035324Y031151D03*
X035324Y031651D03*
X035324Y032151D03*
X010524Y006551D03*
X010524Y006051D03*
X010524Y005551D03*
X010524Y005051D03*
X008477Y005051D03*
X008477Y005551D03*
X008477Y006051D03*
X008477Y006551D03*
X046577Y004351D03*
X046577Y003851D03*
X046577Y003351D03*
X046577Y002851D03*
X048624Y002851D03*
X048624Y003351D03*
X048624Y003851D03*
X048624Y004351D03*
D16*
X043801Y002801D03*
X043801Y007801D03*
X037801Y014101D03*
X035601Y014101D03*
X035601Y019101D03*
X037801Y019101D03*
X027701Y015401D03*
X022701Y015401D03*
X022801Y006701D03*
X022801Y003901D03*
X017801Y003901D03*
X017801Y006701D03*
X049301Y029301D03*
X044201Y030401D03*
X044201Y032401D03*
X049301Y034301D03*
X055201Y039401D03*
X060201Y039401D03*
X067901Y038001D03*
X070301Y038001D03*
X070301Y043001D03*
X067901Y043001D03*
X039201Y032401D03*
X039201Y030401D03*
X037901Y038001D03*
X035401Y038001D03*
X035401Y043001D03*
X037901Y043001D03*
X027701Y038301D03*
X022701Y038301D03*
X055101Y015201D03*
X060101Y015201D03*
X067701Y013901D03*
X070001Y013901D03*
X070001Y018901D03*
X067701Y018901D03*
D17*
X072701Y019451D03*
X072701Y013551D03*
X040401Y013851D03*
X040401Y019751D03*
X040401Y037451D03*
X040401Y043351D03*
X072701Y043251D03*
X072701Y037351D03*
D18*
X060801Y032701D03*
X056401Y032801D03*
X034201Y003201D03*
X029801Y003201D03*
D19*
X029801Y005201D03*
X034201Y005201D03*
X056401Y030801D03*
X060801Y030701D03*
D20*
X015401Y004801D03*
D21*
X015401Y005801D03*
D22*
X012701Y005001D03*
X037601Y004601D03*
X052401Y030301D03*
D23*
X052401Y031101D03*
X012701Y005801D03*
X037601Y003801D03*
D24*
X041445Y002546D03*
X041957Y002546D03*
X041701Y003255D03*
X052401Y032746D03*
X052657Y033455D03*
X052145Y033455D03*
D25*
X006275Y007601D03*
X005527Y007601D03*
X005527Y006401D03*
X006275Y006401D03*
X006275Y005201D03*
X005527Y005201D03*
X005527Y004001D03*
X006275Y004001D03*
D26*
X005601Y003851D02*
X005527Y004001D01*
X005601Y003851D02*
X006101Y003351D01*
X006601Y003351D01*
X008351Y005101D01*
X008477Y005051D01*
X008601Y005101D01*
X008701Y005101D01*
X009201Y004601D01*
X012701Y004601D01*
X012701Y005001D01*
X012701Y005801D02*
X012601Y005851D01*
X011851Y006601D01*
X010601Y006601D01*
X010524Y006551D01*
X008477Y006551D02*
X008351Y006601D01*
X007501Y007451D01*
X017001Y007451D01*
X017801Y006701D01*
X022801Y006701D02*
X022851Y006601D01*
X022851Y006101D01*
X037851Y006101D01*
X039601Y004351D01*
X046577Y004351D01*
X047301Y004351D01*
X047801Y003851D01*
X048624Y003851D01*
X048624Y004351D02*
X048601Y004351D01*
X048624Y003351D02*
X051751Y003351D01*
X052101Y003001D01*
X054301Y003001D01*
X054901Y003601D01*
X054901Y007201D01*
X053101Y009001D01*
X046577Y003851D02*
X045451Y003851D01*
X046577Y003351D02*
X047101Y003351D01*
X048601Y001851D01*
X056101Y001851D01*
X067601Y013351D01*
X067601Y013851D01*
X067701Y013901D01*
X070001Y013901D02*
X070101Y014101D01*
X070101Y016851D01*
X072701Y019451D01*
X070001Y018901D02*
X069851Y018851D01*
X067851Y018851D01*
X067701Y018901D01*
X059401Y018901D01*
X058601Y018101D01*
X058601Y016701D01*
X060101Y015201D01*
X056601Y015351D02*
X056301Y015351D01*
X056151Y015201D01*
X055101Y015201D01*
X056101Y015351D02*
X056301Y015351D01*
X040401Y019751D02*
X040351Y019601D01*
X037851Y017101D01*
X037851Y014101D01*
X037801Y014101D01*
X037801Y019101D02*
X035601Y019101D01*
X029601Y019101D01*
X027351Y016851D01*
X027601Y016601D01*
X027601Y015601D01*
X027701Y015401D01*
X027351Y016851D02*
X026101Y018101D01*
X026101Y018201D01*
X024101Y015351D02*
X022851Y015351D01*
X022701Y015401D01*
X015201Y022101D02*
X019201Y026101D01*
X042301Y026101D01*
X046601Y030401D01*
X044201Y030401D01*
X043301Y029501D01*
X034801Y029501D01*
X033651Y030651D01*
X033277Y030651D01*
X033351Y031101D02*
X033277Y031151D01*
X033351Y031101D02*
X034051Y031101D01*
X034551Y030601D01*
X035101Y030601D01*
X035324Y030651D01*
X035351Y030601D01*
X039101Y030601D01*
X039201Y030401D01*
X039351Y030601D01*
X039351Y032351D01*
X039201Y032401D01*
X036101Y031601D02*
X035351Y031601D01*
X035324Y031651D01*
X035351Y032101D02*
X035324Y032151D01*
X035324Y031151D02*
X035101Y031101D01*
X034851Y031101D01*
X034301Y031651D01*
X034301Y033901D01*
X033901Y034301D01*
X027101Y034301D01*
X026351Y031601D02*
X023851Y034101D01*
X023601Y034301D01*
X026351Y031601D02*
X033101Y031601D01*
X033277Y031651D01*
X033351Y032101D02*
X033277Y032151D01*
X033351Y032101D02*
X033351Y033401D01*
X037901Y038001D02*
X038101Y038101D01*
X038101Y041101D01*
X040351Y043351D01*
X040401Y043351D01*
X037901Y043001D02*
X037851Y043101D01*
X035601Y043101D01*
X035401Y043001D01*
X035351Y042851D01*
X029101Y042851D01*
X027351Y041101D01*
X027601Y040851D01*
X027601Y038351D01*
X027701Y038301D01*
X027351Y041101D02*
X026101Y042351D01*
X023601Y038351D02*
X022851Y038351D01*
X022701Y038301D01*
X012801Y029401D02*
X012601Y029351D01*
X011601Y028351D01*
X010701Y026101D01*
X015201Y022101D02*
X006001Y022101D01*
X004401Y020501D01*
X004401Y007527D01*
X005527Y006401D01*
X005351Y006351D01*
X003101Y006351D01*
X003001Y006301D01*
X003101Y005351D02*
X003001Y005301D01*
X003101Y005351D02*
X005351Y005351D01*
X005527Y005201D01*
X006275Y005201D02*
X006351Y005351D01*
X006601Y005601D01*
X008351Y005601D01*
X008477Y005551D01*
X008477Y006051D02*
X008351Y006101D01*
X006601Y006101D01*
X006351Y006351D01*
X006275Y006401D01*
X006351Y006601D01*
X005601Y007351D01*
X005601Y007601D01*
X005527Y007601D01*
X006275Y007601D02*
X007351Y007601D01*
X007501Y007451D01*
X006275Y005201D02*
X006351Y005101D01*
X006351Y004101D01*
X006275Y004001D01*
X022801Y003901D02*
X022851Y004101D01*
X022851Y006101D01*
X039801Y002601D02*
X041391Y002601D01*
X041445Y002546D01*
X043801Y002801D02*
X043851Y002851D01*
X048624Y002851D02*
X049651Y002851D01*
X049901Y002601D01*
X067601Y031101D02*
X067601Y031201D01*
X067601Y031351D01*
X064851Y031351D01*
X064701Y031201D01*
X067601Y031101D02*
X072601Y036101D01*
X072601Y037351D01*
X072701Y037351D01*
X070351Y038101D02*
X070301Y038001D01*
X070351Y038101D02*
X070351Y040851D01*
X072601Y043101D01*
X072701Y043251D01*
X070301Y043001D02*
X070101Y043101D01*
X068101Y043101D01*
X067901Y043001D01*
X059251Y043001D01*
X058601Y042351D01*
X060201Y040751D01*
X060201Y039401D01*
X056601Y039401D02*
X055201Y039401D01*
X049301Y034301D02*
X049101Y034351D01*
X052601Y033601D02*
X052657Y033455D01*
X052601Y033601D02*
X066351Y033601D01*
X067601Y032351D01*
X067601Y032201D01*
X052401Y032746D02*
X052351Y032851D01*
X046601Y031601D02*
X046601Y031401D01*
X046601Y031601D02*
X045851Y032351D01*
X044351Y032351D01*
X044201Y032401D01*
D27*
X049051Y034301D02*
X049101Y034351D01*
X049051Y034301D02*
X037601Y034301D01*
X035401Y032101D01*
X035351Y032101D01*
X049301Y034301D02*
X051299Y034301D01*
X052145Y033455D01*
X052401Y032746D02*
X056346Y032746D01*
X056401Y032801D01*
X060701Y032801D01*
X060801Y032701D01*
X064201Y032701D01*
X064701Y032201D01*
X052401Y032746D02*
X052401Y031101D01*
X045151Y007801D02*
X043801Y007801D01*
X045151Y007801D02*
X048601Y004351D01*
X046577Y002851D02*
X043851Y002851D01*
X043801Y002801D02*
X043546Y002546D01*
X041957Y002546D01*
X041701Y003255D02*
X041155Y003801D01*
X037601Y003801D01*
X037001Y003201D01*
X034201Y003201D01*
X034201Y005201D02*
X037001Y005201D01*
X037601Y004601D01*
D28*
X048624Y004351D02*
X052751Y004351D01*
X053101Y004001D01*
X027101Y029301D02*
X028451Y030651D01*
X033277Y030651D01*
D29*
X010701Y026101D02*
X003501Y026101D01*
D30*
X023601Y034301D02*
X023601Y038351D01*
X023601Y042351D01*
X024101Y042351D01*
X027101Y035501D02*
X056601Y035501D01*
X056601Y039401D01*
X056601Y042351D01*
X027101Y035501D02*
X027101Y034301D01*
X024101Y018201D02*
X024101Y015351D01*
X024101Y010701D01*
X053101Y010701D01*
X053101Y009001D01*
X056601Y009001D02*
X056801Y009001D01*
X056601Y009001D02*
X056601Y015351D01*
X056601Y018101D01*
D31*
X036101Y031601D03*
X033351Y033401D03*
X045451Y003851D03*
X049901Y002601D03*
M02*
