G75*
G70*
%OFA0B0*%
%FSLAX24Y24*%
%IPPOS*%
%LPD*%
%AMOC8*
5,1,8,0,0,1.08239X$1,22.5*
%
%ADD10C,0.0600*%
%ADD11OC8,0.1000*%
%ADD12OC8,0.0560*%
%ADD13C,0.0520*%
%ADD14R,0.2100X0.0760*%
%ADD15R,0.0512X0.0591*%
%ADD16OC8,0.1240*%
%ADD17C,0.1240*%
%ADD18OC8,0.0520*%
%ADD19OC8,0.1500*%
%ADD20R,0.0945X0.0945*%
%ADD21C,0.0100*%
%ADD22C,0.1000*%
%ADD23C,0.2540*%
D10*
X010841Y002324D02*
X011441Y002324D01*
X011441Y003324D02*
X010841Y003324D01*
X010841Y004324D02*
X011441Y004324D01*
D11*
X003141Y009324D03*
X002141Y010824D03*
X003141Y012324D03*
D12*
X002141Y011824D03*
X003141Y011324D03*
X003141Y010324D03*
X002141Y009824D03*
D13*
X010641Y006584D02*
X010641Y006064D01*
X011641Y006064D02*
X011641Y006584D01*
X012641Y006584D02*
X012641Y006064D01*
X013641Y006064D02*
X013641Y006584D01*
X014641Y006584D02*
X014641Y006064D01*
X015641Y006064D02*
X015641Y006584D01*
X015641Y008064D02*
X015641Y008584D01*
X016641Y008584D02*
X016641Y008064D01*
X017641Y008064D02*
X017641Y008584D01*
X018641Y008584D02*
X018641Y008064D01*
X019641Y008064D02*
X019641Y008584D01*
X020641Y008584D02*
X020641Y008064D01*
X021641Y008064D02*
X021641Y008584D01*
X022641Y008584D02*
X022641Y008064D01*
X023641Y008064D02*
X023641Y008584D01*
X024641Y008584D02*
X024641Y008064D01*
X025641Y008064D02*
X025641Y008584D01*
X025641Y011064D02*
X025641Y011584D01*
X024641Y011584D02*
X024641Y011064D01*
X023641Y011064D02*
X023641Y011584D01*
X022641Y011584D02*
X022641Y011064D01*
X021641Y011064D02*
X021641Y011584D01*
X020641Y011584D02*
X020641Y011064D01*
X019641Y011064D02*
X019641Y011584D01*
X018641Y011584D02*
X018641Y011064D01*
X017641Y011064D02*
X017641Y011584D01*
X016641Y011584D02*
X016641Y011064D01*
X015641Y011064D02*
X015641Y011584D01*
X014641Y011584D02*
X014641Y011064D01*
X013641Y011064D02*
X013641Y011584D01*
X012641Y011584D02*
X012641Y011064D01*
X012641Y008584D02*
X012641Y008064D01*
X013641Y008064D02*
X013641Y008584D01*
X014641Y008584D02*
X014641Y008064D01*
D14*
X021241Y005824D03*
X025041Y005824D03*
D15*
X024476Y003824D03*
X023806Y003824D03*
X022476Y003824D03*
X021806Y003824D03*
D16*
X024641Y017824D03*
X017641Y017824D03*
X010641Y017824D03*
X003641Y017824D03*
D17*
X003641Y014824D03*
X010641Y014824D03*
X017641Y014824D03*
X024641Y014824D03*
D18*
X024641Y012324D03*
X021641Y012324D03*
X019641Y012324D03*
X016641Y012324D03*
X011141Y010824D03*
X011141Y007824D03*
X017141Y007324D03*
X017141Y006324D03*
X018641Y006824D03*
X019641Y006824D03*
X026641Y003824D03*
X026641Y002824D03*
D19*
X001141Y003324D03*
X001141Y005324D03*
X001141Y006824D03*
X021141Y018824D03*
D20*
X008956Y004663D03*
X008956Y003324D03*
X003641Y003324D03*
X003641Y004663D03*
D21*
X010341Y003424D02*
X010341Y006024D01*
X010641Y006324D01*
X011141Y007824D02*
X012641Y006324D01*
X012541Y006224D01*
X012541Y004824D01*
X018541Y004824D01*
X018541Y006824D01*
X018641Y006824D01*
X018741Y006824D01*
X018741Y008224D01*
X018641Y008324D01*
X018741Y009224D02*
X019641Y008324D01*
X019741Y008224D01*
X019741Y006824D01*
X019641Y006824D01*
X021141Y005824D02*
X021241Y005824D01*
X021341Y005824D01*
X021341Y004224D01*
X021741Y003824D01*
X021806Y003824D01*
X022476Y003824D02*
X023806Y003824D01*
X023941Y003824D01*
X023941Y003424D01*
X024541Y002824D01*
X026641Y002824D01*
X024941Y004224D02*
X024941Y005024D01*
X021641Y008324D01*
X021141Y007824D02*
X020641Y008324D01*
X021141Y007824D02*
X021141Y005824D01*
X024476Y003824D02*
X024541Y003824D01*
X024941Y004224D01*
X024941Y005024D02*
X024941Y005824D01*
X025041Y005824D01*
X018741Y009224D02*
X018741Y011224D01*
X018641Y011324D01*
X019641Y012324D01*
X021641Y012324D02*
X021741Y012224D01*
X021741Y011424D01*
X021641Y011324D01*
X017641Y011324D02*
X016641Y012324D01*
X014641Y008324D02*
X014741Y008224D01*
X014741Y006424D01*
X014641Y006324D01*
X013741Y006424D02*
X013641Y006324D01*
X013741Y006424D02*
X013741Y008224D01*
X013641Y008324D01*
X012641Y008324D02*
X011141Y009824D01*
X011141Y010824D01*
X015641Y006324D02*
X015741Y006424D01*
X017141Y006424D01*
X017141Y006324D01*
X012541Y004824D02*
X012541Y002424D01*
X011141Y002424D01*
X011141Y002324D01*
X011141Y003324D02*
X011141Y003424D01*
X010341Y003424D01*
D22*
X008956Y003324D02*
X008956Y004663D01*
X008956Y012324D01*
X003141Y012324D01*
X002141Y010824D02*
X001141Y010824D01*
X001141Y014824D01*
X003641Y014824D01*
X003141Y009324D02*
X003141Y006824D01*
X001141Y006824D01*
X001141Y005324D01*
X003641Y004663D02*
X003641Y003324D01*
X001141Y003324D01*
D23*
X003641Y014824D02*
X010641Y014824D01*
X017641Y014824D01*
X024641Y014824D01*
X024641Y017824D02*
X021141Y017824D01*
X021141Y018824D01*
X017641Y017824D02*
X024641Y017824D01*
X017641Y017824D02*
X010641Y017824D01*
X003641Y017824D01*
M02*
